<svg width="866" height="692" viewBox="0 0 866 692" fill="none" xmlns="http://www.w3.org/2000/svg">
<g filter="url(#filter0_d)">
<rect x="-181" width="969" height="625" rx="25" fill="#5F4BB6"/>
</g>
<g filter="url(#filter1_d)">
<rect x="-113" y="59" width="969" height="625" rx="25" fill="#60004C"/>
</g>
<ellipse cx="684.5" cy="109.5" rx="10.5" ry="9.5" fill="#FF0000"/>
<ellipse cx="720.5" cy="109.5" rx="10.5" ry="9.5" fill="#FFE600"/>
<ellipse cx="756.5" cy="109.5" rx="10.5" ry="9.5" fill="#05FF00"/>
<g opacity="0.35">
<ellipse cx="627.5" cy="49.5" rx="10.5" ry="9.5" fill="#FF0000"/>
<ellipse cx="663.5" cy="49.5" rx="10.5" ry="9.5" fill="#FFE600"/>
<ellipse cx="699.5" cy="49.5" rx="10.5" ry="9.5" fill="#05FF00"/>
</g>
<path d="M60.92 307.416C60.92 308.68 60.44 309.752 59.48 310.632C58.536 311.512 57.16 312.024 55.352 312.168V314.88H53.816V312.168C52.648 312.104 51.536 311.888 50.48 311.52C49.44 311.136 48.608 310.656 47.984 310.08L48.872 308.208C49.448 308.736 50.176 309.176 51.056 309.528C51.936 309.864 52.856 310.064 53.816 310.128V304.56C52.696 304.288 51.76 303.992 51.008 303.672C50.272 303.352 49.648 302.88 49.136 302.256C48.64 301.632 48.392 300.816 48.392 299.808C48.392 298.544 48.848 297.472 49.76 296.592C50.688 295.712 52.04 295.2 53.816 295.056V292.32H55.352V295.032C56.264 295.064 57.144 295.208 57.992 295.464C58.856 295.72 59.6 296.064 60.224 296.496L59.432 298.416C58.136 297.6 56.776 297.152 55.352 297.072V302.664C56.52 302.952 57.48 303.256 58.232 303.576C58.984 303.88 59.616 304.344 60.128 304.968C60.656 305.576 60.92 306.392 60.92 307.416ZM50.744 299.712C50.744 300.4 51.008 300.936 51.536 301.32C52.064 301.704 52.824 302.024 53.816 302.28V297.096C52.792 297.224 52.024 297.528 51.512 298.008C51 298.472 50.744 299.04 50.744 299.712ZM55.352 310.104C56.424 310.008 57.224 309.736 57.752 309.288C58.296 308.824 58.568 308.248 58.568 307.56C58.568 306.856 58.288 306.32 57.728 305.952C57.184 305.568 56.392 305.232 55.352 304.944V310.104ZM82.0796 299.16C83.3116 299.16 84.4156 299.432 85.3916 299.976C86.3676 300.52 87.1276 301.28 87.6716 302.256C88.2316 303.232 88.5116 304.36 88.5116 305.64C88.5116 306.92 88.2316 308.056 87.6716 309.048C87.1276 310.024 86.3676 310.784 85.3916 311.328C84.4156 311.872 83.3116 312.144 82.0796 312.144C81.1676 312.144 80.3276 311.968 79.5596 311.616C78.8076 311.264 78.1676 310.752 77.6396 310.08V316.656H75.3356V299.28H77.5436V301.296C78.0556 300.592 78.7036 300.064 79.4876 299.712C80.2716 299.344 81.1356 299.16 82.0796 299.16ZM81.8876 310.128C82.7036 310.128 83.4316 309.944 84.0716 309.576C84.7276 309.192 85.2396 308.664 85.6076 307.992C85.9916 307.304 86.1836 306.52 86.1836 305.64C86.1836 304.76 85.9916 303.984 85.6076 303.312C85.2396 302.624 84.7276 302.096 84.0716 301.728C83.4316 301.36 82.7036 301.176 81.8876 301.176C81.0876 301.176 80.3596 301.368 79.7036 301.752C79.0636 302.12 78.5516 302.64 78.1676 303.312C77.7996 303.984 77.6156 304.76 77.6156 305.64C77.6156 306.52 77.7996 307.304 78.1676 307.992C78.5356 308.664 79.0476 309.192 79.7036 309.576C80.3596 309.944 81.0876 310.128 81.8876 310.128ZM104.999 299.28L98.8314 313.272C98.2874 314.568 97.6474 315.48 96.9114 316.008C96.1914 316.536 95.3194 316.8 94.2954 316.8C93.6714 316.8 93.0634 316.696 92.4714 316.488C91.8954 316.296 91.4154 316.008 91.0314 315.624L92.0154 313.896C92.6714 314.52 93.4314 314.832 94.2954 314.832C94.8554 314.832 95.3194 314.68 95.6874 314.376C96.0714 314.088 96.4154 313.584 96.7194 312.864L97.1274 311.976L91.5114 299.28H93.9114L98.3514 309.456L102.743 299.28H104.999ZM134.307 299.16C135.907 299.16 137.171 299.624 138.099 300.552C139.043 301.48 139.515 302.856 139.515 304.68V312H137.211V304.944C137.211 303.712 136.923 302.784 136.347 302.16C135.787 301.536 134.979 301.224 133.923 301.224C132.755 301.224 131.827 301.592 131.139 302.328C130.451 303.048 130.107 304.088 130.107 305.448V312H127.803V304.944C127.803 303.712 127.515 302.784 126.939 302.16C126.379 301.536 125.571 301.224 124.515 301.224C123.347 301.224 122.419 301.592 121.731 302.328C121.043 303.048 120.699 304.088 120.699 305.448V312H118.395V299.28H120.603V301.176C121.067 300.52 121.675 300.024 122.427 299.688C123.179 299.336 124.035 299.16 124.995 299.16C125.987 299.16 126.867 299.36 127.635 299.76C128.403 300.16 128.995 300.744 129.411 301.512C129.891 300.776 130.555 300.2 131.403 299.784C132.267 299.368 133.235 299.16 134.307 299.16ZM150.786 299.16C152.546 299.16 153.89 299.592 154.818 300.456C155.762 301.32 156.234 302.608 156.234 304.32V312H154.05V310.32C153.666 310.912 153.114 311.368 152.394 311.688C151.69 311.992 150.85 312.144 149.874 312.144C148.45 312.144 147.306 311.8 146.442 311.112C145.594 310.424 145.17 309.52 145.17 308.4C145.17 307.28 145.578 306.384 146.394 305.712C147.21 305.024 148.506 304.68 150.282 304.68H153.93V304.224C153.93 303.232 153.642 302.472 153.066 301.944C152.49 301.416 151.642 301.152 150.522 301.152C149.77 301.152 149.034 301.28 148.314 301.536C147.594 301.776 146.986 302.104 146.49 302.52L145.53 300.792C146.186 300.264 146.97 299.864 147.882 299.592C148.794 299.304 149.762 299.16 150.786 299.16ZM150.258 310.368C151.138 310.368 151.898 310.176 152.538 309.792C153.178 309.392 153.642 308.832 153.93 308.112V306.336H150.378C148.426 306.336 147.45 306.992 147.45 308.304C147.45 308.944 147.698 309.448 148.194 309.816C148.69 310.184 149.378 310.368 150.258 310.368ZM169.69 299.16C171.306 299.16 172.586 299.632 173.53 300.576C174.49 301.504 174.97 302.872 174.97 304.68V312H172.666V304.944C172.666 303.712 172.37 302.784 171.778 302.16C171.186 301.536 170.338 301.224 169.234 301.224C167.986 301.224 167.002 301.592 166.282 302.328C165.562 303.048 165.202 304.088 165.202 305.448V312H162.898V299.28H165.106V301.2C165.57 300.544 166.194 300.04 166.978 299.688C167.778 299.336 168.682 299.16 169.69 299.16ZM186.266 299.16C188.026 299.16 189.37 299.592 190.298 300.456C191.242 301.32 191.714 302.608 191.714 304.32V312H189.53V310.32C189.146 310.912 188.594 311.368 187.874 311.688C187.17 311.992 186.33 312.144 185.354 312.144C183.93 312.144 182.786 311.8 181.922 311.112C181.074 310.424 180.65 309.52 180.65 308.4C180.65 307.28 181.058 306.384 181.874 305.712C182.69 305.024 183.986 304.68 185.762 304.68H189.41V304.224C189.41 303.232 189.122 302.472 188.546 301.944C187.97 301.416 187.122 301.152 186.002 301.152C185.25 301.152 184.514 301.28 183.794 301.536C183.074 301.776 182.466 302.104 181.97 302.52L181.01 300.792C181.666 300.264 182.45 299.864 183.362 299.592C184.274 299.304 185.242 299.16 186.266 299.16ZM185.738 310.368C186.618 310.368 187.378 310.176 188.018 309.792C188.658 309.392 189.122 308.832 189.41 308.112V306.336H185.858C183.906 306.336 182.93 306.992 182.93 308.304C182.93 308.944 183.178 309.448 183.674 309.816C184.17 310.184 184.858 310.368 185.738 310.368ZM210.616 299.28V310.272C210.616 312.496 210.064 314.136 208.96 315.192C207.856 316.264 206.208 316.8 204.016 316.8C202.816 316.8 201.672 316.632 200.584 316.296C199.496 315.976 198.616 315.512 197.944 314.904L199.048 313.128C199.64 313.64 200.368 314.04 201.232 314.328C202.112 314.632 203.016 314.784 203.944 314.784C205.432 314.784 206.528 314.432 207.232 313.728C207.952 313.024 208.312 311.952 208.312 310.512V309.504C207.768 310.16 207.096 310.656 206.296 310.992C205.512 311.312 204.656 311.472 203.728 311.472C202.512 311.472 201.408 311.216 200.416 310.704C199.44 310.176 198.672 309.448 198.112 308.52C197.552 307.576 197.272 306.504 197.272 305.304C197.272 304.104 197.552 303.04 198.112 302.112C198.672 301.168 199.44 300.44 200.416 299.928C201.408 299.416 202.512 299.16 203.728 299.16C204.688 299.16 205.576 299.336 206.392 299.688C207.224 300.04 207.904 300.56 208.432 301.248V299.28H210.616ZM203.992 309.456C204.824 309.456 205.568 309.28 206.224 308.928C206.896 308.576 207.416 308.088 207.784 307.464C208.168 306.824 208.36 306.104 208.36 305.304C208.36 304.072 207.952 303.08 207.136 302.328C206.32 301.56 205.272 301.176 203.992 301.176C202.696 301.176 201.64 301.56 200.824 302.328C200.008 303.08 199.6 304.072 199.6 305.304C199.6 306.104 199.784 306.824 200.152 307.464C200.536 308.088 201.056 308.576 201.712 308.928C202.384 309.28 203.144 309.456 203.992 309.456ZM228.914 305.712C228.914 305.888 228.898 306.12 228.866 306.408H218.546C218.69 307.528 219.178 308.432 220.01 309.12C220.858 309.792 221.906 310.128 223.154 310.128C224.674 310.128 225.898 309.616 226.826 308.592L228.098 310.08C227.522 310.752 226.802 311.264 225.938 311.616C225.09 311.968 224.138 312.144 223.082 312.144C221.738 312.144 220.546 311.872 219.506 311.328C218.466 310.768 217.658 309.992 217.082 309C216.522 308.008 216.242 306.888 216.242 305.64C216.242 304.408 216.514 303.296 217.058 302.304C217.618 301.312 218.378 300.544 219.338 300C220.314 299.44 221.41 299.16 222.626 299.16C223.842 299.16 224.922 299.44 225.866 300C226.826 300.544 227.57 301.312 228.098 302.304C228.642 303.296 228.914 304.432 228.914 305.712ZM222.626 301.104C221.522 301.104 220.594 301.44 219.842 302.112C219.106 302.784 218.674 303.664 218.546 304.752H226.706C226.578 303.68 226.138 302.808 225.386 302.136C224.65 301.448 223.73 301.104 222.626 301.104ZM235.066 312.144C234.618 312.144 234.234 311.992 233.914 311.688C233.594 311.368 233.434 310.968 233.434 310.488C233.434 310.024 233.594 309.64 233.914 309.336C234.234 309.016 234.618 308.856 235.066 308.856C235.514 308.856 235.89 309.008 236.194 309.312C236.498 309.616 236.65 310.008 236.65 310.488C236.65 310.968 236.49 311.368 236.17 311.688C235.866 311.992 235.498 312.144 235.066 312.144ZM249.095 299.16C250.327 299.16 251.431 299.432 252.407 299.976C253.383 300.52 254.143 301.28 254.687 302.256C255.247 303.232 255.527 304.36 255.527 305.64C255.527 306.92 255.247 308.056 254.687 309.048C254.143 310.024 253.383 310.784 252.407 311.328C251.431 311.872 250.327 312.144 249.095 312.144C248.183 312.144 247.343 311.968 246.575 311.616C245.823 311.264 245.183 310.752 244.655 310.08V316.656H242.351V299.28H244.559V301.296C245.071 300.592 245.719 300.064 246.503 299.712C247.287 299.344 248.151 299.16 249.095 299.16ZM248.903 310.128C249.719 310.128 250.447 309.944 251.087 309.576C251.743 309.192 252.255 308.664 252.623 307.992C253.007 307.304 253.199 306.52 253.199 305.64C253.199 304.76 253.007 303.984 252.623 303.312C252.255 302.624 251.743 302.096 251.087 301.728C250.447 301.36 249.719 301.176 248.903 301.176C248.103 301.176 247.375 301.368 246.719 301.752C246.079 302.12 245.567 302.64 245.183 303.312C244.815 303.984 244.631 304.76 244.631 305.64C244.631 306.52 244.815 307.304 245.183 307.992C245.551 308.664 246.063 309.192 246.719 309.576C247.375 309.944 248.103 310.128 248.903 310.128ZM272.015 299.28L265.847 313.272C265.303 314.568 264.663 315.48 263.927 316.008C263.207 316.536 262.335 316.8 261.311 316.8C260.687 316.8 260.079 316.696 259.487 316.488C258.911 316.296 258.431 316.008 258.047 315.624L259.031 313.896C259.687 314.52 260.447 314.832 261.311 314.832C261.871 314.832 262.335 314.68 262.703 314.376C263.087 314.088 263.431 313.584 263.735 312.864L264.143 311.976L258.527 299.28H260.927L265.367 309.456L269.759 299.28H272.015ZM287.619 301.416C288.019 300.68 288.611 300.12 289.395 299.736C290.179 299.352 291.131 299.16 292.251 299.16V301.392C292.123 301.376 291.947 301.368 291.723 301.368C290.475 301.368 289.491 301.744 288.771 302.496C288.067 303.232 287.715 304.288 287.715 305.664V312H285.411V299.28H287.619V301.416ZM309.51 299.28V312H307.326V310.08C306.862 310.736 306.246 311.248 305.478 311.616C304.726 311.968 303.902 312.144 303.006 312.144C301.31 312.144 299.974 311.68 298.998 310.752C298.022 309.808 297.534 308.424 297.534 306.6V299.28H299.838V306.336C299.838 307.568 300.134 308.504 300.726 309.144C301.318 309.768 302.166 310.08 303.27 310.08C304.486 310.08 305.446 309.712 306.15 308.976C306.854 308.24 307.206 307.2 307.206 305.856V299.28H309.51ZM323.088 299.16C324.704 299.16 325.984 299.632 326.928 300.576C327.888 301.504 328.368 302.872 328.368 304.68V312H326.064V304.944C326.064 303.712 325.768 302.784 325.176 302.16C324.584 301.536 323.736 301.224 322.632 301.224C321.384 301.224 320.4 301.592 319.68 302.328C318.96 303.048 318.6 304.088 318.6 305.448V312H316.296V299.28H318.504V301.2C318.968 300.544 319.592 300.04 320.376 299.688C321.176 299.336 322.08 299.16 323.088 299.16ZM338.68 312.144C337.64 312.144 336.64 312.008 335.68 311.736C334.72 311.448 333.968 311.088 333.424 310.656L334.384 308.832C334.944 309.232 335.624 309.552 336.424 309.792C337.224 310.032 338.032 310.152 338.848 310.152C340.864 310.152 341.872 309.576 341.872 308.424C341.872 308.04 341.736 307.736 341.464 307.512C341.192 307.288 340.848 307.128 340.432 307.032C340.032 306.92 339.456 306.8 338.704 306.672C337.68 306.512 336.84 306.328 336.184 306.12C335.544 305.912 334.992 305.56 334.528 305.064C334.064 304.568 333.832 303.872 333.832 302.976C333.832 301.824 334.312 300.904 335.272 300.216C336.232 299.512 337.52 299.16 339.136 299.16C339.984 299.16 340.832 299.264 341.68 299.472C342.528 299.68 343.224 299.96 343.768 300.312L342.784 302.136C341.744 301.464 340.52 301.128 339.112 301.128C338.136 301.128 337.392 301.288 336.88 301.608C336.368 301.928 336.112 302.352 336.112 302.88C336.112 303.296 336.256 303.624 336.544 303.864C336.832 304.104 337.184 304.28 337.6 304.392C338.032 304.504 338.632 304.632 339.4 304.776C340.424 304.952 341.248 305.144 341.872 305.352C342.512 305.544 343.056 305.88 343.504 306.36C343.952 306.84 344.176 307.512 344.176 308.376C344.176 309.528 343.68 310.448 342.688 311.136C341.712 311.808 340.376 312.144 338.68 312.144ZM360.952 305.712C360.952 305.888 360.936 306.12 360.904 306.408H350.584C350.728 307.528 351.216 308.432 352.048 309.12C352.896 309.792 353.944 310.128 355.192 310.128C356.712 310.128 357.936 309.616 358.864 308.592L360.136 310.08C359.56 310.752 358.84 311.264 357.976 311.616C357.128 311.968 356.176 312.144 355.12 312.144C353.776 312.144 352.584 311.872 351.544 311.328C350.504 310.768 349.696 309.992 349.12 309C348.56 308.008 348.28 306.888 348.28 305.64C348.28 304.408 348.552 303.296 349.096 302.304C349.656 301.312 350.416 300.544 351.376 300C352.352 299.44 353.448 299.16 354.664 299.16C355.88 299.16 356.96 299.44 357.904 300C358.864 300.544 359.608 301.312 360.136 302.304C360.68 303.296 360.952 304.432 360.952 305.712ZM354.664 301.104C353.56 301.104 352.632 301.44 351.88 302.112C351.144 302.784 350.712 303.664 350.584 304.752H358.744C358.616 303.68 358.176 302.808 357.424 302.136C356.688 301.448 355.768 301.104 354.664 301.104ZM368.759 301.416C369.159 300.68 369.751 300.12 370.535 299.736C371.319 299.352 372.271 299.16 373.391 299.16V301.392C373.263 301.376 373.087 301.368 372.863 301.368C371.615 301.368 370.631 301.744 369.911 302.496C369.207 303.232 368.855 304.288 368.855 305.664V312H366.551V299.28H368.759V301.416ZM390.402 299.28L384.834 312H382.482L376.914 299.28H379.314L383.682 309.48L388.146 299.28H390.402ZM406.097 305.712C406.097 305.888 406.081 306.12 406.049 306.408H395.729C395.873 307.528 396.361 308.432 397.193 309.12C398.041 309.792 399.089 310.128 400.337 310.128C401.857 310.128 403.081 309.616 404.009 308.592L405.281 310.08C404.705 310.752 403.985 311.264 403.121 311.616C402.273 311.968 401.321 312.144 400.265 312.144C398.921 312.144 397.729 311.872 396.689 311.328C395.649 310.768 394.841 309.992 394.265 309C393.705 308.008 393.425 306.888 393.425 305.64C393.425 304.408 393.697 303.296 394.241 302.304C394.801 301.312 395.561 300.544 396.521 300C397.497 299.44 398.593 299.16 399.809 299.16C401.025 299.16 402.105 299.44 403.049 300C404.009 300.544 404.753 301.312 405.281 302.304C405.825 303.296 406.097 304.432 406.097 305.712ZM399.809 301.104C398.705 301.104 397.777 301.44 397.025 302.112C396.289 302.784 395.857 303.664 395.729 304.752H403.889C403.761 303.68 403.321 302.808 402.569 302.136C401.833 301.448 400.913 301.104 399.809 301.104ZM413.905 301.416C414.305 300.68 414.897 300.12 415.681 299.736C416.465 299.352 417.417 299.16 418.537 299.16V301.392C418.409 301.376 418.233 301.368 418.009 301.368C416.761 301.368 415.777 301.744 415.057 302.496C414.353 303.232 414.001 304.288 414.001 305.664V312H411.697V299.28H413.905V301.416Z" fill="#00FF0A"/>
<path d="M60.92 343.416C60.92 344.68 60.44 345.752 59.48 346.632C58.536 347.512 57.16 348.024 55.352 348.168V350.88H53.816V348.168C52.648 348.104 51.536 347.888 50.48 347.52C49.44 347.136 48.608 346.656 47.984 346.08L48.872 344.208C49.448 344.736 50.176 345.176 51.056 345.528C51.936 345.864 52.856 346.064 53.816 346.128V340.56C52.696 340.288 51.76 339.992 51.008 339.672C50.272 339.352 49.648 338.88 49.136 338.256C48.64 337.632 48.392 336.816 48.392 335.808C48.392 334.544 48.848 333.472 49.76 332.592C50.688 331.712 52.04 331.2 53.816 331.056V328.32H55.352V331.032C56.264 331.064 57.144 331.208 57.992 331.464C58.856 331.72 59.6 332.064 60.224 332.496L59.432 334.416C58.136 333.6 56.776 333.152 55.352 333.072V338.664C56.52 338.952 57.48 339.256 58.232 339.576C58.984 339.88 59.616 340.344 60.128 340.968C60.656 341.576 60.92 342.392 60.92 343.416ZM50.744 335.712C50.744 336.4 51.008 336.936 51.536 337.32C52.064 337.704 52.824 338.024 53.816 338.28V333.096C52.792 333.224 52.024 333.528 51.512 334.008C51 334.472 50.744 335.04 50.744 335.712ZM55.352 346.104C56.424 346.008 57.224 345.736 57.752 345.288C58.296 344.824 58.568 344.248 58.568 343.56C58.568 342.856 58.288 342.32 57.728 341.952C57.184 341.568 56.392 341.232 55.352 340.944V346.104ZM82.0796 335.16C83.3116 335.16 84.4156 335.432 85.3916 335.976C86.3676 336.52 87.1276 337.28 87.6716 338.256C88.2316 339.232 88.5116 340.36 88.5116 341.64C88.5116 342.92 88.2316 344.056 87.6716 345.048C87.1276 346.024 86.3676 346.784 85.3916 347.328C84.4156 347.872 83.3116 348.144 82.0796 348.144C81.1676 348.144 80.3276 347.968 79.5596 347.616C78.8076 347.264 78.1676 346.752 77.6396 346.08V352.656H75.3356V335.28H77.5436V337.296C78.0556 336.592 78.7036 336.064 79.4876 335.712C80.2716 335.344 81.1356 335.16 82.0796 335.16ZM81.8876 346.128C82.7036 346.128 83.4316 345.944 84.0716 345.576C84.7276 345.192 85.2396 344.664 85.6076 343.992C85.9916 343.304 86.1836 342.52 86.1836 341.64C86.1836 340.76 85.9916 339.984 85.6076 339.312C85.2396 338.624 84.7276 338.096 84.0716 337.728C83.4316 337.36 82.7036 337.176 81.8876 337.176C81.0876 337.176 80.3596 337.368 79.7036 337.752C79.0636 338.12 78.5516 338.64 78.1676 339.312C77.7996 339.984 77.6156 340.76 77.6156 341.64C77.6156 342.52 77.7996 343.304 78.1676 343.992C78.5356 344.664 79.0476 345.192 79.7036 345.576C80.3596 345.944 81.0876 346.128 81.8876 346.128ZM104.999 335.28L98.8314 349.272C98.2874 350.568 97.6474 351.48 96.9114 352.008C96.1914 352.536 95.3194 352.8 94.2954 352.8C93.6714 352.8 93.0634 352.696 92.4714 352.488C91.8954 352.296 91.4154 352.008 91.0314 351.624L92.0154 349.896C92.6714 350.52 93.4314 350.832 94.2954 350.832C94.8554 350.832 95.3194 350.68 95.6874 350.376C96.0714 350.088 96.4154 349.584 96.7194 348.864L97.1274 347.976L91.5114 335.28H93.9114L98.3514 345.456L102.743 335.28H104.999ZM134.307 335.16C135.907 335.16 137.171 335.624 138.099 336.552C139.043 337.48 139.515 338.856 139.515 340.68V348H137.211V340.944C137.211 339.712 136.923 338.784 136.347 338.16C135.787 337.536 134.979 337.224 133.923 337.224C132.755 337.224 131.827 337.592 131.139 338.328C130.451 339.048 130.107 340.088 130.107 341.448V348H127.803V340.944C127.803 339.712 127.515 338.784 126.939 338.16C126.379 337.536 125.571 337.224 124.515 337.224C123.347 337.224 122.419 337.592 121.731 338.328C121.043 339.048 120.699 340.088 120.699 341.448V348H118.395V335.28H120.603V337.176C121.067 336.52 121.675 336.024 122.427 335.688C123.179 335.336 124.035 335.16 124.995 335.16C125.987 335.16 126.867 335.36 127.635 335.76C128.403 336.16 128.995 336.744 129.411 337.512C129.891 336.776 130.555 336.2 131.403 335.784C132.267 335.368 133.235 335.16 134.307 335.16ZM150.786 335.16C152.546 335.16 153.89 335.592 154.818 336.456C155.762 337.32 156.234 338.608 156.234 340.32V348H154.05V346.32C153.666 346.912 153.114 347.368 152.394 347.688C151.69 347.992 150.85 348.144 149.874 348.144C148.45 348.144 147.306 347.8 146.442 347.112C145.594 346.424 145.17 345.52 145.17 344.4C145.17 343.28 145.578 342.384 146.394 341.712C147.21 341.024 148.506 340.68 150.282 340.68H153.93V340.224C153.93 339.232 153.642 338.472 153.066 337.944C152.49 337.416 151.642 337.152 150.522 337.152C149.77 337.152 149.034 337.28 148.314 337.536C147.594 337.776 146.986 338.104 146.49 338.52L145.53 336.792C146.186 336.264 146.97 335.864 147.882 335.592C148.794 335.304 149.762 335.16 150.786 335.16ZM150.258 346.368C151.138 346.368 151.898 346.176 152.538 345.792C153.178 345.392 153.642 344.832 153.93 344.112V342.336H150.378C148.426 342.336 147.45 342.992 147.45 344.304C147.45 344.944 147.698 345.448 148.194 345.816C148.69 346.184 149.378 346.368 150.258 346.368ZM169.69 335.16C171.306 335.16 172.586 335.632 173.53 336.576C174.49 337.504 174.97 338.872 174.97 340.68V348H172.666V340.944C172.666 339.712 172.37 338.784 171.778 338.16C171.186 337.536 170.338 337.224 169.234 337.224C167.986 337.224 167.002 337.592 166.282 338.328C165.562 339.048 165.202 340.088 165.202 341.448V348H162.898V335.28H165.106V337.2C165.57 336.544 166.194 336.04 166.978 335.688C167.778 335.336 168.682 335.16 169.69 335.16ZM186.266 335.16C188.026 335.16 189.37 335.592 190.298 336.456C191.242 337.32 191.714 338.608 191.714 340.32V348H189.53V346.32C189.146 346.912 188.594 347.368 187.874 347.688C187.17 347.992 186.33 348.144 185.354 348.144C183.93 348.144 182.786 347.8 181.922 347.112C181.074 346.424 180.65 345.52 180.65 344.4C180.65 343.28 181.058 342.384 181.874 341.712C182.69 341.024 183.986 340.68 185.762 340.68H189.41V340.224C189.41 339.232 189.122 338.472 188.546 337.944C187.97 337.416 187.122 337.152 186.002 337.152C185.25 337.152 184.514 337.28 183.794 337.536C183.074 337.776 182.466 338.104 181.97 338.52L181.01 336.792C181.666 336.264 182.45 335.864 183.362 335.592C184.274 335.304 185.242 335.16 186.266 335.16ZM185.738 346.368C186.618 346.368 187.378 346.176 188.018 345.792C188.658 345.392 189.122 344.832 189.41 344.112V342.336H185.858C183.906 342.336 182.93 342.992 182.93 344.304C182.93 344.944 183.178 345.448 183.674 345.816C184.17 346.184 184.858 346.368 185.738 346.368ZM210.616 335.28V346.272C210.616 348.496 210.064 350.136 208.96 351.192C207.856 352.264 206.208 352.8 204.016 352.8C202.816 352.8 201.672 352.632 200.584 352.296C199.496 351.976 198.616 351.512 197.944 350.904L199.048 349.128C199.64 349.64 200.368 350.04 201.232 350.328C202.112 350.632 203.016 350.784 203.944 350.784C205.432 350.784 206.528 350.432 207.232 349.728C207.952 349.024 208.312 347.952 208.312 346.512V345.504C207.768 346.16 207.096 346.656 206.296 346.992C205.512 347.312 204.656 347.472 203.728 347.472C202.512 347.472 201.408 347.216 200.416 346.704C199.44 346.176 198.672 345.448 198.112 344.52C197.552 343.576 197.272 342.504 197.272 341.304C197.272 340.104 197.552 339.04 198.112 338.112C198.672 337.168 199.44 336.44 200.416 335.928C201.408 335.416 202.512 335.16 203.728 335.16C204.688 335.16 205.576 335.336 206.392 335.688C207.224 336.04 207.904 336.56 208.432 337.248V335.28H210.616ZM203.992 345.456C204.824 345.456 205.568 345.28 206.224 344.928C206.896 344.576 207.416 344.088 207.784 343.464C208.168 342.824 208.36 342.104 208.36 341.304C208.36 340.072 207.952 339.08 207.136 338.328C206.32 337.56 205.272 337.176 203.992 337.176C202.696 337.176 201.64 337.56 200.824 338.328C200.008 339.08 199.6 340.072 199.6 341.304C199.6 342.104 199.784 342.824 200.152 343.464C200.536 344.088 201.056 344.576 201.712 344.928C202.384 345.28 203.144 345.456 203.992 345.456ZM228.914 341.712C228.914 341.888 228.898 342.12 228.866 342.408H218.546C218.69 343.528 219.178 344.432 220.01 345.12C220.858 345.792 221.906 346.128 223.154 346.128C224.674 346.128 225.898 345.616 226.826 344.592L228.098 346.08C227.522 346.752 226.802 347.264 225.938 347.616C225.09 347.968 224.138 348.144 223.082 348.144C221.738 348.144 220.546 347.872 219.506 347.328C218.466 346.768 217.658 345.992 217.082 345C216.522 344.008 216.242 342.888 216.242 341.64C216.242 340.408 216.514 339.296 217.058 338.304C217.618 337.312 218.378 336.544 219.338 336C220.314 335.44 221.41 335.16 222.626 335.16C223.842 335.16 224.922 335.44 225.866 336C226.826 336.544 227.57 337.312 228.098 338.304C228.642 339.296 228.914 340.432 228.914 341.712ZM222.626 337.104C221.522 337.104 220.594 337.44 219.842 338.112C219.106 338.784 218.674 339.664 218.546 340.752H226.706C226.578 339.68 226.138 338.808 225.386 338.136C224.65 337.448 223.73 337.104 222.626 337.104ZM235.066 348.144C234.618 348.144 234.234 347.992 233.914 347.688C233.594 347.368 233.434 346.968 233.434 346.488C233.434 346.024 233.594 345.64 233.914 345.336C234.234 345.016 234.618 344.856 235.066 344.856C235.514 344.856 235.89 345.008 236.194 345.312C236.498 345.616 236.65 346.008 236.65 346.488C236.65 346.968 236.49 347.368 236.17 347.688C235.866 347.992 235.498 348.144 235.066 348.144ZM249.095 335.16C250.327 335.16 251.431 335.432 252.407 335.976C253.383 336.52 254.143 337.28 254.687 338.256C255.247 339.232 255.527 340.36 255.527 341.64C255.527 342.92 255.247 344.056 254.687 345.048C254.143 346.024 253.383 346.784 252.407 347.328C251.431 347.872 250.327 348.144 249.095 348.144C248.183 348.144 247.343 347.968 246.575 347.616C245.823 347.264 245.183 346.752 244.655 346.08V352.656H242.351V335.28H244.559V337.296C245.071 336.592 245.719 336.064 246.503 335.712C247.287 335.344 248.151 335.16 249.095 335.16ZM248.903 346.128C249.719 346.128 250.447 345.944 251.087 345.576C251.743 345.192 252.255 344.664 252.623 343.992C253.007 343.304 253.199 342.52 253.199 341.64C253.199 340.76 253.007 339.984 252.623 339.312C252.255 338.624 251.743 338.096 251.087 337.728C250.447 337.36 249.719 337.176 248.903 337.176C248.103 337.176 247.375 337.368 246.719 337.752C246.079 338.12 245.567 338.64 245.183 339.312C244.815 339.984 244.631 340.76 244.631 341.64C244.631 342.52 244.815 343.304 245.183 343.992C245.551 344.664 246.063 345.192 246.719 345.576C247.375 345.944 248.103 346.128 248.903 346.128ZM272.015 335.28L265.847 349.272C265.303 350.568 264.663 351.48 263.927 352.008C263.207 352.536 262.335 352.8 261.311 352.8C260.687 352.8 260.079 352.696 259.487 352.488C258.911 352.296 258.431 352.008 258.047 351.624L259.031 349.896C259.687 350.52 260.447 350.832 261.311 350.832C261.871 350.832 262.335 350.68 262.703 350.376C263.087 350.088 263.431 349.584 263.735 348.864L264.143 347.976L258.527 335.28H260.927L265.367 345.456L269.759 335.28H272.015ZM301.323 335.16C302.923 335.16 304.187 335.624 305.115 336.552C306.059 337.48 306.531 338.856 306.531 340.68V348H304.227V340.944C304.227 339.712 303.939 338.784 303.363 338.16C302.803 337.536 301.995 337.224 300.939 337.224C299.771 337.224 298.843 337.592 298.155 338.328C297.467 339.048 297.123 340.088 297.123 341.448V348H294.819V340.944C294.819 339.712 294.531 338.784 293.955 338.16C293.395 337.536 292.587 337.224 291.531 337.224C290.363 337.224 289.435 337.592 288.747 338.328C288.059 339.048 287.715 340.088 287.715 341.448V348H285.411V335.28H287.619V337.176C288.083 336.52 288.691 336.024 289.443 335.688C290.195 335.336 291.051 335.16 292.011 335.16C293.003 335.16 293.883 335.36 294.651 335.76C295.419 336.16 296.011 336.744 296.427 337.512C296.907 336.776 297.571 336.2 298.419 335.784C299.283 335.368 300.251 335.16 301.323 335.16ZM317.802 335.16C319.562 335.16 320.906 335.592 321.834 336.456C322.778 337.32 323.25 338.608 323.25 340.32V348H321.066V346.32C320.682 346.912 320.13 347.368 319.41 347.688C318.706 347.992 317.866 348.144 316.89 348.144C315.466 348.144 314.322 347.8 313.458 347.112C312.61 346.424 312.186 345.52 312.186 344.4C312.186 343.28 312.594 342.384 313.41 341.712C314.226 341.024 315.522 340.68 317.298 340.68H320.946V340.224C320.946 339.232 320.658 338.472 320.082 337.944C319.506 337.416 318.658 337.152 317.538 337.152C316.786 337.152 316.05 337.28 315.33 337.536C314.61 337.776 314.002 338.104 313.506 338.52L312.546 336.792C313.202 336.264 313.986 335.864 314.898 335.592C315.81 335.304 316.778 335.16 317.802 335.16ZM317.274 346.368C318.154 346.368 318.914 346.176 319.554 345.792C320.194 345.392 320.658 344.832 320.946 344.112V342.336H317.394C315.442 342.336 314.466 342.992 314.466 344.304C314.466 344.944 314.714 345.448 315.21 345.816C315.706 346.184 316.394 346.368 317.274 346.368ZM334.858 342.072L332.218 344.52V348H329.914V330.192H332.218V341.616L339.154 335.28H341.938L336.586 340.536L342.466 348H339.634L334.858 342.072ZM358.06 341.712C358.06 341.888 358.044 342.12 358.012 342.408H347.692C347.836 343.528 348.324 344.432 349.156 345.12C350.004 345.792 351.052 346.128 352.3 346.128C353.82 346.128 355.044 345.616 355.972 344.592L357.244 346.08C356.668 346.752 355.948 347.264 355.084 347.616C354.236 347.968 353.284 348.144 352.228 348.144C350.884 348.144 349.692 347.872 348.652 347.328C347.612 346.768 346.804 345.992 346.228 345C345.668 344.008 345.388 342.888 345.388 341.64C345.388 340.408 345.66 339.296 346.204 338.304C346.764 337.312 347.524 336.544 348.484 336C349.46 335.44 350.556 335.16 351.772 335.16C352.988 335.16 354.068 335.44 355.012 336C355.972 336.544 356.716 337.312 357.244 338.304C357.788 339.296 358.06 340.432 358.06 341.712ZM351.772 337.104C350.668 337.104 349.74 337.44 348.988 338.112C348.252 338.784 347.82 339.664 347.692 340.752H355.852C355.724 339.68 355.284 338.808 354.532 338.136C353.796 337.448 352.876 337.104 351.772 337.104ZM388.416 335.16C390.016 335.16 391.28 335.624 392.208 336.552C393.152 337.48 393.624 338.856 393.624 340.68V348H391.32V340.944C391.32 339.712 391.032 338.784 390.456 338.16C389.896 337.536 389.088 337.224 388.032 337.224C386.864 337.224 385.936 337.592 385.248 338.328C384.56 339.048 384.216 340.088 384.216 341.448V348H381.912V340.944C381.912 339.712 381.624 338.784 381.048 338.16C380.488 337.536 379.68 337.224 378.624 337.224C377.456 337.224 376.528 337.592 375.84 338.328C375.152 339.048 374.808 340.088 374.808 341.448V348H372.504V335.28H374.712V337.176C375.176 336.52 375.784 336.024 376.536 335.688C377.288 335.336 378.144 335.16 379.104 335.16C380.096 335.16 380.976 335.36 381.744 335.76C382.512 336.16 383.104 336.744 383.52 337.512C384 336.776 384.664 336.2 385.512 335.784C386.376 335.368 387.344 335.16 388.416 335.16ZM400.264 335.28H402.568V348H400.264V335.28ZM401.416 332.832C400.968 332.832 400.592 332.688 400.288 332.4C400 332.112 399.856 331.76 399.856 331.344C399.856 330.928 400 330.576 400.288 330.288C400.592 329.984 400.968 329.832 401.416 329.832C401.864 329.832 402.232 329.976 402.52 330.264C402.824 330.536 402.976 330.88 402.976 331.296C402.976 331.728 402.824 332.096 402.52 332.4C402.232 332.688 401.864 332.832 401.416 332.832ZM421.535 335.28V346.272C421.535 348.496 420.983 350.136 419.879 351.192C418.775 352.264 417.127 352.8 414.935 352.8C413.735 352.8 412.591 352.632 411.503 352.296C410.415 351.976 409.535 351.512 408.863 350.904L409.967 349.128C410.559 349.64 411.287 350.04 412.151 350.328C413.031 350.632 413.935 350.784 414.863 350.784C416.351 350.784 417.447 350.432 418.151 349.728C418.871 349.024 419.231 347.952 419.231 346.512V345.504C418.687 346.16 418.015 346.656 417.215 346.992C416.431 347.312 415.575 347.472 414.647 347.472C413.431 347.472 412.327 347.216 411.335 346.704C410.359 346.176 409.591 345.448 409.031 344.52C408.471 343.576 408.191 342.504 408.191 341.304C408.191 340.104 408.471 339.04 409.031 338.112C409.591 337.168 410.359 336.44 411.335 335.928C412.327 335.416 413.431 335.16 414.647 335.16C415.607 335.16 416.495 335.336 417.311 335.688C418.143 336.04 418.823 336.56 419.351 337.248V335.28H421.535ZM414.911 345.456C415.743 345.456 416.487 345.28 417.143 344.928C417.815 344.576 418.335 344.088 418.703 343.464C419.087 342.824 419.279 342.104 419.279 341.304C419.279 340.072 418.871 339.08 418.055 338.328C417.239 337.56 416.191 337.176 414.911 337.176C413.615 337.176 412.559 337.56 411.743 338.328C410.927 339.08 410.519 340.072 410.519 341.304C410.519 342.104 410.703 342.824 411.071 343.464C411.455 344.088 411.975 344.576 412.631 344.928C413.303 345.28 414.063 345.456 414.911 345.456ZM430.545 337.416C430.945 336.68 431.537 336.12 432.321 335.736C433.105 335.352 434.057 335.16 435.177 335.16V337.392C435.049 337.376 434.873 337.368 434.649 337.368C433.401 337.368 432.417 337.744 431.697 338.496C430.993 339.232 430.641 340.288 430.641 341.664V348H428.337V335.28H430.545V337.416ZM445.025 335.16C446.785 335.16 448.129 335.592 449.057 336.456C450.001 337.32 450.473 338.608 450.473 340.32V348H448.289V346.32C447.905 346.912 447.353 347.368 446.633 347.688C445.929 347.992 445.089 348.144 444.113 348.144C442.689 348.144 441.545 347.8 440.681 347.112C439.833 346.424 439.409 345.52 439.409 344.4C439.409 343.28 439.817 342.384 440.633 341.712C441.449 341.024 442.745 340.68 444.521 340.68H448.169V340.224C448.169 339.232 447.881 338.472 447.305 337.944C446.729 337.416 445.881 337.152 444.761 337.152C444.009 337.152 443.273 337.28 442.553 337.536C441.833 337.776 441.225 338.104 440.729 338.52L439.769 336.792C440.425 336.264 441.209 335.864 442.121 335.592C443.033 335.304 444.001 335.16 445.025 335.16ZM444.497 346.368C445.377 346.368 446.137 346.176 446.777 345.792C447.417 345.392 447.881 344.832 448.169 344.112V342.336H444.617C442.665 342.336 441.689 342.992 441.689 344.304C441.689 344.944 441.937 345.448 442.433 345.816C442.929 346.184 443.617 346.368 444.497 346.368ZM464.289 347.256C463.953 347.544 463.537 347.768 463.041 347.928C462.545 348.072 462.033 348.144 461.505 348.144C460.225 348.144 459.233 347.8 458.529 347.112C457.825 346.424 457.473 345.44 457.473 344.16V337.176H455.313V335.28H457.473V332.496H459.777V335.28H463.425V337.176H459.777V344.064C459.777 344.752 459.945 345.28 460.281 345.648C460.633 346.016 461.129 346.2 461.769 346.2C462.473 346.2 463.073 346 463.569 345.6L464.289 347.256ZM469.475 335.28H471.779V348H469.475V335.28ZM470.627 332.832C470.179 332.832 469.803 332.688 469.499 332.4C469.211 332.112 469.067 331.76 469.067 331.344C469.067 330.928 469.211 330.576 469.499 330.288C469.803 329.984 470.179 329.832 470.627 329.832C471.075 329.832 471.443 329.976 471.731 330.264C472.035 330.536 472.187 330.88 472.187 331.296C472.187 331.728 472.035 332.096 471.731 332.4C471.443 332.688 471.075 332.832 470.627 332.832ZM484.026 348.144C482.762 348.144 481.626 347.864 480.618 347.304C479.61 346.744 478.818 345.976 478.242 345C477.682 344.008 477.402 342.888 477.402 341.64C477.402 340.392 477.682 339.28 478.242 338.304C478.818 337.312 479.61 336.544 480.618 336C481.626 335.44 482.762 335.16 484.026 335.16C485.29 335.16 486.418 335.44 487.41 336C488.418 336.544 489.202 337.312 489.762 338.304C490.338 339.28 490.626 340.392 490.626 341.64C490.626 342.888 490.338 344.008 489.762 345C489.202 345.976 488.418 346.744 487.41 347.304C486.418 347.864 485.29 348.144 484.026 348.144ZM484.026 346.128C484.842 346.128 485.57 345.944 486.21 345.576C486.866 345.192 487.378 344.664 487.746 343.992C488.114 343.304 488.298 342.52 488.298 341.64C488.298 340.76 488.114 339.984 487.746 339.312C487.378 338.624 486.866 338.096 486.21 337.728C485.57 337.36 484.842 337.176 484.026 337.176C483.21 337.176 482.474 337.36 481.818 337.728C481.178 338.096 480.666 338.624 480.282 339.312C479.914 339.984 479.73 340.76 479.73 341.64C479.73 342.52 479.914 343.304 480.282 343.992C480.666 344.664 481.178 345.192 481.818 345.576C482.474 345.944 483.21 346.128 484.026 346.128ZM503.004 335.16C504.62 335.16 505.9 335.632 506.844 336.576C507.804 337.504 508.284 338.872 508.284 340.68V348H505.98V340.944C505.98 339.712 505.684 338.784 505.092 338.16C504.5 337.536 503.652 337.224 502.548 337.224C501.3 337.224 500.316 337.592 499.596 338.328C498.876 339.048 498.516 340.088 498.516 341.448V348H496.212V335.28H498.42V337.2C498.884 336.544 499.508 336.04 500.292 335.688C501.092 335.336 501.996 335.16 503.004 335.16ZM518.596 348.144C517.556 348.144 516.556 348.008 515.596 347.736C514.636 347.448 513.884 347.088 513.34 346.656L514.3 344.832C514.86 345.232 515.54 345.552 516.34 345.792C517.14 346.032 517.948 346.152 518.764 346.152C520.78 346.152 521.788 345.576 521.788 344.424C521.788 344.04 521.652 343.736 521.38 343.512C521.108 343.288 520.764 343.128 520.348 343.032C519.948 342.92 519.372 342.8 518.62 342.672C517.596 342.512 516.756 342.328 516.1 342.12C515.46 341.912 514.908 341.56 514.444 341.064C513.98 340.568 513.748 339.872 513.748 338.976C513.748 337.824 514.228 336.904 515.188 336.216C516.148 335.512 517.436 335.16 519.052 335.16C519.9 335.16 520.748 335.264 521.596 335.472C522.444 335.68 523.14 335.96 523.684 336.312L522.7 338.136C521.66 337.464 520.436 337.128 519.028 337.128C518.052 337.128 517.308 337.288 516.796 337.608C516.284 337.928 516.028 338.352 516.028 338.88C516.028 339.296 516.172 339.624 516.46 339.864C516.748 340.104 517.1 340.28 517.516 340.392C517.948 340.504 518.548 340.632 519.316 340.776C520.34 340.952 521.164 341.144 521.788 341.352C522.428 341.544 522.972 341.88 523.42 342.36C523.868 342.84 524.092 343.512 524.092 344.376C524.092 345.528 523.596 346.448 522.604 347.136C521.628 347.808 520.292 348.144 518.596 348.144Z" fill="#00FF0A"/>
<path d="M60.92 379.416C60.92 380.68 60.44 381.752 59.48 382.632C58.536 383.512 57.16 384.024 55.352 384.168V386.88H53.816V384.168C52.648 384.104 51.536 383.888 50.48 383.52C49.44 383.136 48.608 382.656 47.984 382.08L48.872 380.208C49.448 380.736 50.176 381.176 51.056 381.528C51.936 381.864 52.856 382.064 53.816 382.128V376.56C52.696 376.288 51.76 375.992 51.008 375.672C50.272 375.352 49.648 374.88 49.136 374.256C48.64 373.632 48.392 372.816 48.392 371.808C48.392 370.544 48.848 369.472 49.76 368.592C50.688 367.712 52.04 367.2 53.816 367.056V364.32H55.352V367.032C56.264 367.064 57.144 367.208 57.992 367.464C58.856 367.72 59.6 368.064 60.224 368.496L59.432 370.416C58.136 369.6 56.776 369.152 55.352 369.072V374.664C56.52 374.952 57.48 375.256 58.232 375.576C58.984 375.88 59.616 376.344 60.128 376.968C60.656 377.576 60.92 378.392 60.92 379.416ZM50.744 371.712C50.744 372.4 51.008 372.936 51.536 373.32C52.064 373.704 52.824 374.024 53.816 374.28V369.096C52.792 369.224 52.024 369.528 51.512 370.008C51 370.472 50.744 371.04 50.744 371.712ZM55.352 382.104C56.424 382.008 57.224 381.736 57.752 381.288C58.296 380.824 58.568 380.248 58.568 379.56C58.568 378.856 58.288 378.32 57.728 377.952C57.184 377.568 56.392 377.232 55.352 376.944V382.104ZM87.5036 371.28V382.272C87.5036 384.496 86.9516 386.136 85.8476 387.192C84.7436 388.264 83.0956 388.8 80.9036 388.8C79.7036 388.8 78.5596 388.632 77.4716 388.296C76.3836 387.976 75.5036 387.512 74.8316 386.904L75.9356 385.128C76.5276 385.64 77.2556 386.04 78.1196 386.328C78.9996 386.632 79.9036 386.784 80.8316 386.784C82.3196 386.784 83.4156 386.432 84.1196 385.728C84.8396 385.024 85.1996 383.952 85.1996 382.512V381.504C84.6556 382.16 83.9836 382.656 83.1836 382.992C82.3996 383.312 81.5436 383.472 80.6156 383.472C79.3996 383.472 78.2956 383.216 77.3036 382.704C76.3276 382.176 75.5596 381.448 74.9996 380.52C74.4396 379.576 74.1596 378.504 74.1596 377.304C74.1596 376.104 74.4396 375.04 74.9996 374.112C75.5596 373.168 76.3276 372.44 77.3036 371.928C78.2956 371.416 79.3996 371.16 80.6156 371.16C81.5756 371.16 82.4636 371.336 83.2796 371.688C84.1116 372.04 84.7916 372.56 85.3196 373.248V371.28H87.5036ZM80.8796 381.456C81.7116 381.456 82.4556 381.28 83.1116 380.928C83.7836 380.576 84.3036 380.088 84.6716 379.464C85.0556 378.824 85.2476 378.104 85.2476 377.304C85.2476 376.072 84.8396 375.08 84.0236 374.328C83.2076 373.56 82.1596 373.176 80.8796 373.176C79.5836 373.176 78.5276 373.56 77.7116 374.328C76.8956 375.08 76.4876 376.072 76.4876 377.304C76.4876 378.104 76.6716 378.824 77.0396 379.464C77.4236 380.088 77.9436 380.576 78.5996 380.928C79.2716 381.28 80.0316 381.456 80.8796 381.456ZM94.3059 371.28H96.6099V384H94.3059V371.28ZM95.4579 368.832C95.0099 368.832 94.6339 368.688 94.3299 368.4C94.0419 368.112 93.8979 367.76 93.8979 367.344C93.8979 366.928 94.0419 366.576 94.3299 366.288C94.6339 365.984 95.0099 365.832 95.4579 365.832C95.9059 365.832 96.2739 365.976 96.5619 366.264C96.8659 366.536 97.0179 366.88 97.0179 367.296C97.0179 367.728 96.8659 368.096 96.5619 368.4C96.2739 368.688 95.9059 368.832 95.4579 368.832ZM110.561 383.256C110.225 383.544 109.809 383.768 109.313 383.928C108.817 384.072 108.305 384.144 107.777 384.144C106.497 384.144 105.505 383.8 104.801 383.112C104.097 382.424 103.745 381.44 103.745 380.16V373.176H101.585V371.28H103.745V368.496H106.049V371.28H109.697V373.176H106.049V380.064C106.049 380.752 106.217 381.28 106.553 381.648C106.905 382.016 107.401 382.2 108.041 382.2C108.745 382.2 109.345 382 109.841 381.6L110.561 383.256ZM130.136 384.144C128.84 384.144 127.68 383.864 126.656 383.304C125.648 382.744 124.856 381.976 124.28 381C123.704 380.008 123.416 378.888 123.416 377.64C123.416 376.392 123.704 375.28 124.28 374.304C124.856 373.312 125.648 372.544 126.656 372C127.68 371.44 128.84 371.16 130.136 371.16C131.288 371.16 132.312 371.392 133.208 371.856C134.12 372.32 134.824 372.992 135.32 373.872L133.568 375C133.168 374.392 132.672 373.936 132.08 373.632C131.488 373.328 130.832 373.176 130.112 373.176C129.28 373.176 128.528 373.36 127.856 373.728C127.2 374.096 126.68 374.624 126.296 375.312C125.928 375.984 125.744 376.76 125.744 377.64C125.744 378.536 125.928 379.328 126.296 380.016C126.68 380.688 127.2 381.208 127.856 381.576C128.528 381.944 129.28 382.128 130.112 382.128C130.832 382.128 131.488 381.976 132.08 381.672C132.672 381.368 133.168 380.912 133.568 380.304L135.32 381.408C134.824 382.288 134.12 382.968 133.208 383.448C132.312 383.912 131.288 384.144 130.136 384.144ZM145.963 384.144C144.699 384.144 143.563 383.864 142.555 383.304C141.547 382.744 140.755 381.976 140.179 381C139.619 380.008 139.339 378.888 139.339 377.64C139.339 376.392 139.619 375.28 140.179 374.304C140.755 373.312 141.547 372.544 142.555 372C143.563 371.44 144.699 371.16 145.963 371.16C147.227 371.16 148.355 371.44 149.347 372C150.355 372.544 151.139 373.312 151.699 374.304C152.275 375.28 152.563 376.392 152.563 377.64C152.563 378.888 152.275 380.008 151.699 381C151.139 381.976 150.355 382.744 149.347 383.304C148.355 383.864 147.227 384.144 145.963 384.144ZM145.963 382.128C146.779 382.128 147.507 381.944 148.147 381.576C148.803 381.192 149.315 380.664 149.683 379.992C150.051 379.304 150.235 378.52 150.235 377.64C150.235 376.76 150.051 375.984 149.683 375.312C149.315 374.624 148.803 374.096 148.147 373.728C147.507 373.36 146.779 373.176 145.963 373.176C145.147 373.176 144.411 373.36 143.755 373.728C143.115 374.096 142.603 374.624 142.219 375.312C141.851 375.984 141.667 376.76 141.667 377.64C141.667 378.52 141.851 379.304 142.219 379.992C142.603 380.664 143.115 381.192 143.755 381.576C144.411 381.944 145.147 382.128 145.963 382.128ZM174.062 371.16C175.662 371.16 176.926 371.624 177.854 372.552C178.798 373.48 179.27 374.856 179.27 376.68V384H176.966V376.944C176.966 375.712 176.678 374.784 176.102 374.16C175.542 373.536 174.734 373.224 173.678 373.224C172.51 373.224 171.582 373.592 170.894 374.328C170.206 375.048 169.862 376.088 169.862 377.448V384H167.558V376.944C167.558 375.712 167.27 374.784 166.694 374.16C166.134 373.536 165.326 373.224 164.27 373.224C163.102 373.224 162.174 373.592 161.486 374.328C160.798 375.048 160.454 376.088 160.454 377.448V384H158.15V371.28H160.358V373.176C160.822 372.52 161.43 372.024 162.182 371.688C162.934 371.336 163.79 371.16 164.75 371.16C165.742 371.16 166.622 371.36 167.39 371.76C168.158 372.16 168.75 372.744 169.166 373.512C169.646 372.776 170.31 372.2 171.158 371.784C172.022 371.368 172.99 371.16 174.062 371.16ZM201.821 371.16C203.421 371.16 204.685 371.624 205.613 372.552C206.557 373.48 207.029 374.856 207.029 376.68V384H204.725V376.944C204.725 375.712 204.437 374.784 203.861 374.16C203.301 373.536 202.493 373.224 201.437 373.224C200.269 373.224 199.341 373.592 198.653 374.328C197.965 375.048 197.621 376.088 197.621 377.448V384H195.317V376.944C195.317 375.712 195.029 374.784 194.453 374.16C193.893 373.536 193.085 373.224 192.029 373.224C190.861 373.224 189.933 373.592 189.245 374.328C188.557 375.048 188.213 376.088 188.213 377.448V384H185.909V371.28H188.117V373.176C188.581 372.52 189.189 372.024 189.941 371.688C190.693 371.336 191.549 371.16 192.509 371.16C193.501 371.16 194.381 371.36 195.149 371.76C195.917 372.16 196.509 372.744 196.925 373.512C197.405 372.776 198.069 372.2 198.917 371.784C199.781 371.368 200.749 371.16 201.821 371.16ZM213.668 371.28H215.972V384H213.668V371.28ZM214.82 368.832C214.372 368.832 213.996 368.688 213.692 368.4C213.404 368.112 213.26 367.76 213.26 367.344C213.26 366.928 213.404 366.576 213.692 366.288C213.996 365.984 214.372 365.832 214.82 365.832C215.268 365.832 215.636 365.976 215.924 366.264C216.228 366.536 216.38 366.88 216.38 367.296C216.38 367.728 216.228 368.096 215.924 368.4C215.636 368.688 215.268 368.832 214.82 368.832ZM229.923 383.256C229.587 383.544 229.171 383.768 228.675 383.928C228.179 384.072 227.667 384.144 227.139 384.144C225.859 384.144 224.867 383.8 224.163 383.112C223.459 382.424 223.107 381.44 223.107 380.16V373.176H220.947V371.28H223.107V368.496H225.411V371.28H229.059V373.176H225.411V380.064C225.411 380.752 225.579 381.28 225.915 381.648C226.267 382.016 226.763 382.2 227.403 382.2C228.107 382.2 228.707 382 229.203 381.6L229.923 383.256ZM243.138 376.416H249.594V378.408H243.138V376.416ZM271.454 371.16C273.054 371.16 274.318 371.624 275.246 372.552C276.19 373.48 276.662 374.856 276.662 376.68V384H274.358V376.944C274.358 375.712 274.07 374.784 273.494 374.16C272.934 373.536 272.126 373.224 271.07 373.224C269.902 373.224 268.974 373.592 268.286 374.328C267.598 375.048 267.254 376.088 267.254 377.448V384H264.95V376.944C264.95 375.712 264.662 374.784 264.086 374.16C263.526 373.536 262.718 373.224 261.662 373.224C260.494 373.224 259.566 373.592 258.878 374.328C258.19 375.048 257.846 376.088 257.846 377.448V384H255.542V371.28H257.75V373.176C258.214 372.52 258.822 372.024 259.574 371.688C260.326 371.336 261.182 371.16 262.142 371.16C263.134 371.16 264.014 371.36 264.782 371.76C265.55 372.16 266.142 372.744 266.558 373.512C267.038 372.776 267.702 372.2 268.55 371.784C269.414 371.368 270.382 371.16 271.454 371.16ZM293.25 369.768C293.57 369.88 293.818 370.064 293.994 370.32C294.17 370.576 294.258 370.888 294.258 371.256C294.258 371.736 294.106 372.128 293.802 372.432C293.498 372.736 293.122 372.888 292.674 372.888C292.21 372.888 291.826 372.736 291.522 372.432C291.218 372.112 291.066 371.72 291.066 371.256C291.066 371.032 291.09 370.808 291.138 370.584C291.202 370.344 291.322 370 291.498 369.552L292.626 366.192H294.138L293.25 369.768ZM297.786 369.768C298.106 369.88 298.354 370.064 298.53 370.32C298.706 370.576 298.794 370.888 298.794 371.256C298.794 371.736 298.642 372.128 298.338 372.432C298.034 372.736 297.658 372.888 297.21 372.888C296.746 372.888 296.362 372.736 296.058 372.432C295.754 372.112 295.602 371.72 295.602 371.256C295.602 371.032 295.626 370.808 295.674 370.584C295.738 370.344 295.858 370 296.034 369.552L297.162 366.192H298.674L297.786 369.768ZM316.099 384L312.475 378.84C312.027 378.872 311.675 378.888 311.419 378.888H307.267V384H304.867V367.2H311.419C313.595 367.2 315.307 367.72 316.555 368.76C317.803 369.8 318.427 371.232 318.427 373.056C318.427 374.352 318.107 375.456 317.467 376.368C316.827 377.28 315.915 377.944 314.731 378.36L318.715 384H316.099ZM311.347 376.848C312.867 376.848 314.027 376.52 314.827 375.864C315.627 375.208 316.027 374.272 316.027 373.056C316.027 371.84 315.627 370.912 314.827 370.272C314.027 369.616 312.867 369.288 311.347 369.288H307.267V376.848H311.347ZM335.864 377.712C335.864 377.888 335.848 378.12 335.816 378.408H325.496C325.64 379.528 326.128 380.432 326.96 381.12C327.808 381.792 328.856 382.128 330.104 382.128C331.624 382.128 332.848 381.616 333.776 380.592L335.048 382.08C334.472 382.752 333.752 383.264 332.888 383.616C332.04 383.968 331.088 384.144 330.032 384.144C328.688 384.144 327.496 383.872 326.456 383.328C325.416 382.768 324.608 381.992 324.032 381C323.472 380.008 323.192 378.888 323.192 377.64C323.192 376.408 323.464 375.296 324.008 374.304C324.568 373.312 325.328 372.544 326.288 372C327.264 371.44 328.36 371.16 329.576 371.16C330.792 371.16 331.872 371.44 332.816 372C333.776 372.544 334.52 373.312 335.048 374.304C335.592 375.296 335.864 376.432 335.864 377.712ZM329.576 373.104C328.472 373.104 327.544 373.44 326.792 374.112C326.056 374.784 325.624 375.664 325.496 376.752H333.656C333.528 375.68 333.088 374.808 332.336 374.136C331.6 373.448 330.68 373.104 329.576 373.104ZM345.744 371.16C347.504 371.16 348.848 371.592 349.776 372.456C350.72 373.32 351.192 374.608 351.192 376.32V384H349.008V382.32C348.624 382.912 348.072 383.368 347.352 383.688C346.648 383.992 345.808 384.144 344.832 384.144C343.408 384.144 342.264 383.8 341.4 383.112C340.552 382.424 340.128 381.52 340.128 380.4C340.128 379.28 340.536 378.384 341.352 377.712C342.168 377.024 343.464 376.68 345.24 376.68H348.888V376.224C348.888 375.232 348.6 374.472 348.024 373.944C347.448 373.416 346.6 373.152 345.48 373.152C344.728 373.152 343.992 373.28 343.272 373.536C342.552 373.776 341.944 374.104 341.448 374.52L340.488 372.792C341.144 372.264 341.928 371.864 342.84 371.592C343.752 371.304 344.72 371.16 345.744 371.16ZM345.216 382.368C346.096 382.368 346.856 382.176 347.496 381.792C348.136 381.392 348.6 380.832 348.888 380.112V378.336H345.336C343.384 378.336 342.408 378.992 342.408 380.304C342.408 380.944 342.656 381.448 343.152 381.816C343.648 382.184 344.336 382.368 345.216 382.368ZM369.926 366.192V384H367.718V381.984C367.206 382.688 366.558 383.224 365.774 383.592C364.99 383.96 364.126 384.144 363.182 384.144C361.95 384.144 360.846 383.872 359.87 383.328C358.894 382.784 358.126 382.024 357.566 381.048C357.022 380.056 356.75 378.92 356.75 377.64C356.75 376.36 357.022 375.232 357.566 374.256C358.126 373.28 358.894 372.52 359.87 371.976C360.846 371.432 361.95 371.16 363.182 371.16C364.094 371.16 364.934 371.336 365.702 371.688C366.47 372.024 367.11 372.528 367.622 373.2V366.192H369.926ZM363.374 382.128C364.174 382.128 364.902 381.944 365.558 381.576C366.214 381.192 366.726 380.664 367.094 379.992C367.462 379.304 367.646 378.52 367.646 377.64C367.646 376.76 367.462 375.984 367.094 375.312C366.726 374.624 366.214 374.096 365.558 373.728C364.902 373.36 364.174 373.176 363.374 373.176C362.558 373.176 361.822 373.36 361.166 373.728C360.526 374.096 360.014 374.624 359.63 375.312C359.262 375.984 359.078 376.76 359.078 377.64C359.078 378.52 359.262 379.304 359.63 379.992C360.014 380.664 360.526 381.192 361.166 381.576C361.822 381.944 362.558 382.128 363.374 382.128ZM387.942 371.28L381.774 385.272C381.23 386.568 380.59 387.48 379.854 388.008C379.134 388.536 378.262 388.8 377.238 388.8C376.614 388.8 376.006 388.696 375.414 388.488C374.838 388.296 374.358 388.008 373.974 387.624L374.958 385.896C375.614 386.52 376.374 386.832 377.238 386.832C377.798 386.832 378.262 386.68 378.63 386.376C379.014 386.088 379.358 385.584 379.662 384.864L380.07 383.976L374.454 371.28H376.854L381.294 381.456L385.686 371.28H387.942ZM408.489 383.256C408.153 383.544 407.737 383.768 407.241 383.928C406.745 384.072 406.233 384.144 405.705 384.144C404.425 384.144 403.433 383.8 402.729 383.112C402.025 382.424 401.673 381.44 401.673 380.16V373.176H399.513V371.28H401.673V368.496H403.977V371.28H407.625V373.176H403.977V380.064C403.977 380.752 404.145 381.28 404.481 381.648C404.833 382.016 405.329 382.2 405.969 382.2C406.673 382.2 407.273 382 407.769 381.6L408.489 383.256ZM418.701 384.144C417.437 384.144 416.301 383.864 415.293 383.304C414.285 382.744 413.493 381.976 412.917 381C412.357 380.008 412.077 378.888 412.077 377.64C412.077 376.392 412.357 375.28 412.917 374.304C413.493 373.312 414.285 372.544 415.293 372C416.301 371.44 417.437 371.16 418.701 371.16C419.965 371.16 421.093 371.44 422.085 372C423.093 372.544 423.877 373.312 424.437 374.304C425.013 375.28 425.301 376.392 425.301 377.64C425.301 378.888 425.013 380.008 424.437 381C423.877 381.976 423.093 382.744 422.085 383.304C421.093 383.864 419.965 384.144 418.701 384.144ZM418.701 382.128C419.517 382.128 420.245 381.944 420.885 381.576C421.541 381.192 422.053 380.664 422.421 379.992C422.789 379.304 422.973 378.52 422.973 377.64C422.973 376.76 422.789 375.984 422.421 375.312C422.053 374.624 421.541 374.096 420.885 373.728C420.245 373.36 419.517 373.176 418.701 373.176C417.885 373.176 417.149 373.36 416.493 373.728C415.853 374.096 415.341 374.624 414.957 375.312C414.589 375.984 414.405 376.76 414.405 377.64C414.405 378.52 414.589 379.304 414.957 379.992C415.341 380.664 415.853 381.192 416.493 381.576C417.149 381.944 417.885 382.128 418.701 382.128ZM440.068 367.2H447.148C448.924 367.2 450.5 367.552 451.876 368.256C453.252 368.96 454.316 369.952 455.068 371.232C455.836 372.496 456.22 373.952 456.22 375.6C456.22 377.248 455.836 378.712 455.068 379.992C454.316 381.256 453.252 382.24 451.876 382.944C450.5 383.648 448.924 384 447.148 384H440.068V367.2ZM447.004 381.912C448.364 381.912 449.556 381.648 450.58 381.12C451.62 380.592 452.42 379.856 452.98 378.912C453.54 377.952 453.82 376.848 453.82 375.6C453.82 374.352 453.54 373.256 452.98 372.312C452.42 371.352 451.62 370.608 450.58 370.08C449.556 369.552 448.364 369.288 447.004 369.288H442.468V381.912H447.004ZM473.457 377.712C473.457 377.888 473.441 378.12 473.409 378.408H463.089C463.233 379.528 463.721 380.432 464.553 381.12C465.401 381.792 466.449 382.128 467.697 382.128C469.217 382.128 470.441 381.616 471.369 380.592L472.641 382.08C472.065 382.752 471.345 383.264 470.481 383.616C469.633 383.968 468.681 384.144 467.625 384.144C466.281 384.144 465.089 383.872 464.049 383.328C463.009 382.768 462.201 381.992 461.625 381C461.065 380.008 460.785 378.888 460.785 377.64C460.785 376.408 461.057 375.296 461.601 374.304C462.161 373.312 462.921 372.544 463.881 372C464.857 371.44 465.953 371.16 467.169 371.16C468.385 371.16 469.465 371.44 470.409 372C471.369 372.544 472.113 373.312 472.641 374.304C473.185 375.296 473.457 376.432 473.457 377.712ZM467.169 373.104C466.065 373.104 465.137 373.44 464.385 374.112C463.649 374.784 463.217 375.664 463.089 376.752H471.249C471.121 375.68 470.681 374.808 469.929 374.136C469.193 373.448 468.273 373.104 467.169 373.104ZM485.8 371.16C487.032 371.16 488.136 371.432 489.112 371.976C490.088 372.52 490.848 373.28 491.392 374.256C491.952 375.232 492.232 376.36 492.232 377.64C492.232 378.92 491.952 380.056 491.392 381.048C490.848 382.024 490.088 382.784 489.112 383.328C488.136 383.872 487.032 384.144 485.8 384.144C484.888 384.144 484.048 383.968 483.28 383.616C482.528 383.264 481.888 382.752 481.36 382.08V388.656H479.056V371.28H481.264V373.296C481.776 372.592 482.424 372.064 483.208 371.712C483.992 371.344 484.856 371.16 485.8 371.16ZM485.608 382.128C486.424 382.128 487.152 381.944 487.792 381.576C488.448 381.192 488.96 380.664 489.328 379.992C489.712 379.304 489.904 378.52 489.904 377.64C489.904 376.76 489.712 375.984 489.328 375.312C488.96 374.624 488.448 374.096 487.792 373.728C487.152 373.36 486.424 373.176 485.608 373.176C484.808 373.176 484.08 373.368 483.424 373.752C482.784 374.12 482.272 374.64 481.888 375.312C481.52 375.984 481.336 376.76 481.336 377.64C481.336 378.52 481.52 379.304 481.888 379.992C482.256 380.664 482.768 381.192 483.424 381.576C484.08 381.944 484.808 382.128 485.608 382.128ZM497.815 366.192H500.119V384H497.815V366.192ZM512.366 384.144C511.102 384.144 509.966 383.864 508.958 383.304C507.95 382.744 507.158 381.976 506.582 381C506.022 380.008 505.742 378.888 505.742 377.64C505.742 376.392 506.022 375.28 506.582 374.304C507.158 373.312 507.95 372.544 508.958 372C509.966 371.44 511.102 371.16 512.366 371.16C513.63 371.16 514.758 371.44 515.75 372C516.758 372.544 517.542 373.312 518.102 374.304C518.678 375.28 518.966 376.392 518.966 377.64C518.966 378.888 518.678 380.008 518.102 381C517.542 381.976 516.758 382.744 515.75 383.304C514.758 383.864 513.63 384.144 512.366 384.144ZM512.366 382.128C513.182 382.128 513.91 381.944 514.55 381.576C515.206 381.192 515.718 380.664 516.086 379.992C516.454 379.304 516.638 378.52 516.638 377.64C516.638 376.76 516.454 375.984 516.086 375.312C515.718 374.624 515.206 374.096 514.55 373.728C513.91 373.36 513.182 373.176 512.366 373.176C511.55 373.176 510.814 373.36 510.158 373.728C509.518 374.096 509.006 374.624 508.622 375.312C508.254 375.984 508.07 376.76 508.07 377.64C508.07 378.52 508.254 379.304 508.622 379.992C509.006 380.664 509.518 381.192 510.158 381.576C510.814 381.944 511.55 382.128 512.366 382.128ZM535.457 371.28L529.289 385.272C528.745 386.568 528.105 387.48 527.369 388.008C526.649 388.536 525.777 388.8 524.753 388.8C524.129 388.8 523.521 388.696 522.929 388.488C522.353 388.296 521.873 388.008 521.489 387.624L522.473 385.896C523.129 386.52 523.889 386.832 524.753 386.832C525.313 386.832 525.777 386.68 526.145 386.376C526.529 386.088 526.873 385.584 527.177 384.864L527.585 383.976L521.969 371.28H524.369L528.809 381.456L533.201 371.28H535.457ZM539.695 367.2H542.407L541.951 378.696H540.127L539.695 367.2ZM541.063 384.144C540.615 384.144 540.239 384 539.935 383.712C539.631 383.408 539.479 383.04 539.479 382.608C539.479 382.176 539.631 381.816 539.935 381.528C540.239 381.224 540.615 381.072 541.063 381.072C541.511 381.072 541.879 381.224 542.167 381.528C542.455 381.816 542.599 382.176 542.599 382.608C542.599 383.04 542.447 383.408 542.143 383.712C541.855 384 541.495 384.144 541.063 384.144ZM549.476 366.048C549.924 366.048 550.292 366.208 550.58 366.528C550.884 366.832 551.036 367.216 551.036 367.68C551.036 367.92 551.012 368.16 550.964 368.4C550.916 368.624 550.812 368.952 550.652 369.384L549.5 372.744H547.988L548.876 369.168C548.572 369.056 548.324 368.872 548.132 368.616C547.956 368.344 547.868 368.032 547.868 367.68C547.868 367.2 548.02 366.808 548.324 366.504C548.628 366.2 549.012 366.048 549.476 366.048ZM554.012 366.048C554.46 366.048 554.828 366.208 555.116 366.528C555.42 366.832 555.572 367.216 555.572 367.68C555.572 367.92 555.548 368.16 555.5 368.4C555.452 368.624 555.348 368.952 555.188 369.384L554.036 372.744H552.524L553.412 369.168C553.108 369.056 552.86 368.872 552.668 368.616C552.492 368.344 552.404 368.032 552.404 367.68C552.404 367.2 552.556 366.808 552.86 366.504C553.164 366.2 553.548 366.048 554.012 366.048Z" fill="#00FF0A"/>
<path d="M60.92 415.416C60.92 416.68 60.44 417.752 59.48 418.632C58.536 419.512 57.16 420.024 55.352 420.168V422.88H53.816V420.168C52.648 420.104 51.536 419.888 50.48 419.52C49.44 419.136 48.608 418.656 47.984 418.08L48.872 416.208C49.448 416.736 50.176 417.176 51.056 417.528C51.936 417.864 52.856 418.064 53.816 418.128V412.56C52.696 412.288 51.76 411.992 51.008 411.672C50.272 411.352 49.648 410.88 49.136 410.256C48.64 409.632 48.392 408.816 48.392 407.808C48.392 406.544 48.848 405.472 49.76 404.592C50.688 403.712 52.04 403.2 53.816 403.056V400.32H55.352V403.032C56.264 403.064 57.144 403.208 57.992 403.464C58.856 403.72 59.6 404.064 60.224 404.496L59.432 406.416C58.136 405.6 56.776 405.152 55.352 405.072V410.664C56.52 410.952 57.48 411.256 58.232 411.576C58.984 411.88 59.616 412.344 60.128 412.968C60.656 413.576 60.92 414.392 60.92 415.416ZM50.744 407.712C50.744 408.4 51.008 408.936 51.536 409.32C52.064 409.704 52.824 410.024 53.816 410.28V405.096C52.792 405.224 52.024 405.528 51.512 406.008C51 406.472 50.744 407.04 50.744 407.712ZM55.352 418.104C56.424 418.008 57.224 417.736 57.752 417.288C58.296 416.824 58.568 416.248 58.568 415.56C58.568 414.856 58.288 414.32 57.728 413.952C57.184 413.568 56.392 413.232 55.352 412.944V418.104ZM87.5036 407.28V418.272C87.5036 420.496 86.9516 422.136 85.8476 423.192C84.7436 424.264 83.0956 424.8 80.9036 424.8C79.7036 424.8 78.5596 424.632 77.4716 424.296C76.3836 423.976 75.5036 423.512 74.8316 422.904L75.9356 421.128C76.5276 421.64 77.2556 422.04 78.1196 422.328C78.9996 422.632 79.9036 422.784 80.8316 422.784C82.3196 422.784 83.4156 422.432 84.1196 421.728C84.8396 421.024 85.1996 419.952 85.1996 418.512V417.504C84.6556 418.16 83.9836 418.656 83.1836 418.992C82.3996 419.312 81.5436 419.472 80.6156 419.472C79.3996 419.472 78.2956 419.216 77.3036 418.704C76.3276 418.176 75.5596 417.448 74.9996 416.52C74.4396 415.576 74.1596 414.504 74.1596 413.304C74.1596 412.104 74.4396 411.04 74.9996 410.112C75.5596 409.168 76.3276 408.44 77.3036 407.928C78.2956 407.416 79.3996 407.16 80.6156 407.16C81.5756 407.16 82.4636 407.336 83.2796 407.688C84.1116 408.04 84.7916 408.56 85.3196 409.248V407.28H87.5036ZM80.8796 417.456C81.7116 417.456 82.4556 417.28 83.1116 416.928C83.7836 416.576 84.3036 416.088 84.6716 415.464C85.0556 414.824 85.2476 414.104 85.2476 413.304C85.2476 412.072 84.8396 411.08 84.0236 410.328C83.2076 409.56 82.1596 409.176 80.8796 409.176C79.5836 409.176 78.5276 409.56 77.7116 410.328C76.8956 411.08 76.4876 412.072 76.4876 413.304C76.4876 414.104 76.6716 414.824 77.0396 415.464C77.4236 416.088 77.9436 416.576 78.5996 416.928C79.2716 417.28 80.0316 417.456 80.8796 417.456ZM94.3059 407.28H96.6099V420H94.3059V407.28ZM95.4579 404.832C95.0099 404.832 94.6339 404.688 94.3299 404.4C94.0419 404.112 93.8979 403.76 93.8979 403.344C93.8979 402.928 94.0419 402.576 94.3299 402.288C94.6339 401.984 95.0099 401.832 95.4579 401.832C95.9059 401.832 96.2739 401.976 96.5619 402.264C96.8659 402.536 97.0179 402.88 97.0179 403.296C97.0179 403.728 96.8659 404.096 96.5619 404.4C96.2739 404.688 95.9059 404.832 95.4579 404.832ZM110.561 419.256C110.225 419.544 109.809 419.768 109.313 419.928C108.817 420.072 108.305 420.144 107.777 420.144C106.497 420.144 105.505 419.8 104.801 419.112C104.097 418.424 103.745 417.44 103.745 416.16V409.176H101.585V407.28H103.745V404.496H106.049V407.28H109.697V409.176H106.049V416.064C106.049 416.752 106.217 417.28 106.553 417.648C106.905 418.016 107.401 418.2 108.041 418.2C108.745 418.2 109.345 418 109.841 417.6L110.561 419.256ZM131.336 407.16C132.568 407.16 133.672 407.432 134.648 407.976C135.624 408.52 136.384 409.28 136.928 410.256C137.488 411.232 137.768 412.36 137.768 413.64C137.768 414.92 137.488 416.056 136.928 417.048C136.384 418.024 135.624 418.784 134.648 419.328C133.672 419.872 132.568 420.144 131.336 420.144C130.424 420.144 129.584 419.968 128.816 419.616C128.064 419.264 127.424 418.752 126.896 418.08V424.656H124.592V407.28H126.8V409.296C127.312 408.592 127.96 408.064 128.744 407.712C129.528 407.344 130.392 407.16 131.336 407.16ZM131.144 418.128C131.96 418.128 132.688 417.944 133.328 417.576C133.984 417.192 134.496 416.664 134.864 415.992C135.248 415.304 135.44 414.52 135.44 413.64C135.44 412.76 135.248 411.984 134.864 411.312C134.496 410.624 133.984 410.096 133.328 409.728C132.688 409.36 131.96 409.176 131.144 409.176C130.344 409.176 129.616 409.368 128.96 409.752C128.32 410.12 127.808 410.64 127.424 411.312C127.056 411.984 126.872 412.76 126.872 413.64C126.872 414.52 127.056 415.304 127.424 415.992C127.792 416.664 128.304 417.192 128.96 417.576C129.616 417.944 130.344 418.128 131.144 418.128ZM155.207 407.28V420H153.023V418.08C152.559 418.736 151.943 419.248 151.175 419.616C150.423 419.968 149.599 420.144 148.703 420.144C147.007 420.144 145.671 419.68 144.695 418.752C143.719 417.808 143.231 416.424 143.231 414.6V407.28H145.535V414.336C145.535 415.568 145.831 416.504 146.423 417.144C147.015 417.768 147.863 418.08 148.967 418.08C150.183 418.08 151.143 417.712 151.847 416.976C152.551 416.24 152.903 415.2 152.903 413.856V407.28H155.207ZM165.641 420.144C164.601 420.144 163.601 420.008 162.641 419.736C161.681 419.448 160.929 419.088 160.385 418.656L161.345 416.832C161.905 417.232 162.585 417.552 163.385 417.792C164.185 418.032 164.993 418.152 165.809 418.152C167.825 418.152 168.833 417.576 168.833 416.424C168.833 416.04 168.697 415.736 168.425 415.512C168.153 415.288 167.809 415.128 167.393 415.032C166.993 414.92 166.417 414.8 165.665 414.672C164.641 414.512 163.801 414.328 163.145 414.12C162.505 413.912 161.953 413.56 161.489 413.064C161.025 412.568 160.793 411.872 160.793 410.976C160.793 409.824 161.273 408.904 162.233 408.216C163.193 407.512 164.481 407.16 166.097 407.16C166.945 407.16 167.793 407.264 168.641 407.472C169.489 407.68 170.185 407.96 170.729 408.312L169.745 410.136C168.705 409.464 167.481 409.128 166.073 409.128C165.097 409.128 164.353 409.288 163.841 409.608C163.329 409.928 163.073 410.352 163.073 410.88C163.073 411.296 163.217 411.624 163.505 411.864C163.793 412.104 164.145 412.28 164.561 412.392C164.993 412.504 165.593 412.632 166.361 412.776C167.385 412.952 168.209 413.144 168.833 413.352C169.473 413.544 170.017 413.88 170.465 414.36C170.913 414.84 171.137 415.512 171.137 416.376C171.137 417.528 170.641 418.448 169.649 419.136C168.673 419.808 167.337 420.144 165.641 420.144ZM183.209 407.16C184.825 407.16 186.105 407.632 187.049 408.576C188.009 409.504 188.489 410.872 188.489 412.68V420H186.185V412.944C186.185 411.712 185.889 410.784 185.297 410.16C184.705 409.536 183.857 409.224 182.753 409.224C181.505 409.224 180.521 409.592 179.801 410.328C179.081 411.048 178.721 412.088 178.721 413.448V420H176.417V402.192H178.721V409.08C179.201 408.472 179.825 408 180.593 407.664C181.377 407.328 182.249 407.16 183.209 407.16ZM210.79 407.16C212.406 407.16 213.686 407.632 214.63 408.576C215.59 409.504 216.07 410.872 216.07 412.68V420H213.766V412.944C213.766 411.712 213.47 410.784 212.878 410.16C212.286 409.536 211.438 409.224 210.334 409.224C209.086 409.224 208.102 409.592 207.382 410.328C206.662 411.048 206.302 412.088 206.302 413.448V420H203.998V402.192H206.302V409.08C206.782 408.472 207.406 408 208.174 407.664C208.958 407.328 209.83 407.16 210.79 407.16ZM234.3 413.712C234.3 413.888 234.284 414.12 234.252 414.408H223.932C224.076 415.528 224.564 416.432 225.396 417.12C226.244 417.792 227.292 418.128 228.54 418.128C230.06 418.128 231.284 417.616 232.212 416.592L233.484 418.08C232.908 418.752 232.188 419.264 231.324 419.616C230.476 419.968 229.524 420.144 228.468 420.144C227.124 420.144 225.932 419.872 224.892 419.328C223.852 418.768 223.044 417.992 222.468 417C221.908 416.008 221.628 414.888 221.628 413.64C221.628 412.408 221.9 411.296 222.444 410.304C223.004 409.312 223.764 408.544 224.724 408C225.7 407.44 226.796 407.16 228.012 407.16C229.228 407.16 230.308 407.44 231.252 408C232.212 408.544 232.956 409.312 233.484 410.304C234.028 411.296 234.3 412.432 234.3 413.712ZM228.012 409.104C226.908 409.104 225.98 409.44 225.228 410.112C224.492 410.784 224.06 411.664 223.932 412.752H232.092C231.964 411.68 231.524 410.808 230.772 410.136C230.036 409.448 229.116 409.104 228.012 409.104ZM242.108 409.416C242.508 408.68 243.1 408.12 243.884 407.736C244.668 407.352 245.62 407.16 246.74 407.16V409.392C246.612 409.376 246.436 409.368 246.212 409.368C244.964 409.368 243.98 409.744 243.26 410.496C242.556 411.232 242.204 412.288 242.204 413.664V420H239.9V407.28H242.108V409.416ZM257.31 420.144C256.046 420.144 254.91 419.864 253.902 419.304C252.894 418.744 252.102 417.976 251.526 417C250.966 416.008 250.686 414.888 250.686 413.64C250.686 412.392 250.966 411.28 251.526 410.304C252.102 409.312 252.894 408.544 253.902 408C254.91 407.44 256.046 407.16 257.31 407.16C258.574 407.16 259.702 407.44 260.694 408C261.702 408.544 262.486 409.312 263.046 410.304C263.622 411.28 263.91 412.392 263.91 413.64C263.91 414.888 263.622 416.008 263.046 417C262.486 417.976 261.702 418.744 260.694 419.304C259.702 419.864 258.574 420.144 257.31 420.144ZM257.31 418.128C258.126 418.128 258.854 417.944 259.494 417.576C260.15 417.192 260.662 416.664 261.03 415.992C261.398 415.304 261.582 414.52 261.582 413.64C261.582 412.76 261.398 411.984 261.03 411.312C260.662 410.624 260.15 410.096 259.494 409.728C258.854 409.36 258.126 409.176 257.31 409.176C256.494 409.176 255.758 409.36 255.102 409.728C254.462 410.096 253.95 410.624 253.566 411.312C253.198 411.984 253.014 412.76 253.014 413.64C253.014 414.52 253.198 415.304 253.566 415.992C253.95 416.664 254.462 417.192 255.102 417.576C255.758 417.944 256.494 418.128 257.31 418.128ZM274.441 414.072L271.801 416.52V420H269.497V402.192H271.801V413.616L278.737 407.28H281.521L276.169 412.536L282.049 420H279.217L274.441 414.072ZM298.307 407.28V420H296.123V418.08C295.659 418.736 295.043 419.248 294.275 419.616C293.523 419.968 292.699 420.144 291.803 420.144C290.107 420.144 288.771 419.68 287.795 418.752C286.819 417.808 286.331 416.424 286.331 414.6V407.28H288.635V414.336C288.635 415.568 288.931 416.504 289.523 417.144C290.115 417.768 290.963 418.08 292.067 418.08C293.283 418.08 294.243 417.712 294.947 416.976C295.651 416.24 296.003 415.2 296.003 413.856V407.28H298.307ZM329.851 407.16C331.451 407.16 332.715 407.624 333.643 408.552C334.587 409.48 335.059 410.856 335.059 412.68V420H332.755V412.944C332.755 411.712 332.467 410.784 331.891 410.16C331.331 409.536 330.523 409.224 329.467 409.224C328.299 409.224 327.371 409.592 326.683 410.328C325.995 411.048 325.651 412.088 325.651 413.448V420H323.347V412.944C323.347 411.712 323.059 410.784 322.483 410.16C321.923 409.536 321.115 409.224 320.059 409.224C318.891 409.224 317.963 409.592 317.275 410.328C316.587 411.048 316.243 412.088 316.243 413.448V420H313.939V407.28H316.147V409.176C316.611 408.52 317.219 408.024 317.971 407.688C318.723 407.336 319.579 407.16 320.539 407.16C321.531 407.16 322.411 407.36 323.179 407.76C323.947 408.16 324.539 408.744 324.955 409.512C325.435 408.776 326.099 408.2 326.947 407.784C327.811 407.368 328.779 407.16 329.851 407.16ZM346.33 407.16C348.09 407.16 349.434 407.592 350.362 408.456C351.306 409.32 351.778 410.608 351.778 412.32V420H349.594V418.32C349.21 418.912 348.658 419.368 347.938 419.688C347.234 419.992 346.394 420.144 345.418 420.144C343.994 420.144 342.85 419.8 341.986 419.112C341.138 418.424 340.714 417.52 340.714 416.4C340.714 415.28 341.122 414.384 341.938 413.712C342.754 413.024 344.05 412.68 345.826 412.68H349.474V412.224C349.474 411.232 349.186 410.472 348.61 409.944C348.034 409.416 347.186 409.152 346.066 409.152C345.314 409.152 344.578 409.28 343.858 409.536C343.138 409.776 342.53 410.104 342.034 410.52L341.074 408.792C341.73 408.264 342.514 407.864 343.426 407.592C344.338 407.304 345.306 407.16 346.33 407.16ZM345.802 418.368C346.682 418.368 347.442 418.176 348.082 417.792C348.722 417.392 349.186 416.832 349.474 416.112V414.336H345.922C343.97 414.336 342.994 414.992 342.994 416.304C342.994 416.944 343.242 417.448 343.738 417.816C344.234 418.184 344.922 418.368 345.802 418.368ZM362.09 420.144C361.05 420.144 360.05 420.008 359.09 419.736C358.13 419.448 357.378 419.088 356.834 418.656L357.794 416.832C358.354 417.232 359.034 417.552 359.834 417.792C360.634 418.032 361.442 418.152 362.258 418.152C364.274 418.152 365.282 417.576 365.282 416.424C365.282 416.04 365.146 415.736 364.874 415.512C364.602 415.288 364.258 415.128 363.842 415.032C363.442 414.92 362.866 414.8 362.114 414.672C361.09 414.512 360.25 414.328 359.594 414.12C358.954 413.912 358.402 413.56 357.938 413.064C357.474 412.568 357.242 411.872 357.242 410.976C357.242 409.824 357.722 408.904 358.682 408.216C359.642 407.512 360.93 407.16 362.546 407.16C363.394 407.16 364.242 407.264 365.09 407.472C365.938 407.68 366.634 407.96 367.178 408.312L366.194 410.136C365.154 409.464 363.93 409.128 362.522 409.128C361.546 409.128 360.802 409.288 360.29 409.608C359.778 409.928 359.522 410.352 359.522 410.88C359.522 411.296 359.666 411.624 359.954 411.864C360.242 412.104 360.594 412.28 361.01 412.392C361.442 412.504 362.042 412.632 362.81 412.776C363.834 412.952 364.658 413.144 365.282 413.352C365.922 413.544 366.466 413.88 366.914 414.36C367.362 414.84 367.586 415.512 367.586 416.376C367.586 417.528 367.09 418.448 366.098 419.136C365.122 419.808 363.786 420.144 362.09 420.144ZM380.017 419.256C379.681 419.544 379.265 419.768 378.769 419.928C378.273 420.072 377.761 420.144 377.233 420.144C375.953 420.144 374.961 419.8 374.257 419.112C373.553 418.424 373.201 417.44 373.201 416.16V409.176H371.041V407.28H373.201V404.496H375.505V407.28H379.153V409.176H375.505V416.064C375.505 416.752 375.673 417.28 376.009 417.648C376.361 418.016 376.857 418.2 377.497 418.2C378.201 418.2 378.801 418 379.297 417.6L380.017 419.256ZM396.277 413.712C396.277 413.888 396.261 414.12 396.229 414.408H385.909C386.053 415.528 386.541 416.432 387.373 417.12C388.221 417.792 389.269 418.128 390.517 418.128C392.037 418.128 393.261 417.616 394.189 416.592L395.461 418.08C394.885 418.752 394.165 419.264 393.301 419.616C392.453 419.968 391.501 420.144 390.445 420.144C389.101 420.144 387.909 419.872 386.869 419.328C385.829 418.768 385.021 417.992 384.445 417C383.885 416.008 383.605 414.888 383.605 413.64C383.605 412.408 383.877 411.296 384.421 410.304C384.981 409.312 385.741 408.544 386.701 408C387.677 407.44 388.773 407.16 389.989 407.16C391.205 407.16 392.285 407.44 393.229 408C394.189 408.544 394.933 409.312 395.461 410.304C396.005 411.296 396.277 412.432 396.277 413.712ZM389.989 409.104C388.885 409.104 387.957 409.44 387.205 410.112C386.469 410.784 386.037 411.664 385.909 412.752H394.069C393.941 411.68 393.501 410.808 392.749 410.136C392.013 409.448 391.093 409.104 389.989 409.104ZM404.084 409.416C404.484 408.68 405.076 408.12 405.86 407.736C406.644 407.352 407.596 407.16 408.716 407.16V409.392C408.588 409.376 408.412 409.368 408.188 409.368C406.94 409.368 405.956 409.744 405.236 410.496C404.532 411.232 404.18 412.288 404.18 413.664V420H401.876V407.28H404.084V409.416Z" fill="#00FF0A"/>
<defs>
<filter id="filter0_d" x="-181" y="0" width="979" height="633" filterUnits="userSpaceOnUse" color-interpolation-filters="sRGB">
<feFlood flood-opacity="0" result="BackgroundImageFix"/>
<feColorMatrix in="SourceAlpha" type="matrix" values="0 0 0 0 0 0 0 0 0 0 0 0 0 0 0 0 0 0 127 0"/>
<feOffset dx="6" dy="4"/>
<feGaussianBlur stdDeviation="2"/>
<feColorMatrix type="matrix" values="0 0 0 0 0 0 0 0 0 0 0 0 0 0 0 0 0 0 0.35 0"/>
<feBlend mode="normal" in2="BackgroundImageFix" result="effect1_dropShadow"/>
<feBlend mode="normal" in="SourceGraphic" in2="effect1_dropShadow" result="shape"/>
</filter>
<filter id="filter1_d" x="-113" y="59" width="979" height="633" filterUnits="userSpaceOnUse" color-interpolation-filters="sRGB">
<feFlood flood-opacity="0" result="BackgroundImageFix"/>
<feColorMatrix in="SourceAlpha" type="matrix" values="0 0 0 0 0 0 0 0 0 0 0 0 0 0 0 0 0 0 127 0"/>
<feOffset dx="6" dy="4"/>
<feGaussianBlur stdDeviation="2"/>
<feColorMatrix type="matrix" values="0 0 0 0 0 0 0 0 0 0 0 0 0 0 0 0 0 0 0.35 0"/>
<feBlend mode="normal" in2="BackgroundImageFix" result="effect1_dropShadow"/>
<feBlend mode="normal" in="SourceGraphic" in2="effect1_dropShadow" result="shape"/>
</filter>
</defs>
</svg>
