<svg width="269" height="14" viewBox="0 0 269 14" fill="none" xmlns="http://www.w3.org/2000/svg">
<path d="M3.668 3.216L5.334 4.154L4.9 4.924L3.206 3.93L3.22 5.834H2.38L2.394 3.93L0.7 4.924L0.266 4.154L1.946 3.216L0.266 2.292L0.7 1.508L2.394 2.502L2.38 0.611999H3.22L3.206 2.502L4.9 1.508L5.334 2.292L3.668 3.216ZM22.7863 1.2L19.5103 11H18.0403L15.3663 3.174L12.6923 11H11.1943L7.91831 1.2H9.36031L12.0063 9.166L14.7643 1.2H16.0523L18.7543 9.208L21.4563 1.2H22.7863ZM31.8484 7.332C31.8484 7.43467 31.839 7.57 31.8204 7.738H25.8004C25.8844 8.39133 26.169 8.91867 26.6544 9.32C27.149 9.712 27.7604 9.908 28.4884 9.908C29.375 9.908 30.089 9.60933 30.6304 9.012L31.3724 9.88C31.0364 10.272 30.6164 10.5707 30.1124 10.776C29.6177 10.9813 29.0624 11.084 28.4464 11.084C27.6624 11.084 26.967 10.9253 26.3604 10.608C25.7537 10.2813 25.2824 9.82867 24.9464 9.25C24.6197 8.67133 24.4564 8.018 24.4564 7.29C24.4564 6.57133 24.615 5.92267 24.9324 5.344C25.259 4.76533 25.7024 4.31733 26.2624 4C26.8317 3.67333 27.471 3.51 28.1804 3.51C28.8897 3.51 29.5197 3.67333 30.0704 4C30.6304 4.31733 31.0644 4.76533 31.3724 5.344C31.6897 5.92267 31.8484 6.58533 31.8484 7.332ZM28.1804 4.644C27.5364 4.644 26.995 4.84 26.5564 5.232C26.127 5.624 25.875 6.13733 25.8004 6.772H30.5604C30.4857 6.14667 30.229 5.638 29.7904 5.246C29.361 4.84467 28.8244 4.644 28.1804 4.644ZM42.9764 3.51C44.0031 3.51 44.7871 3.762 45.3284 4.266C45.8791 4.77 46.1544 5.52133 46.1544 6.52V11H44.8804V10.02C44.6564 10.3653 44.3344 10.6313 43.9144 10.818C43.5037 10.9953 43.0137 11.084 42.4444 11.084C41.6137 11.084 40.9464 10.8833 40.4424 10.482C39.9477 10.0807 39.7004 9.55333 39.7004 8.9C39.7004 8.24667 39.9384 7.724 40.4144 7.332C40.8904 6.93067 41.6464 6.73 42.6824 6.73H44.8104V6.464C44.8104 5.88533 44.6424 5.442 44.3064 5.134C43.9704 4.826 43.4757 4.672 42.8224 4.672C42.3837 4.672 41.9544 4.74667 41.5344 4.896C41.1144 5.036 40.7597 5.22733 40.4704 5.47L39.9104 4.462C40.2931 4.154 40.7504 3.92067 41.2824 3.762C41.8144 3.594 42.3791 3.51 42.9764 3.51ZM42.6684 10.048C43.1817 10.048 43.6251 9.936 43.9984 9.712C44.3717 9.47867 44.6424 9.152 44.8104 8.732V7.696H42.7384C41.5997 7.696 41.0304 8.07867 41.0304 8.844C41.0304 9.21733 41.1751 9.51133 41.4644 9.726C41.7537 9.94067 42.1551 10.048 42.6684 10.048ZM57.0826 0.611999V11H55.7946V9.824C55.4959 10.2347 55.1179 10.5473 54.6606 10.762C54.2033 10.9767 53.6993 11.084 53.1486 11.084C52.4299 11.084 51.7859 10.9253 51.2166 10.608C50.6473 10.2907 50.1993 9.84733 49.8726 9.278C49.5553 8.69933 49.3966 8.03667 49.3966 7.29C49.3966 6.54333 49.5553 5.88533 49.8726 5.316C50.1993 4.74667 50.6473 4.30333 51.2166 3.986C51.7859 3.66867 52.4299 3.51 53.1486 3.51C53.6806 3.51 54.1706 3.61267 54.6186 3.818C55.0666 4.014 55.4399 4.308 55.7386 4.7V0.611999H57.0826ZM53.2606 9.908C53.7273 9.908 54.1519 9.80067 54.5346 9.586C54.9173 9.362 55.2159 9.054 55.4306 8.662C55.6453 8.26067 55.7526 7.80333 55.7526 7.29C55.7526 6.77667 55.6453 6.324 55.4306 5.932C55.2159 5.53067 54.9173 5.22267 54.5346 5.008C54.1519 4.79333 53.7273 4.686 53.2606 4.686C52.7846 4.686 52.3553 4.79333 51.9726 5.008C51.5993 5.22267 51.3006 5.53067 51.0766 5.932C50.8619 6.324 50.7546 6.77667 50.7546 7.29C50.7546 7.80333 50.8619 8.26067 51.0766 8.662C51.3006 9.054 51.5993 9.362 51.9726 9.586C52.3553 9.80067 52.7846 9.908 53.2606 9.908ZM68.0256 0.611999V11H66.7376V9.824C66.4389 10.2347 66.0609 10.5473 65.6036 10.762C65.1462 10.9767 64.6422 11.084 64.0916 11.084C63.3729 11.084 62.7289 10.9253 62.1596 10.608C61.5902 10.2907 61.1422 9.84733 60.8156 9.278C60.4982 8.69933 60.3396 8.03667 60.3396 7.29C60.3396 6.54333 60.4982 5.88533 60.8156 5.316C61.1422 4.74667 61.5902 4.30333 62.1596 3.986C62.7289 3.66867 63.3729 3.51 64.0916 3.51C64.6236 3.51 65.1136 3.61267 65.5616 3.818C66.0096 4.014 66.3829 4.308 66.6816 4.7V0.611999H68.0256ZM64.2036 9.908C64.6702 9.908 65.0949 9.80067 65.4776 9.586C65.8602 9.362 66.1589 9.054 66.3736 8.662C66.5882 8.26067 66.6956 7.80333 66.6956 7.29C66.6956 6.77667 66.5882 6.324 66.3736 5.932C66.1589 5.53067 65.8602 5.22267 65.4776 5.008C65.0949 4.79333 64.6702 4.686 64.2036 4.686C63.7276 4.686 63.2982 4.79333 62.9156 5.008C62.5422 5.22267 62.2436 5.53067 62.0196 5.932C61.8049 6.324 61.6976 6.77667 61.6976 7.29C61.6976 7.80333 61.8049 8.26067 62.0196 8.662C62.2436 9.054 62.5422 9.362 62.9156 9.586C63.2982 9.80067 63.7276 9.908 64.2036 9.908ZM78.6745 7.332C78.6745 7.43467 78.6652 7.57 78.6465 7.738H72.6265C72.7105 8.39133 72.9952 8.91867 73.4805 9.32C73.9752 9.712 74.5865 9.908 75.3145 9.908C76.2012 9.908 76.9152 9.60933 77.4565 9.012L78.1985 9.88C77.8625 10.272 77.4425 10.5707 76.9385 10.776C76.4439 10.9813 75.8885 11.084 75.2725 11.084C74.4885 11.084 73.7932 10.9253 73.1865 10.608C72.5799 10.2813 72.1085 9.82867 71.7725 9.25C71.4459 8.67133 71.2825 8.018 71.2825 7.29C71.2825 6.57133 71.4412 5.92267 71.7585 5.344C72.0852 4.76533 72.5285 4.31733 73.0885 4C73.6579 3.67333 74.2972 3.51 75.0065 3.51C75.7159 3.51 76.3459 3.67333 76.8965 4C77.4565 4.31733 77.8905 4.76533 78.1985 5.344C78.5159 5.92267 78.6745 6.58533 78.6745 7.332ZM75.0065 4.644C74.3625 4.644 73.8212 4.84 73.3825 5.232C72.9532 5.624 72.7012 6.13733 72.6265 6.772H77.3865C77.3119 6.14667 77.0552 5.638 76.6165 5.246C76.1872 4.84467 75.6505 4.644 75.0065 4.644ZM88.9408 0.611999V11H87.6528V9.824C87.3541 10.2347 86.9761 10.5473 86.5188 10.762C86.0615 10.9767 85.5575 11.084 85.0068 11.084C84.2881 11.084 83.6441 10.9253 83.0748 10.608C82.5055 10.2907 82.0575 9.84733 81.7308 9.278C81.4135 8.69933 81.2548 8.03667 81.2548 7.29C81.2548 6.54333 81.4135 5.88533 81.7308 5.316C82.0575 4.74667 82.5055 4.30333 83.0748 3.986C83.6441 3.66867 84.2881 3.51 85.0068 3.51C85.5388 3.51 86.0288 3.61267 86.4768 3.818C86.9248 4.014 87.2981 4.308 87.5968 4.7V0.611999H88.9408ZM85.1188 9.908C85.5855 9.908 86.0101 9.80067 86.3928 9.586C86.7755 9.362 87.0741 9.054 87.2888 8.662C87.5035 8.26067 87.6108 7.80333 87.6108 7.29C87.6108 6.77667 87.5035 6.324 87.2888 5.932C87.0741 5.53067 86.7755 5.22267 86.3928 5.008C86.0101 4.79333 85.5855 4.686 85.1188 4.686C84.6428 4.686 84.2135 4.79333 83.8308 5.008C83.4575 5.22267 83.1588 5.53067 82.9348 5.932C82.7201 6.324 82.6128 6.77667 82.6128 7.29C82.6128 7.80333 82.7201 8.26067 82.9348 8.662C83.1588 9.054 83.4575 9.362 83.8308 9.586C84.2135 9.80067 84.6428 9.908 85.1188 9.908ZM102.216 10.566C102.02 10.734 101.777 10.8647 101.488 10.958C101.198 11.042 100.9 11.084 100.592 11.084C99.8449 11.084 99.2662 10.8833 98.8555 10.482C98.4449 10.0807 98.2395 9.50667 98.2395 8.76V4.686H96.9795V3.58H98.2395V1.956H99.5835V3.58H101.712V4.686H99.5835V8.704C99.5835 9.10533 99.6815 9.41333 99.8775 9.628C100.083 9.84267 100.372 9.95 100.746 9.95C101.156 9.95 101.506 9.83333 101.796 9.6L102.216 10.566ZM109.202 3.51C110.145 3.51 110.892 3.78533 111.442 4.336C112.002 4.87733 112.282 5.67533 112.282 6.73V11H110.938V6.884C110.938 6.16533 110.766 5.624 110.42 5.26C110.075 4.896 109.58 4.714 108.936 4.714C108.208 4.714 107.634 4.92867 107.214 5.358C106.794 5.778 106.584 6.38467 106.584 7.178V11H105.24V0.611999H106.584V4.63C106.864 4.27533 107.228 4 107.676 3.804C108.134 3.608 108.642 3.51 109.202 3.51ZM116.17 3.58H117.514V11H116.17V3.58ZM116.842 2.152C116.58 2.152 116.361 2.068 116.184 1.9C116.016 1.732 115.932 1.52667 115.932 1.284C115.932 1.04133 116.016 0.836 116.184 0.668C116.361 0.490666 116.58 0.402 116.842 0.402C117.103 0.402 117.318 0.486 117.486 0.654C117.663 0.812666 117.752 1.01333 117.752 1.256C117.752 1.508 117.663 1.72267 117.486 1.9C117.318 2.068 117.103 2.152 116.842 2.152ZM123.608 11.084C123.001 11.084 122.418 11.0047 121.858 10.846C121.298 10.678 120.859 10.468 120.542 10.216L121.102 9.152C121.429 9.38533 121.825 9.572 122.292 9.712C122.759 9.852 123.23 9.922 123.706 9.922C124.882 9.922 125.47 9.586 125.47 8.914C125.47 8.69 125.391 8.51267 125.232 8.382C125.073 8.25133 124.873 8.158 124.63 8.102C124.397 8.03667 124.061 7.96667 123.622 7.892C123.025 7.79867 122.535 7.69133 122.152 7.57C121.779 7.44867 121.457 7.24333 121.186 6.954C120.915 6.66467 120.78 6.25867 120.78 5.736C120.78 5.064 121.06 4.52733 121.62 4.126C122.18 3.71533 122.931 3.51 123.874 3.51C124.369 3.51 124.863 3.57067 125.358 3.692C125.853 3.81333 126.259 3.97667 126.576 4.182L126.002 5.246C125.395 4.854 124.681 4.658 123.86 4.658C123.291 4.658 122.857 4.75133 122.558 4.938C122.259 5.12467 122.11 5.372 122.11 5.68C122.11 5.92267 122.194 6.114 122.362 6.254C122.53 6.394 122.735 6.49667 122.978 6.562C123.23 6.62733 123.58 6.702 124.028 6.786C124.625 6.88867 125.106 7.00067 125.47 7.122C125.843 7.234 126.161 7.43 126.422 7.71C126.683 7.99 126.814 8.382 126.814 8.886C126.814 9.558 126.525 10.0947 125.946 10.496C125.377 10.888 124.597 11.084 123.608 11.084ZM138.105 11.112C137.368 11.112 136.654 11 135.963 10.776C135.282 10.5427 134.745 10.244 134.353 9.88L134.871 8.788C135.245 9.124 135.721 9.39933 136.299 9.614C136.887 9.81933 137.489 9.922 138.105 9.922C138.917 9.922 139.524 9.78667 139.925 9.516C140.327 9.236 140.527 8.86733 140.527 8.41C140.527 8.074 140.415 7.80333 140.191 7.598C139.977 7.38333 139.706 7.22 139.379 7.108C139.062 6.996 138.609 6.87 138.021 6.73C137.284 6.55267 136.687 6.37533 136.229 6.198C135.781 6.02067 135.394 5.75 135.067 5.386C134.75 5.01267 134.591 4.51333 134.591 3.888C134.591 3.36533 134.727 2.894 134.997 2.474C135.277 2.054 135.697 1.718 136.257 1.466C136.817 1.214 137.513 1.088 138.343 1.088C138.922 1.088 139.491 1.16267 140.051 1.312C140.611 1.46133 141.092 1.676 141.493 1.956L141.031 3.076C140.621 2.81467 140.182 2.61867 139.715 2.488C139.249 2.348 138.791 2.278 138.343 2.278C137.55 2.278 136.953 2.42267 136.551 2.712C136.159 3.00133 135.963 3.37467 135.963 3.832C135.963 4.168 136.075 4.44333 136.299 4.658C136.523 4.86333 136.799 5.02667 137.125 5.148C137.461 5.26 137.914 5.38133 138.483 5.512C139.221 5.68933 139.813 5.86667 140.261 6.044C140.709 6.22133 141.092 6.492 141.409 6.856C141.736 7.22 141.899 7.71 141.899 8.326C141.899 8.83933 141.759 9.31067 141.479 9.74C141.199 10.16 140.775 10.496 140.205 10.748C139.636 10.9907 138.936 11.112 138.105 11.112ZM153.857 1.2L149.559 11H148.173L143.861 1.2H145.373L148.901 9.25L152.457 1.2H153.857ZM163.187 6.044H164.531V9.866C164.046 10.2673 163.481 10.5753 162.837 10.79C162.193 11.0047 161.521 11.112 160.821 11.112C159.832 11.112 158.94 10.8973 158.147 10.468C157.354 10.0293 156.728 9.432 156.271 8.676C155.823 7.91067 155.599 7.052 155.599 6.1C155.599 5.148 155.823 4.28933 156.271 3.524C156.728 2.75867 157.354 2.16133 158.147 1.732C158.95 1.30267 159.85 1.088 160.849 1.088C161.633 1.088 162.342 1.21867 162.977 1.48C163.621 1.732 164.167 2.10533 164.615 2.6L163.747 3.468C162.963 2.712 162.016 2.334 160.905 2.334C160.158 2.334 159.486 2.49733 158.889 2.824C158.301 3.14133 157.839 3.58933 157.503 4.168C157.167 4.73733 156.999 5.38133 156.999 6.1C156.999 6.80933 157.167 7.45333 157.503 8.032C157.839 8.60133 158.301 9.04933 158.889 9.376C159.486 9.70267 160.154 9.866 160.891 9.866C161.768 9.866 162.534 9.656 163.187 9.236V6.044ZM176.291 1.634C175.489 1.634 175.087 2.068 175.087 2.936V3.58H177.243V4.686H175.115V11H173.771V4.686H172.511V3.58H173.771V2.922C173.771 2.18467 173.986 1.60133 174.415 1.172C174.845 0.742666 175.447 0.528 176.221 0.528C176.52 0.528 176.8 0.565333 177.061 0.64C177.323 0.714666 177.547 0.821999 177.733 0.962L177.327 1.984C177.019 1.75067 176.674 1.634 176.291 1.634ZM182.979 11.084C182.242 11.084 181.579 10.9207 180.991 10.594C180.403 10.2673 179.941 9.81933 179.605 9.25C179.279 8.67133 179.115 8.018 179.115 7.29C179.115 6.562 179.279 5.91333 179.605 5.344C179.941 4.76533 180.403 4.31733 180.991 4C181.579 3.67333 182.242 3.51 182.979 3.51C183.717 3.51 184.375 3.67333 184.953 4C185.541 4.31733 185.999 4.76533 186.325 5.344C186.661 5.91333 186.829 6.562 186.829 7.29C186.829 8.018 186.661 8.67133 186.325 9.25C185.999 9.81933 185.541 10.2673 184.953 10.594C184.375 10.9207 183.717 11.084 182.979 11.084ZM182.979 9.908C183.455 9.908 183.88 9.80067 184.253 9.586C184.636 9.362 184.935 9.054 185.149 8.662C185.364 8.26067 185.471 7.80333 185.471 7.29C185.471 6.77667 185.364 6.324 185.149 5.932C184.935 5.53067 184.636 5.22267 184.253 5.008C183.88 4.79333 183.455 4.686 182.979 4.686C182.503 4.686 182.074 4.79333 181.691 5.008C181.318 5.22267 181.019 5.53067 180.795 5.932C180.581 6.324 180.473 6.77667 180.473 7.29C180.473 7.80333 180.581 8.26067 180.795 8.662C181.019 9.054 181.318 9.362 181.691 9.586C182.074 9.80067 182.503 9.908 182.979 9.908ZM191.376 4.826C191.609 4.39667 191.955 4.07 192.412 3.846C192.869 3.622 193.425 3.51 194.078 3.51V4.812C194.003 4.80267 193.901 4.798 193.77 4.798C193.042 4.798 192.468 5.01733 192.048 5.456C191.637 5.88533 191.432 6.50133 191.432 7.304V11H190.088V3.58H191.376V4.826ZM201.438 13.8C201.111 13.8 200.808 13.7627 200.528 13.688C200.248 13.6133 200.015 13.5013 199.828 13.352L200.262 12.316C200.542 12.5493 200.906 12.666 201.354 12.666C201.709 12.666 201.979 12.554 202.166 12.33C202.362 12.1153 202.46 11.7933 202.46 11.364V3.58H203.804V11.336C203.804 12.1013 203.599 12.7033 203.188 13.142C202.777 13.5807 202.194 13.8 201.438 13.8ZM203.132 2.152C202.871 2.152 202.651 2.068 202.474 1.9C202.306 1.732 202.222 1.52667 202.222 1.284C202.222 1.04133 202.306 0.836 202.474 0.668C202.651 0.490666 202.871 0.402 203.132 0.402C203.393 0.402 203.608 0.486 203.776 0.654C203.953 0.812666 204.042 1.01333 204.042 1.256C204.042 1.508 203.953 1.72267 203.776 1.9C203.608 2.068 203.393 2.152 203.132 2.152ZM214.685 3.58V11H213.411V9.88C213.14 10.2627 212.781 10.5613 212.333 10.776C211.894 10.9813 211.413 11.084 210.891 11.084C209.901 11.084 209.122 10.8133 208.553 10.272C207.983 9.72133 207.699 8.914 207.699 7.85V3.58H209.043V7.696C209.043 8.41467 209.215 8.96067 209.561 9.334C209.906 9.698 210.401 9.88 211.045 9.88C211.754 9.88 212.314 9.66533 212.725 9.236C213.135 8.80667 213.341 8.2 213.341 7.416V3.58H214.685ZM220.771 11.084C220.164 11.084 219.581 11.0047 219.021 10.846C218.461 10.678 218.022 10.468 217.705 10.216L218.265 9.152C218.592 9.38533 218.988 9.572 219.455 9.712C219.922 9.852 220.393 9.922 220.869 9.922C222.045 9.922 222.633 9.586 222.633 8.914C222.633 8.69 222.554 8.51267 222.395 8.382C222.236 8.25133 222.036 8.158 221.793 8.102C221.56 8.03667 221.224 7.96667 220.785 7.892C220.188 7.79867 219.698 7.69133 219.315 7.57C218.942 7.44867 218.62 7.24333 218.349 6.954C218.078 6.66467 217.943 6.25867 217.943 5.736C217.943 5.064 218.223 4.52733 218.783 4.126C219.343 3.71533 220.094 3.51 221.037 3.51C221.532 3.51 222.026 3.57067 222.521 3.692C223.016 3.81333 223.422 3.97667 223.739 4.182L223.165 5.246C222.558 4.854 221.844 4.658 221.023 4.658C220.454 4.658 220.02 4.75133 219.721 4.938C219.422 5.12467 219.273 5.372 219.273 5.68C219.273 5.92267 219.357 6.114 219.525 6.254C219.693 6.394 219.898 6.49667 220.141 6.562C220.393 6.62733 220.743 6.702 221.191 6.786C221.788 6.88867 222.269 7.00067 222.633 7.122C223.006 7.234 223.324 7.43 223.585 7.71C223.846 7.99 223.977 8.382 223.977 8.886C223.977 9.558 223.688 10.0947 223.109 10.496C222.54 10.888 221.76 11.084 220.771 11.084ZM231.229 10.566C231.033 10.734 230.79 10.8647 230.501 10.958C230.211 11.042 229.913 11.084 229.605 11.084C228.858 11.084 228.279 10.8833 227.869 10.482C227.458 10.0807 227.253 9.50667 227.253 8.76V4.686H225.993V3.58H227.253V1.956H228.597V3.58H230.725V4.686H228.597V8.704C228.597 9.10533 228.695 9.41333 228.891 9.628C229.096 9.84267 229.385 9.95 229.759 9.95C230.169 9.95 230.519 9.83333 230.809 9.6L231.229 10.566ZM242.129 1.634C241.327 1.634 240.925 2.068 240.925 2.936V3.58H243.081V4.686H240.953V11H239.609V4.686H238.349V3.58H239.609V2.922C239.609 2.18467 239.824 1.60133 240.253 1.172C240.683 0.742666 241.285 0.528 242.059 0.528C242.358 0.528 242.638 0.565333 242.899 0.64C243.161 0.714666 243.385 0.821999 243.571 0.962L243.165 1.984C242.857 1.75067 242.512 1.634 242.129 1.634ZM252.665 3.58V11H251.391V9.88C251.12 10.2627 250.761 10.5613 250.313 10.776C249.874 10.9813 249.394 11.084 248.871 11.084C247.882 11.084 247.102 10.8133 246.533 10.272C245.964 9.72133 245.679 8.914 245.679 7.85V3.58H247.023V7.696C247.023 8.41467 247.196 8.96067 247.541 9.334C247.886 9.698 248.381 9.88 249.025 9.88C249.734 9.88 250.294 9.66533 250.705 9.236C251.116 8.80667 251.321 8.2 251.321 7.416V3.58H252.665ZM260.586 3.51C261.528 3.51 262.275 3.78533 262.826 4.336C263.386 4.87733 263.666 5.67533 263.666 6.73V11H262.322V6.884C262.322 6.16533 262.149 5.624 261.804 5.26C261.458 4.896 260.964 4.714 260.32 4.714C259.592 4.714 259.018 4.92867 258.598 5.358C258.178 5.778 257.968 6.38467 257.968 7.178V11H256.624V3.58H257.912V4.7C258.182 4.31733 258.546 4.02333 259.004 3.818C259.47 3.61267 259.998 3.51 260.586 3.51ZM267.875 11.084C267.614 11.084 267.39 10.9953 267.203 10.818C267.016 10.6313 266.923 10.398 266.923 10.118C266.923 9.84733 267.016 9.62333 267.203 9.446C267.39 9.25933 267.614 9.166 267.875 9.166C268.136 9.166 268.356 9.25467 268.533 9.432C268.71 9.60933 268.799 9.838 268.799 10.118C268.799 10.398 268.706 10.6313 268.519 10.818C268.342 10.9953 268.127 11.084 267.875 11.084Z" fill="black"/>
</svg>
