<svg width="467" height="110" viewBox="0 0 467 118" fill="none" xmlns="http://www.w3.org/2000/svg">
<g filter="url(#filter0_d)">
<rect x="24" y="25" width="11" height="81" fill="black"/>
</g>
<g filter="url(#filter1_d)">
<rect x="49" width="11" height="81" fill="black"/>
</g>
<g filter="url(#filter2_d)">
<rect width="11" height="81" fill="black"/>
</g>
<path d="M93.8264 56.288V65H90.2624V56.216L80.2544 39.8H84.1064L92.1704 53.084L100.27 39.8H103.834L93.8264 56.288ZM128.953 61.868V65H110.665V39.8H128.449V42.932H114.265V50.672H126.901V53.732H114.265V61.868H128.953ZM145.726 65.288C143.83 65.288 141.994 65 140.218 64.424C138.466 63.824 137.086 63.056 136.078 62.12L137.41 59.312C138.37 60.176 139.594 60.884 141.082 61.436C142.594 61.964 144.142 62.228 145.726 62.228C147.814 62.228 149.374 61.88 150.406 61.184C151.438 60.464 151.954 59.516 151.954 58.34C151.954 57.476 151.666 56.78 151.09 56.252C150.538 55.7 149.842 55.28 149.002 54.992C148.186 54.704 147.022 54.38 145.51 54.02C143.614 53.564 142.078 53.108 140.902 52.652C139.75 52.196 138.754 51.5 137.914 50.564C137.098 49.604 136.69 48.32 136.69 46.712C136.69 45.368 137.038 44.156 137.734 43.076C138.454 41.996 139.534 41.132 140.974 40.484C142.414 39.836 144.202 39.512 146.338 39.512C147.826 39.512 149.29 39.704 150.73 40.088C152.17 40.472 153.406 41.024 154.438 41.744L153.25 44.624C152.194 43.952 151.066 43.448 149.866 43.112C148.666 42.752 147.49 42.572 146.338 42.572C144.298 42.572 142.762 42.944 141.73 43.688C140.722 44.432 140.218 45.392 140.218 46.568C140.218 47.432 140.506 48.14 141.082 48.692C141.658 49.22 142.366 49.64 143.206 49.952C144.07 50.24 145.234 50.552 146.698 50.888C148.594 51.344 150.118 51.8 151.27 52.256C152.422 52.712 153.406 53.408 154.222 54.344C155.062 55.28 155.482 56.54 155.482 58.124C155.482 59.444 155.122 60.656 154.402 61.76C153.682 62.84 152.59 63.704 151.126 64.352C149.662 64.976 147.862 65.288 145.726 65.288ZM199.282 39.8V65H196.33L181.21 46.208V65H177.61V39.8H180.562L195.682 58.592V39.8H199.282ZM228.713 61.868V65H210.425V39.8H228.209V42.932H214.025V50.672H226.661V53.732H214.025V61.868H228.713ZM243.146 42.932H234.506V39.8H255.35V42.932H246.71V65H243.146V42.932ZM298.193 39.8L289.769 65H285.989L279.113 44.876L272.237 65H268.385L259.961 39.8H263.669L270.473 60.284L277.565 39.8H280.877L287.825 60.392L294.773 39.8H298.193ZM317.292 65.288C314.748 65.288 312.456 64.736 310.416 63.632C308.376 62.504 306.768 60.956 305.592 58.988C304.44 57.02 303.864 54.824 303.864 52.4C303.864 49.976 304.44 47.78 305.592 45.812C306.768 43.844 308.376 42.308 310.416 41.204C312.456 40.076 314.748 39.512 317.292 39.512C319.812 39.512 322.092 40.076 324.132 41.204C326.172 42.308 327.768 43.844 328.92 45.812C330.072 47.756 330.648 49.952 330.648 52.4C330.648 54.848 330.072 57.056 328.92 59.024C327.768 60.968 326.172 62.504 324.132 63.632C322.092 64.736 319.812 65.288 317.292 65.288ZM317.292 62.084C319.14 62.084 320.796 61.664 322.26 60.824C323.748 59.984 324.912 58.832 325.752 57.368C326.616 55.88 327.048 54.224 327.048 52.4C327.048 50.576 326.616 48.932 325.752 47.468C324.912 45.98 323.748 44.816 322.26 43.976C320.796 43.136 319.14 42.716 317.292 42.716C315.444 42.716 313.764 43.136 312.252 43.976C310.764 44.816 309.588 45.98 308.724 47.468C307.884 48.932 307.464 50.576 307.464 52.4C307.464 54.224 307.884 55.88 308.724 57.368C309.588 58.832 310.764 59.984 312.252 60.824C313.764 61.664 315.444 62.084 317.292 62.084ZM356.598 65L351.162 57.26C350.49 57.308 349.962 57.332 349.578 57.332H343.35V65H339.75V39.8H349.578C352.842 39.8 355.41 40.58 357.282 42.14C359.154 43.7 360.09 45.848 360.09 48.584C360.09 50.528 359.61 52.184 358.65 53.552C357.69 54.92 356.322 55.916 354.546 56.54L360.522 65H356.598ZM349.47 54.272C351.75 54.272 353.49 53.78 354.69 52.796C355.89 51.812 356.49 50.408 356.49 48.584C356.49 46.76 355.89 45.368 354.69 44.408C353.49 43.424 351.75 42.932 349.47 42.932H343.35V54.272H349.47ZM377.715 53.804L373.107 58.484V65H369.507V39.8H373.107V53.876L386.787 39.8H390.891L380.127 51.14L391.575 65H387.363L377.715 53.804Z" fill="black"/>
<defs>
<filter id="filter0_d" x="24" y="25" width="25" height="93" filterUnits="userSpaceOnUse" color-interpolation-filters="sRGB">
<feFlood flood-opacity="0" result="BackgroundImageFix"/>
<feColorMatrix in="SourceAlpha" type="matrix" values="0 0 0 0 0 0 0 0 0 0 0 0 0 0 0 0 0 0 127 0"/>
<feOffset dx="10" dy="8"/>
<feGaussianBlur stdDeviation="2"/>
<feColorMatrix type="matrix" values="0 0 0 0 0 0 0 0 0 0 0 0 0 0 0 0 0 0 0.1 0"/>
<feBlend mode="normal" in2="BackgroundImageFix" result="effect1_dropShadow"/>
<feBlend mode="normal" in="SourceGraphic" in2="effect1_dropShadow" result="shape"/>
</filter>
<filter id="filter1_d" x="49" y="0" width="25" height="93" filterUnits="userSpaceOnUse" color-interpolation-filters="sRGB">
<feFlood flood-opacity="0" result="BackgroundImageFix"/>
<feColorMatrix in="SourceAlpha" type="matrix" values="0 0 0 0 0 0 0 0 0 0 0 0 0 0 0 0 0 0 127 0"/>
<feOffset dx="10" dy="8"/>
<feGaussianBlur stdDeviation="2"/>
<feColorMatrix type="matrix" values="0 0 0 0 0 0 0 0 0 0 0 0 0 0 0 0 0 0 0.1 0"/>
<feBlend mode="normal" in2="BackgroundImageFix" result="effect1_dropShadow"/>
<feBlend mode="normal" in="SourceGraphic" in2="effect1_dropShadow" result="shape"/>
</filter>
<filter id="filter2_d" x="0" y="0" width="25" height="93" filterUnits="userSpaceOnUse" color-interpolation-filters="sRGB">
<feFlood flood-opacity="0" result="BackgroundImageFix"/>
<feColorMatrix in="SourceAlpha" type="matrix" values="0 0 0 0 0 0 0 0 0 0 0 0 0 0 0 0 0 0 127 0"/>
<feOffset dx="10" dy="8"/>
<feGaussianBlur stdDeviation="2"/>
<feColorMatrix type="matrix" values="0 0 0 0 0 0 0 0 0 0 0 0 0 0 0 0 0 0 0.1 0"/>
<feBlend mode="normal" in2="BackgroundImageFix" result="effect1_dropShadow"/>
<feBlend mode="normal" in="SourceGraphic" in2="effect1_dropShadow" result="shape"/>
</filter>
</defs>
</svg>
