<svg width="443" height="111" viewBox="0 0 443 111" fill="none" xmlns="http://www.w3.org/2000/svg">
<path d="M14.224 14.8H5.296L3.448 19H0.976L8.584 2.2H10.96L18.592 19H16.072L14.224 14.8ZM13.384 12.88L9.76 4.648L6.136 12.88H13.384ZM37.5514 19.144C36.2554 19.144 35.0954 18.864 34.0714 18.304C33.0634 17.744 32.2714 16.976 31.6954 16C31.1194 15.008 30.8314 13.888 30.8314 12.64C30.8314 11.392 31.1194 10.28 31.6954 9.304C32.2714 8.312 33.0634 7.544 34.0714 7C35.0954 6.44 36.2554 6.16 37.5514 6.16C38.7034 6.16 39.7274 6.392 40.6234 6.856C41.5354 7.32 42.2394 7.992 42.7354 8.872L40.9834 10C40.5834 9.392 40.0874 8.936 39.4954 8.632C38.9034 8.328 38.2474 8.176 37.5274 8.176C36.6954 8.176 35.9434 8.36 35.2714 8.728C34.6154 9.096 34.0954 9.624 33.7114 10.312C33.3434 10.984 33.1594 11.76 33.1594 12.64C33.1594 13.536 33.3434 14.328 33.7114 15.016C34.0954 15.688 34.6154 16.208 35.2714 16.576C35.9434 16.944 36.6954 17.128 37.5274 17.128C38.2474 17.128 38.9034 16.976 39.4954 16.672C40.0874 16.368 40.5834 15.912 40.9834 15.304L42.7354 16.408C42.2394 17.288 41.5354 17.968 40.6234 18.448C39.7274 18.912 38.7034 19.144 37.5514 19.144ZM53.3789 19.144C52.1149 19.144 50.9789 18.864 49.9709 18.304C48.9629 17.744 48.1709 16.976 47.5949 16C47.0349 15.008 46.7549 13.888 46.7549 12.64C46.7549 11.392 47.0349 10.28 47.5949 9.304C48.1709 8.312 48.9629 7.544 49.9709 7C50.9789 6.44 52.1149 6.16 53.3789 6.16C54.6429 6.16 55.7709 6.44 56.7629 7C57.7709 7.544 58.5549 8.312 59.1149 9.304C59.6909 10.28 59.9789 11.392 59.9789 12.64C59.9789 13.888 59.6909 15.008 59.1149 16C58.5549 16.976 57.7709 17.744 56.7629 18.304C55.7709 18.864 54.6429 19.144 53.3789 19.144ZM53.3789 17.128C54.1949 17.128 54.9229 16.944 55.5629 16.576C56.2189 16.192 56.7309 15.664 57.0989 14.992C57.4669 14.304 57.6509 13.52 57.6509 12.64C57.6509 11.76 57.4669 10.984 57.0989 10.312C56.7309 9.624 56.2189 9.096 55.5629 8.728C54.9229 8.36 54.1949 8.176 53.3789 8.176C52.5629 8.176 51.8269 8.36 51.1709 8.728C50.5309 9.096 50.0189 9.624 49.6349 10.312C49.2669 10.984 49.0829 11.76 49.0829 12.64C49.0829 13.52 49.2669 14.304 49.6349 14.992C50.0189 15.664 50.5309 16.192 51.1709 16.576C51.8269 16.944 52.5629 17.128 53.3789 17.128ZM81.4772 6.16C83.0772 6.16 84.3412 6.624 85.2692 7.552C86.2133 8.48 86.6853 9.856 86.6853 11.68V19H84.3812V11.944C84.3812 10.712 84.0932 9.784 83.5172 9.16C82.9572 8.536 82.1492 8.224 81.0932 8.224C79.9252 8.224 78.9972 8.592 78.3092 9.328C77.6212 10.048 77.2772 11.088 77.2772 12.448V19H74.9732V11.944C74.9732 10.712 74.6852 9.784 74.1092 9.16C73.5492 8.536 72.7412 8.224 71.6852 8.224C70.5172 8.224 69.5892 8.592 68.9012 9.328C68.2132 10.048 67.8692 11.088 67.8692 12.448V19H65.5652V6.28H67.7732V8.176C68.2372 7.52 68.8452 7.024 69.5972 6.688C70.3492 6.336 71.2052 6.16 72.1652 6.16C73.1572 6.16 74.0372 6.36 74.8052 6.76C75.5732 7.16 76.1652 7.744 76.5812 8.512C77.0612 7.776 77.7252 7.2 78.5732 6.784C79.4372 6.368 80.4052 6.16 81.4772 6.16ZM109.237 6.16C110.837 6.16 112.101 6.624 113.029 7.552C113.973 8.48 114.445 9.856 114.445 11.68V19H112.141V11.944C112.141 10.712 111.853 9.784 111.277 9.16C110.717 8.536 109.909 8.224 108.853 8.224C107.685 8.224 106.757 8.592 106.069 9.328C105.381 10.048 105.037 11.088 105.037 12.448V19H102.733V11.944C102.733 10.712 102.445 9.784 101.869 9.16C101.309 8.536 100.501 8.224 99.4446 8.224C98.2766 8.224 97.3486 8.592 96.6606 9.328C95.9726 10.048 95.6286 11.088 95.6286 12.448V19H93.3246V6.28H95.5326V8.176C95.9966 7.52 96.6046 7.024 97.3566 6.688C98.1086 6.336 98.9646 6.16 99.9246 6.16C100.917 6.16 101.797 6.36 102.565 6.76C103.333 7.16 103.925 7.744 104.341 8.512C104.821 7.776 105.485 7.2 106.333 6.784C107.197 6.368 108.165 6.16 109.237 6.16ZM132.94 6.28V19H130.756V17.08C130.292 17.736 129.676 18.248 128.908 18.616C128.156 18.968 127.332 19.144 126.436 19.144C124.74 19.144 123.404 18.68 122.428 17.752C121.452 16.808 120.964 15.424 120.964 13.6V6.28H123.268V13.336C123.268 14.568 123.564 15.504 124.156 16.144C124.748 16.768 125.596 17.08 126.7 17.08C127.916 17.08 128.876 16.712 129.58 15.976C130.284 15.24 130.636 14.2 130.636 12.856V6.28H132.94ZM146.518 6.16C148.134 6.16 149.414 6.632 150.358 7.576C151.318 8.504 151.798 9.872 151.798 11.68V19H149.494V11.944C149.494 10.712 149.198 9.784 148.606 9.16C148.014 8.536 147.166 8.224 146.062 8.224C144.814 8.224 143.83 8.592 143.11 9.328C142.39 10.048 142.03 11.088 142.03 12.448V19H139.726V6.28H141.934V8.2C142.398 7.544 143.022 7.04 143.806 6.688C144.606 6.336 145.51 6.16 146.518 6.16ZM158.462 6.28H160.766V19H158.462V6.28ZM159.614 3.832C159.166 3.832 158.79 3.688 158.486 3.4C158.198 3.112 158.054 2.76 158.054 2.344C158.054 1.928 158.198 1.576 158.486 1.288C158.79 0.983999 159.166 0.831999 159.614 0.831999C160.062 0.831999 160.43 0.975999 160.718 1.264C161.022 1.536 161.174 1.88 161.174 2.296C161.174 2.728 161.022 3.096 160.718 3.4C160.43 3.688 160.062 3.832 159.614 3.832ZM174.717 18.256C174.381 18.544 173.965 18.768 173.469 18.928C172.973 19.072 172.461 19.144 171.933 19.144C170.653 19.144 169.661 18.8 168.957 18.112C168.253 17.424 167.901 16.44 167.901 15.16V8.176H165.741V6.28H167.901V3.496H170.205V6.28H173.853V8.176H170.205V15.064C170.205 15.752 170.373 16.28 170.709 16.648C171.061 17.016 171.557 17.2 172.197 17.2C172.901 17.2 173.501 17 173.997 16.6L174.717 18.256ZM190.924 6.28L184.756 20.272C184.212 21.568 183.572 22.48 182.836 23.008C182.116 23.536 181.244 23.8 180.22 23.8C179.596 23.8 178.988 23.696 178.396 23.488C177.82 23.296 177.34 23.008 176.956 22.624L177.94 20.896C178.596 21.52 179.356 21.832 180.22 21.832C180.78 21.832 181.244 21.68 181.612 21.376C181.996 21.088 182.34 20.584 182.644 19.864L183.052 18.976L177.436 6.28H179.836L184.276 16.456L188.668 6.28H190.924ZM211.064 6.16C212.296 6.16 213.4 6.432 214.376 6.976C215.352 7.52 216.112 8.28 216.656 9.256C217.216 10.232 217.496 11.36 217.496 12.64C217.496 13.92 217.216 15.056 216.656 16.048C216.112 17.024 215.352 17.784 214.376 18.328C213.4 18.872 212.296 19.144 211.064 19.144C210.12 19.144 209.256 18.96 208.472 18.592C207.688 18.224 207.04 17.688 206.528 16.984V19H204.32V1.192H206.624V8.2C207.136 7.528 207.776 7.024 208.544 6.688C209.312 6.336 210.152 6.16 211.064 6.16ZM210.872 17.128C211.688 17.128 212.416 16.944 213.056 16.576C213.712 16.192 214.224 15.664 214.592 14.992C214.976 14.304 215.168 13.52 215.168 12.64C215.168 11.76 214.976 10.984 214.592 10.312C214.224 9.624 213.712 9.096 213.056 8.728C212.416 8.36 211.688 8.176 210.872 8.176C210.072 8.176 209.344 8.36 208.688 8.728C208.032 9.096 207.52 9.624 207.152 10.312C206.784 10.984 206.6 11.76 206.6 12.64C206.6 13.52 206.784 14.304 207.152 14.992C207.52 15.664 208.032 16.192 208.688 16.576C209.344 16.944 210.072 17.128 210.872 17.128ZM234.935 6.28V19H232.751V17.08C232.287 17.736 231.671 18.248 230.903 18.616C230.151 18.968 229.327 19.144 228.431 19.144C226.735 19.144 225.399 18.68 224.423 17.752C223.447 16.808 222.959 15.424 222.959 13.6V6.28H225.263V13.336C225.263 14.568 225.559 15.504 226.151 16.144C226.743 16.768 227.591 17.08 228.695 17.08C229.911 17.08 230.871 16.712 231.575 15.976C232.279 15.24 232.631 14.2 232.631 12.856V6.28H234.935ZM241.722 6.28H244.026V19H241.722V6.28ZM242.874 3.832C242.426 3.832 242.05 3.688 241.746 3.4C241.458 3.112 241.314 2.76 241.314 2.344C241.314 1.928 241.458 1.576 241.746 1.288C242.05 0.983999 242.426 0.831999 242.874 0.831999C243.322 0.831999 243.69 0.975999 243.978 1.264C244.282 1.536 244.434 1.88 244.434 2.296C244.434 2.728 244.282 3.096 243.978 3.4C243.69 3.688 243.322 3.832 242.874 3.832ZM250.825 1.192H253.129V19H250.825V1.192ZM271.928 1.192V19H269.72V16.984C269.208 17.688 268.56 18.224 267.776 18.592C266.992 18.96 266.128 19.144 265.184 19.144C263.952 19.144 262.848 18.872 261.872 18.328C260.896 17.784 260.128 17.024 259.568 16.048C259.024 15.056 258.752 13.92 258.752 12.64C258.752 11.36 259.024 10.232 259.568 9.256C260.128 8.28 260.896 7.52 261.872 6.976C262.848 6.432 263.952 6.16 265.184 6.16C266.096 6.16 266.936 6.336 267.704 6.688C268.472 7.024 269.112 7.528 269.624 8.2V1.192H271.928ZM265.376 17.128C266.176 17.128 266.904 16.944 267.56 16.576C268.216 16.192 268.728 15.664 269.096 14.992C269.464 14.304 269.648 13.52 269.648 12.64C269.648 11.76 269.464 10.984 269.096 10.312C268.728 9.624 268.216 9.096 267.56 8.728C266.904 8.36 266.176 8.176 265.376 8.176C264.56 8.176 263.824 8.36 263.168 8.728C262.528 9.096 262.016 9.624 261.632 10.312C261.264 10.984 261.08 11.76 261.08 12.64C261.08 13.52 261.264 14.304 261.632 14.992C262.016 15.664 262.528 16.192 263.168 16.576C263.824 16.944 264.56 17.128 265.376 17.128ZM294.276 6.16C295.508 6.16 296.612 6.432 297.588 6.976C298.564 7.52 299.324 8.28 299.868 9.256C300.428 10.232 300.708 11.36 300.708 12.64C300.708 13.92 300.428 15.056 299.868 16.048C299.324 17.024 298.564 17.784 297.588 18.328C296.612 18.872 295.508 19.144 294.276 19.144C293.332 19.144 292.468 18.96 291.684 18.592C290.9 18.224 290.252 17.688 289.74 16.984V19H287.532V1.192H289.836V8.2C290.348 7.528 290.988 7.024 291.756 6.688C292.524 6.336 293.364 6.16 294.276 6.16ZM294.084 17.128C294.9 17.128 295.628 16.944 296.268 16.576C296.924 16.192 297.436 15.664 297.804 14.992C298.188 14.304 298.38 13.52 298.38 12.64C298.38 11.76 298.188 10.984 297.804 10.312C297.436 9.624 296.924 9.096 296.268 8.728C295.628 8.36 294.9 8.176 294.084 8.176C293.284 8.176 292.556 8.36 291.9 8.728C291.244 9.096 290.732 9.624 290.364 10.312C289.996 10.984 289.812 11.76 289.812 12.64C289.812 13.52 289.996 14.304 290.364 14.992C290.732 15.664 291.244 16.192 291.9 16.576C292.556 16.944 293.284 17.128 294.084 17.128ZM317.196 6.28L311.028 20.272C310.484 21.568 309.844 22.48 309.108 23.008C308.388 23.536 307.516 23.8 306.492 23.8C305.868 23.8 305.26 23.696 304.668 23.488C304.092 23.296 303.612 23.008 303.228 22.624L304.212 20.896C304.868 21.52 305.628 21.832 306.492 21.832C307.052 21.832 307.516 21.68 307.884 21.376C308.268 21.088 308.612 20.584 308.916 19.864L309.324 18.976L303.708 6.28H306.108L310.548 16.456L314.94 6.28H317.196ZM3.52 31.2H10.6C12.376 31.2 13.952 31.552 15.328 32.256C16.704 32.96 17.768 33.952 18.52 35.232C19.288 36.496 19.672 37.952 19.672 39.6C19.672 41.248 19.288 42.712 18.52 43.992C17.768 45.256 16.704 46.24 15.328 46.944C13.952 47.648 12.376 48 10.6 48H3.52V31.2ZM10.456 45.912C11.816 45.912 13.008 45.648 14.032 45.12C15.072 44.592 15.872 43.856 16.432 42.912C16.992 41.952 17.272 40.848 17.272 39.6C17.272 38.352 16.992 37.256 16.432 36.312C15.872 35.352 15.072 34.608 14.032 34.08C13.008 33.552 11.816 33.288 10.456 33.288H5.92V45.912H10.456ZM36.9081 41.712C36.9081 41.888 36.8921 42.12 36.8601 42.408H26.5401C26.6841 43.528 27.1721 44.432 28.0041 45.12C28.8521 45.792 29.9001 46.128 31.1481 46.128C32.6681 46.128 33.8921 45.616 34.8201 44.592L36.0921 46.08C35.5161 46.752 34.7961 47.264 33.9321 47.616C33.0841 47.968 32.1321 48.144 31.0761 48.144C29.7321 48.144 28.5401 47.872 27.5001 47.328C26.4601 46.768 25.6521 45.992 25.0761 45C24.5161 44.008 24.2361 42.888 24.2361 41.64C24.2361 40.408 24.5081 39.296 25.0521 38.304C25.6121 37.312 26.3721 36.544 27.3321 36C28.3081 35.44 29.4041 35.16 30.6201 35.16C31.8361 35.16 32.9161 35.44 33.8601 36C34.8201 36.544 35.5641 37.312 36.0921 38.304C36.6361 39.296 36.9081 40.432 36.9081 41.712ZM30.6201 37.104C29.5161 37.104 28.5881 37.44 27.8361 38.112C27.1001 38.784 26.6681 39.664 26.5401 40.752H34.7001C34.5721 39.68 34.1321 38.808 33.3801 38.136C32.6441 37.448 31.7241 37.104 30.6201 37.104ZM53.5291 35.28L47.9611 48H45.6091L40.0411 35.28H42.4411L46.8091 45.48L51.2731 35.28H53.5291ZM69.2238 41.712C69.2238 41.888 69.2078 42.12 69.1758 42.408H58.8558C58.9998 43.528 59.4878 44.432 60.3198 45.12C61.1678 45.792 62.2158 46.128 63.4638 46.128C64.9838 46.128 66.2078 45.616 67.1358 44.592L68.4078 46.08C67.8318 46.752 67.1118 47.264 66.2478 47.616C65.3998 47.968 64.4478 48.144 63.3918 48.144C62.0478 48.144 60.8558 47.872 59.8158 47.328C58.7758 46.768 57.9678 45.992 57.3918 45C56.8318 44.008 56.5518 42.888 56.5518 41.64C56.5518 40.408 56.8238 39.296 57.3678 38.304C57.9278 37.312 58.6878 36.544 59.6478 36C60.6238 35.44 61.7198 35.16 62.9358 35.16C64.1518 35.16 65.2318 35.44 66.1758 36C67.1358 36.544 67.8798 37.312 68.4078 38.304C68.9518 39.296 69.2238 40.432 69.2238 41.712ZM62.9358 37.104C61.8318 37.104 60.9038 37.44 60.1518 38.112C59.4158 38.784 58.9838 39.664 58.8558 40.752H67.0158C66.8878 39.68 66.4478 38.808 65.6958 38.136C64.9598 37.448 64.0398 37.104 62.9358 37.104ZM74.8231 30.192H77.1271V48H74.8231V30.192ZM89.3742 48.144C88.1102 48.144 86.9742 47.864 85.9662 47.304C84.9582 46.744 84.1662 45.976 83.5902 45C83.0302 44.008 82.7502 42.888 82.7502 41.64C82.7502 40.392 83.0302 39.28 83.5902 38.304C84.1662 37.312 84.9582 36.544 85.9662 36C86.9742 35.44 88.1102 35.16 89.3742 35.16C90.6382 35.16 91.7662 35.44 92.7582 36C93.7662 36.544 94.5502 37.312 95.1102 38.304C95.6862 39.28 95.9742 40.392 95.9742 41.64C95.9742 42.888 95.6862 44.008 95.1102 45C94.5502 45.976 93.7662 46.744 92.7582 47.304C91.7662 47.864 90.6382 48.144 89.3742 48.144ZM89.3742 46.128C90.1902 46.128 90.9182 45.944 91.5582 45.576C92.2142 45.192 92.7262 44.664 93.0942 43.992C93.4622 43.304 93.6462 42.52 93.6462 41.64C93.6462 40.76 93.4622 39.984 93.0942 39.312C92.7262 38.624 92.2142 38.096 91.5582 37.728C90.9182 37.36 90.1902 37.176 89.3742 37.176C88.5582 37.176 87.8222 37.36 87.1662 37.728C86.5262 38.096 86.0142 38.624 85.6302 39.312C85.2622 39.984 85.0782 40.76 85.0782 41.64C85.0782 42.52 85.2622 43.304 85.6302 43.992C86.0142 44.664 86.5262 45.192 87.1662 45.576C87.8222 45.944 88.5582 46.128 89.3742 46.128ZM108.305 35.16C109.537 35.16 110.641 35.432 111.617 35.976C112.593 36.52 113.353 37.28 113.897 38.256C114.457 39.232 114.737 40.36 114.737 41.64C114.737 42.92 114.457 44.056 113.897 45.048C113.353 46.024 112.593 46.784 111.617 47.328C110.641 47.872 109.537 48.144 108.305 48.144C107.393 48.144 106.553 47.968 105.785 47.616C105.033 47.264 104.393 46.752 103.865 46.08V52.656H101.561V35.28H103.769V37.296C104.281 36.592 104.929 36.064 105.713 35.712C106.497 35.344 107.361 35.16 108.305 35.16ZM108.113 46.128C108.929 46.128 109.657 45.944 110.297 45.576C110.953 45.192 111.465 44.664 111.833 43.992C112.217 43.304 112.409 42.52 112.409 41.64C112.409 40.76 112.217 39.984 111.833 39.312C111.465 38.624 110.953 38.096 110.297 37.728C109.657 37.36 108.929 37.176 108.113 37.176C107.313 37.176 106.585 37.368 105.929 37.752C105.289 38.12 104.777 38.64 104.393 39.312C104.025 39.984 103.841 40.76 103.841 41.64C103.841 42.52 104.025 43.304 104.393 43.992C104.761 44.664 105.273 45.192 105.929 45.576C106.585 45.944 107.313 46.128 108.113 46.128ZM131.816 41.712C131.816 41.888 131.8 42.12 131.768 42.408H121.448C121.592 43.528 122.08 44.432 122.912 45.12C123.76 45.792 124.808 46.128 126.056 46.128C127.576 46.128 128.8 45.616 129.728 44.592L131 46.08C130.424 46.752 129.704 47.264 128.84 47.616C127.992 47.968 127.04 48.144 125.984 48.144C124.64 48.144 123.448 47.872 122.408 47.328C121.368 46.768 120.56 45.992 119.984 45C119.424 44.008 119.144 42.888 119.144 41.64C119.144 40.408 119.416 39.296 119.96 38.304C120.52 37.312 121.28 36.544 122.24 36C123.216 35.44 124.312 35.16 125.528 35.16C126.744 35.16 127.824 35.44 128.768 36C129.728 36.544 130.472 37.312 131 38.304C131.544 39.296 131.816 40.432 131.816 41.712ZM125.528 37.104C124.424 37.104 123.496 37.44 122.744 38.112C122.008 38.784 121.576 39.664 121.448 40.752H129.608C129.48 39.68 129.04 38.808 128.288 38.136C127.552 37.448 126.632 37.104 125.528 37.104ZM139.623 37.416C140.023 36.68 140.615 36.12 141.399 35.736C142.183 35.352 143.135 35.16 144.255 35.16V37.392C144.127 37.376 143.951 37.368 143.727 37.368C142.479 37.368 141.495 37.744 140.775 38.496C140.071 39.232 139.719 40.288 139.719 41.664V48H137.415V35.28H139.623V37.416ZM153.237 48.144C152.197 48.144 151.197 48.008 150.237 47.736C149.277 47.448 148.525 47.088 147.981 46.656L148.941 44.832C149.501 45.232 150.181 45.552 150.981 45.792C151.781 46.032 152.589 46.152 153.405 46.152C155.421 46.152 156.429 45.576 156.429 44.424C156.429 44.04 156.293 43.736 156.021 43.512C155.749 43.288 155.405 43.128 154.989 43.032C154.589 42.92 154.013 42.8 153.261 42.672C152.237 42.512 151.397 42.328 150.741 42.12C150.101 41.912 149.549 41.56 149.085 41.064C148.621 40.568 148.389 39.872 148.389 38.976C148.389 37.824 148.869 36.904 149.829 36.216C150.789 35.512 152.077 35.16 153.693 35.16C154.541 35.16 155.389 35.264 156.237 35.472C157.085 35.68 157.781 35.96 158.325 36.312L157.341 38.136C156.301 37.464 155.077 37.128 153.669 37.128C152.693 37.128 151.949 37.288 151.437 37.608C150.925 37.928 150.669 38.352 150.669 38.88C150.669 39.296 150.813 39.624 151.101 39.864C151.389 40.104 151.741 40.28 152.157 40.392C152.589 40.504 153.189 40.632 153.957 40.776C154.981 40.952 155.805 41.144 156.429 41.352C157.069 41.544 157.613 41.88 158.061 42.36C158.509 42.84 158.733 43.512 158.733 44.376C158.733 45.528 158.237 46.448 157.245 47.136C156.269 47.808 154.933 48.144 153.237 48.144ZM177.513 31.944C176.137 31.944 175.449 32.688 175.449 34.176V35.28H179.145V37.176H175.497V48H173.193V37.176H171.033V35.28H173.193V34.152C173.193 32.888 173.561 31.888 174.297 31.152C175.033 30.416 176.065 30.048 177.393 30.048C177.905 30.048 178.385 30.112 178.833 30.24C179.281 30.368 179.665 30.552 179.985 30.792L179.289 32.544C178.761 32.144 178.169 31.944 177.513 31.944ZM188.979 48.144C187.715 48.144 186.579 47.864 185.571 47.304C184.563 46.744 183.771 45.976 183.195 45C182.635 44.008 182.355 42.888 182.355 41.64C182.355 40.392 182.635 39.28 183.195 38.304C183.771 37.312 184.563 36.544 185.571 36C186.579 35.44 187.715 35.16 188.979 35.16C190.243 35.16 191.371 35.44 192.363 36C193.371 36.544 194.155 37.312 194.715 38.304C195.291 39.28 195.579 40.392 195.579 41.64C195.579 42.888 195.291 44.008 194.715 45C194.155 45.976 193.371 46.744 192.363 47.304C191.371 47.864 190.243 48.144 188.979 48.144ZM188.979 46.128C189.795 46.128 190.523 45.944 191.163 45.576C191.819 45.192 192.331 44.664 192.699 43.992C193.067 43.304 193.251 42.52 193.251 41.64C193.251 40.76 193.067 39.984 192.699 39.312C192.331 38.624 191.819 38.096 191.163 37.728C190.523 37.36 189.795 37.176 188.979 37.176C188.163 37.176 187.427 37.36 186.771 37.728C186.131 38.096 185.619 38.624 185.235 39.312C184.867 39.984 184.683 40.76 184.683 41.64C184.683 42.52 184.867 43.304 185.235 43.992C185.619 44.664 186.131 45.192 186.771 45.576C187.427 45.944 188.163 46.128 188.979 46.128ZM203.373 37.416C203.773 36.68 204.365 36.12 205.149 35.736C205.933 35.352 206.885 35.16 208.005 35.16V37.392C207.877 37.376 207.701 37.368 207.477 37.368C206.229 37.368 205.245 37.744 204.525 38.496C203.821 39.232 203.469 40.288 203.469 41.664V48H201.165V35.28H203.373V37.416ZM229.406 47.256C229.07 47.544 228.654 47.768 228.158 47.928C227.662 48.072 227.15 48.144 226.622 48.144C225.342 48.144 224.35 47.8 223.646 47.112C222.942 46.424 222.59 45.44 222.59 44.16V37.176H220.43V35.28H222.59V32.496H224.894V35.28H228.542V37.176H224.894V44.064C224.894 44.752 225.062 45.28 225.398 45.648C225.75 46.016 226.246 46.2 226.886 46.2C227.59 46.2 228.19 46 228.686 45.6L229.406 47.256ZM241.384 35.16C243 35.16 244.28 35.632 245.224 36.576C246.184 37.504 246.664 38.872 246.664 40.68V48H244.36V40.944C244.36 39.712 244.064 38.784 243.472 38.16C242.88 37.536 242.032 37.224 240.928 37.224C239.68 37.224 238.696 37.592 237.976 38.328C237.256 39.048 236.896 40.088 236.896 41.448V48H234.592V30.192H236.896V37.08C237.376 36.472 238 36 238.768 35.664C239.552 35.328 240.424 35.16 241.384 35.16ZM264.894 41.712C264.894 41.888 264.878 42.12 264.846 42.408H254.526C254.67 43.528 255.158 44.432 255.99 45.12C256.838 45.792 257.886 46.128 259.134 46.128C260.654 46.128 261.878 45.616 262.806 44.592L264.078 46.08C263.502 46.752 262.782 47.264 261.918 47.616C261.07 47.968 260.118 48.144 259.062 48.144C257.718 48.144 256.526 47.872 255.486 47.328C254.446 46.768 253.638 45.992 253.062 45C252.502 44.008 252.222 42.888 252.222 41.64C252.222 40.408 252.494 39.296 253.038 38.304C253.598 37.312 254.358 36.544 255.318 36C256.294 35.44 257.39 35.16 258.606 35.16C259.822 35.16 260.902 35.44 261.846 36C262.806 36.544 263.55 37.312 264.078 38.304C264.622 39.296 264.894 40.432 264.894 41.712ZM258.606 37.104C257.502 37.104 256.574 37.44 255.822 38.112C255.086 38.784 254.654 39.664 254.526 40.752H262.686C262.558 39.68 262.118 38.808 261.366 38.136C260.63 37.448 259.71 37.104 258.606 37.104ZM279.675 31.2H286.755C288.531 31.2 290.107 31.552 291.483 32.256C292.859 32.96 293.923 33.952 294.675 35.232C295.443 36.496 295.827 37.952 295.827 39.6C295.827 41.248 295.443 42.712 294.675 43.992C293.923 45.256 292.859 46.24 291.483 46.944C290.107 47.648 288.531 48 286.755 48H279.675V31.2ZM286.611 45.912C287.971 45.912 289.163 45.648 290.187 45.12C291.227 44.592 292.027 43.856 292.587 42.912C293.147 41.952 293.427 40.848 293.427 39.6C293.427 38.352 293.147 37.256 292.587 36.312C292.027 35.352 291.227 34.608 290.187 34.08C289.163 33.552 287.971 33.288 286.611 33.288H282.075V45.912H286.611ZM313.063 41.712C313.063 41.888 313.047 42.12 313.015 42.408H302.695C302.839 43.528 303.327 44.432 304.159 45.12C305.007 45.792 306.055 46.128 307.303 46.128C308.823 46.128 310.047 45.616 310.975 44.592L312.247 46.08C311.671 46.752 310.951 47.264 310.087 47.616C309.239 47.968 308.287 48.144 307.231 48.144C305.887 48.144 304.695 47.872 303.655 47.328C302.615 46.768 301.807 45.992 301.231 45C300.671 44.008 300.391 42.888 300.391 41.64C300.391 40.408 300.663 39.296 301.207 38.304C301.767 37.312 302.527 36.544 303.487 36C304.463 35.44 305.559 35.16 306.775 35.16C307.991 35.16 309.071 35.44 310.015 36C310.975 36.544 311.719 37.312 312.247 38.304C312.791 39.296 313.063 40.432 313.063 41.712ZM306.775 37.104C305.671 37.104 304.743 37.44 303.991 38.112C303.255 38.784 302.823 39.664 302.695 40.752H310.855C310.727 39.68 310.287 38.808 309.535 38.136C308.799 37.448 307.879 37.104 306.775 37.104ZM329.684 35.28L324.116 48H321.764L316.196 35.28H318.596L322.964 45.48L327.428 35.28H329.684ZM345.378 41.712C345.378 41.888 345.362 42.12 345.33 42.408H335.01C335.154 43.528 335.642 44.432 336.474 45.12C337.322 45.792 338.37 46.128 339.618 46.128C341.138 46.128 342.362 45.616 343.29 44.592L344.562 46.08C343.986 46.752 343.266 47.264 342.402 47.616C341.554 47.968 340.602 48.144 339.546 48.144C338.202 48.144 337.01 47.872 335.97 47.328C334.93 46.768 334.122 45.992 333.546 45C332.986 44.008 332.706 42.888 332.706 41.64C332.706 40.408 332.978 39.296 333.522 38.304C334.082 37.312 334.842 36.544 335.802 36C336.778 35.44 337.874 35.16 339.09 35.16C340.306 35.16 341.386 35.44 342.33 36C343.29 36.544 344.034 37.312 344.562 38.304C345.106 39.296 345.378 40.432 345.378 41.712ZM339.09 37.104C337.986 37.104 337.058 37.44 336.306 38.112C335.57 38.784 335.138 39.664 335.01 40.752H343.17C343.042 39.68 342.602 38.808 341.85 38.136C341.114 37.448 340.194 37.104 339.09 37.104ZM350.978 30.192H353.282V48H350.978V30.192ZM365.529 48.144C364.265 48.144 363.129 47.864 362.121 47.304C361.113 46.744 360.321 45.976 359.745 45C359.185 44.008 358.905 42.888 358.905 41.64C358.905 40.392 359.185 39.28 359.745 38.304C360.321 37.312 361.113 36.544 362.121 36C363.129 35.44 364.265 35.16 365.529 35.16C366.793 35.16 367.921 35.44 368.913 36C369.921 36.544 370.705 37.312 371.265 38.304C371.841 39.28 372.129 40.392 372.129 41.64C372.129 42.888 371.841 44.008 371.265 45C370.705 45.976 369.921 46.744 368.913 47.304C367.921 47.864 366.793 48.144 365.529 48.144ZM365.529 46.128C366.345 46.128 367.073 45.944 367.713 45.576C368.369 45.192 368.881 44.664 369.249 43.992C369.617 43.304 369.801 42.52 369.801 41.64C369.801 40.76 369.617 39.984 369.249 39.312C368.881 38.624 368.369 38.096 367.713 37.728C367.073 37.36 366.345 37.176 365.529 37.176C364.713 37.176 363.977 37.36 363.321 37.728C362.681 38.096 362.169 38.624 361.785 39.312C361.417 39.984 361.233 40.76 361.233 41.64C361.233 42.52 361.417 43.304 361.785 43.992C362.169 44.664 362.681 45.192 363.321 45.576C363.977 45.944 364.713 46.128 365.529 46.128ZM384.459 35.16C385.691 35.16 386.795 35.432 387.771 35.976C388.747 36.52 389.507 37.28 390.051 38.256C390.611 39.232 390.891 40.36 390.891 41.64C390.891 42.92 390.611 44.056 390.051 45.048C389.507 46.024 388.747 46.784 387.771 47.328C386.795 47.872 385.691 48.144 384.459 48.144C383.547 48.144 382.707 47.968 381.939 47.616C381.187 47.264 380.547 46.752 380.019 46.08V52.656H377.715V35.28H379.923V37.296C380.435 36.592 381.083 36.064 381.867 35.712C382.651 35.344 383.515 35.16 384.459 35.16ZM384.267 46.128C385.083 46.128 385.811 45.944 386.451 45.576C387.107 45.192 387.619 44.664 387.987 43.992C388.371 43.304 388.563 42.52 388.563 41.64C388.563 40.76 388.371 39.984 387.987 39.312C387.619 38.624 387.107 38.096 386.451 37.728C385.811 37.36 385.083 37.176 384.267 37.176C383.467 37.176 382.739 37.368 382.083 37.752C381.443 38.12 380.931 38.64 380.547 39.312C380.179 39.984 379.995 40.76 379.995 41.64C379.995 42.52 380.179 43.304 380.547 43.992C380.915 44.664 381.427 45.192 382.083 45.576C382.739 45.944 383.467 46.128 384.267 46.128ZM407.971 41.712C407.971 41.888 407.955 42.12 407.923 42.408H397.603C397.747 43.528 398.235 44.432 399.067 45.12C399.915 45.792 400.963 46.128 402.211 46.128C403.731 46.128 404.955 45.616 405.883 44.592L407.155 46.08C406.579 46.752 405.859 47.264 404.995 47.616C404.147 47.968 403.195 48.144 402.139 48.144C400.795 48.144 399.603 47.872 398.563 47.328C397.523 46.768 396.715 45.992 396.139 45C395.579 44.008 395.299 42.888 395.299 41.64C395.299 40.408 395.571 39.296 396.115 38.304C396.675 37.312 397.435 36.544 398.395 36C399.371 35.44 400.467 35.16 401.683 35.16C402.899 35.16 403.979 35.44 404.923 36C405.883 36.544 406.627 37.312 407.155 38.304C407.699 39.296 407.971 40.432 407.971 41.712ZM401.683 37.104C400.579 37.104 399.651 37.44 398.899 38.112C398.163 38.784 397.731 39.664 397.603 40.752H405.763C405.635 39.68 405.195 38.808 404.443 38.136C403.707 37.448 402.787 37.104 401.683 37.104ZM415.778 37.416C416.178 36.68 416.77 36.12 417.554 35.736C418.338 35.352 419.29 35.16 420.41 35.16V37.392C420.282 37.376 420.106 37.368 419.882 37.368C418.634 37.368 417.65 37.744 416.93 38.496C416.226 39.232 415.874 40.288 415.874 41.664V48H413.57V35.28H415.778V37.416ZM429.391 48.144C428.351 48.144 427.351 48.008 426.391 47.736C425.431 47.448 424.679 47.088 424.135 46.656L425.095 44.832C425.655 45.232 426.335 45.552 427.135 45.792C427.935 46.032 428.743 46.152 429.559 46.152C431.575 46.152 432.583 45.576 432.583 44.424C432.583 44.04 432.447 43.736 432.175 43.512C431.903 43.288 431.559 43.128 431.143 43.032C430.743 42.92 430.167 42.8 429.415 42.672C428.391 42.512 427.551 42.328 426.895 42.12C426.255 41.912 425.703 41.56 425.239 41.064C424.775 40.568 424.543 39.872 424.543 38.976C424.543 37.824 425.023 36.904 425.983 36.216C426.943 35.512 428.231 35.16 429.847 35.16C430.695 35.16 431.543 35.264 432.391 35.472C433.239 35.68 433.935 35.96 434.479 36.312L433.495 38.136C432.455 37.464 431.231 37.128 429.823 37.128C428.847 37.128 428.103 37.288 427.591 37.608C427.079 37.928 426.823 38.352 426.823 38.88C426.823 39.296 426.967 39.624 427.255 39.864C427.543 40.104 427.895 40.28 428.311 40.392C428.743 40.504 429.343 40.632 430.111 40.776C431.135 40.952 431.959 41.144 432.583 41.352C433.223 41.544 433.767 41.88 434.215 42.36C434.663 42.84 434.887 43.512 434.887 44.376C434.887 45.528 434.391 46.448 433.399 47.136C432.423 47.808 431.087 48.144 429.391 48.144ZM440.719 48.144C440.271 48.144 439.887 47.992 439.567 47.688C439.247 47.368 439.087 46.968 439.087 46.488C439.087 46.024 439.247 45.64 439.567 45.336C439.887 45.016 440.271 44.856 440.719 44.856C441.167 44.856 441.543 45.008 441.847 45.312C442.151 45.616 442.303 46.008 442.303 46.488C442.303 46.968 442.143 47.368 441.823 47.688C441.519 47.992 441.151 48.144 440.719 48.144ZM11.104 77.192C9.408 77.192 7.88 76.824 6.52 76.088C5.16 75.336 4.088 74.304 3.304 72.992C2.536 71.68 2.152 70.216 2.152 68.6C2.152 66.984 2.536 65.52 3.304 64.208C4.088 62.896 5.16 61.872 6.52 61.136C7.88 60.384 9.408 60.008 11.104 60.008C12.784 60.008 14.304 60.384 15.664 61.136C17.024 61.872 18.088 62.896 18.856 64.208C19.624 65.504 20.008 66.968 20.008 68.6C20.008 70.232 19.624 71.704 18.856 73.016C18.088 74.312 17.024 75.336 15.664 76.088C14.304 76.824 12.784 77.192 11.104 77.192ZM11.104 75.056C12.336 75.056 13.44 74.776 14.416 74.216C15.408 73.656 16.184 72.888 16.744 71.912C17.32 70.92 17.608 69.816 17.608 68.6C17.608 67.384 17.32 66.288 16.744 65.312C16.184 64.32 15.408 63.544 14.416 62.984C13.44 62.424 12.336 62.144 11.104 62.144C9.872 62.144 8.752 62.424 7.744 62.984C6.752 63.544 5.968 64.32 5.392 65.312C4.832 66.288 4.552 67.384 4.552 68.6C4.552 69.816 4.832 70.92 5.392 71.912C5.968 72.888 6.752 73.656 7.744 74.216C8.752 74.776 9.872 75.056 11.104 75.056ZM37.5963 64.28V77H35.4123V75.08C34.9483 75.736 34.3323 76.248 33.5643 76.616C32.8122 76.968 31.9882 77.144 31.0922 77.144C29.3962 77.144 28.0602 76.68 27.0842 75.752C26.1082 74.808 25.6202 73.424 25.6202 71.6V64.28H27.9242V71.336C27.9242 72.568 28.2202 73.504 28.8122 74.144C29.4042 74.768 30.2522 75.08 31.3563 75.08C32.5723 75.08 33.5323 74.712 34.2363 73.976C34.9403 73.24 35.2923 72.2 35.2923 70.856V64.28H37.5963ZM46.5904 66.416C46.9904 65.68 47.5824 65.12 48.3664 64.736C49.1504 64.352 50.1024 64.16 51.2224 64.16V66.392C51.0944 66.376 50.9184 66.368 50.6944 66.368C49.4464 66.368 48.4624 66.744 47.7424 67.496C47.0384 68.232 46.6864 69.288 46.6864 70.664V77H44.3824V64.28H46.5904V66.416ZM80.2555 60.2V77H78.2875L68.2075 64.472V77H65.8075V60.2H67.7755L77.8555 72.728V60.2H80.2555ZM98.8441 70.712C98.8441 70.888 98.8281 71.12 98.7961 71.408H88.4761C88.6201 72.528 89.1081 73.432 89.9401 74.12C90.7881 74.792 91.8361 75.128 93.0841 75.128C94.6041 75.128 95.8281 74.616 96.7561 73.592L98.0281 75.08C97.4521 75.752 96.7321 76.264 95.8681 76.616C95.0201 76.968 94.0681 77.144 93.0121 77.144C91.6681 77.144 90.4761 76.872 89.4361 76.328C88.3961 75.768 87.5881 74.992 87.0121 74C86.4521 73.008 86.1721 71.888 86.1721 70.64C86.1721 69.408 86.4441 68.296 86.9881 67.304C87.5481 66.312 88.3081 65.544 89.2681 65C90.2441 64.44 91.3401 64.16 92.5561 64.16C93.7721 64.16 94.8521 64.44 95.7961 65C96.7561 65.544 97.5001 66.312 98.0281 67.304C98.5721 68.296 98.8441 69.432 98.8441 70.712ZM92.5561 66.104C91.4521 66.104 90.5241 66.44 89.7721 67.112C89.0361 67.784 88.6041 68.664 88.4761 69.752H96.6361C96.5081 68.68 96.0681 67.808 95.3161 67.136C94.5801 66.448 93.6601 66.104 92.5561 66.104ZM111.595 76.256C111.259 76.544 110.843 76.768 110.347 76.928C109.851 77.072 109.339 77.144 108.811 77.144C107.531 77.144 106.539 76.8 105.835 76.112C105.131 75.424 104.779 74.44 104.779 73.16V66.176H102.619V64.28H104.779V61.496H107.083V64.28H110.731V66.176H107.083V73.064C107.083 73.752 107.251 74.28 107.587 74.648C107.939 75.016 108.435 75.2 109.075 75.2C109.779 75.2 110.379 75 110.875 74.6L111.595 76.256ZM135.795 64.28L131.043 77H128.835L125.163 67.352L121.443 77H119.235L114.507 64.28H116.691L120.387 74.408L124.227 64.28H126.171L129.939 74.456L133.731 64.28H135.795ZM142.74 66.416C143.14 65.68 143.732 65.12 144.516 64.736C145.3 64.352 146.252 64.16 147.372 64.16V66.392C147.244 66.376 147.068 66.368 146.844 66.368C145.596 66.368 144.612 66.744 143.892 67.496C143.188 68.232 142.836 69.288 142.836 70.664V77H140.532V64.28H142.74V66.416ZM157.943 77.144C156.679 77.144 155.543 76.864 154.535 76.304C153.527 75.744 152.735 74.976 152.159 74C151.599 73.008 151.319 71.888 151.319 70.64C151.319 69.392 151.599 68.28 152.159 67.304C152.735 66.312 153.527 65.544 154.535 65C155.543 64.44 156.679 64.16 157.943 64.16C159.207 64.16 160.335 64.44 161.327 65C162.335 65.544 163.119 66.312 163.679 67.304C164.255 68.28 164.543 69.392 164.543 70.64C164.543 71.888 164.255 73.008 163.679 74C163.119 74.976 162.335 75.744 161.327 76.304C160.335 76.864 159.207 77.144 157.943 77.144ZM157.943 75.128C158.759 75.128 159.487 74.944 160.127 74.576C160.783 74.192 161.295 73.664 161.663 72.992C162.031 72.304 162.215 71.52 162.215 70.64C162.215 69.76 162.031 68.984 161.663 68.312C161.295 67.624 160.783 67.096 160.127 66.728C159.487 66.36 158.759 66.176 157.943 66.176C157.127 66.176 156.391 66.36 155.735 66.728C155.095 67.096 154.583 67.624 154.199 68.312C153.831 68.984 153.647 69.76 153.647 70.64C153.647 71.52 153.831 72.304 154.199 72.992C154.583 73.664 155.095 74.192 155.735 74.576C156.391 74.944 157.127 75.128 157.943 75.128ZM175.073 71.072L172.433 73.52V77H170.129V59.192H172.433V70.616L179.369 64.28H182.153L176.801 69.536L182.681 77H179.849L175.073 71.072ZM202.956 64.16C204.572 64.16 205.852 64.632 206.796 65.576C207.756 66.504 208.236 67.872 208.236 69.68V77H205.932V69.944C205.932 68.712 205.636 67.784 205.044 67.16C204.452 66.536 203.604 66.224 202.5 66.224C201.252 66.224 200.268 66.592 199.548 67.328C198.828 68.048 198.468 69.088 198.468 70.448V77H196.164V59.192H198.468V66.08C198.948 65.472 199.572 65 200.34 64.664C201.124 64.328 201.996 64.16 202.956 64.16ZM226.466 70.712C226.466 70.888 226.45 71.12 226.418 71.408H216.098C216.242 72.528 216.73 73.432 217.562 74.12C218.41 74.792 219.458 75.128 220.706 75.128C222.226 75.128 223.45 74.616 224.378 73.592L225.65 75.08C225.074 75.752 224.354 76.264 223.49 76.616C222.642 76.968 221.69 77.144 220.634 77.144C219.29 77.144 218.098 76.872 217.058 76.328C216.018 75.768 215.21 74.992 214.634 74C214.074 73.008 213.794 71.888 213.794 70.64C213.794 69.408 214.066 68.296 214.61 67.304C215.17 66.312 215.93 65.544 216.89 65C217.866 64.44 218.962 64.16 220.178 64.16C221.394 64.16 222.474 64.44 223.418 65C224.378 65.544 225.122 66.312 225.65 67.304C226.194 68.296 226.466 69.432 226.466 70.712ZM220.178 66.104C219.074 66.104 218.146 66.44 217.394 67.112C216.658 67.784 216.226 68.664 216.098 69.752H224.258C224.13 68.68 223.69 67.808 222.938 67.136C222.202 66.448 221.282 66.104 220.178 66.104ZM232.065 59.192H234.369V77H232.065V59.192ZM247.912 64.16C249.144 64.16 250.248 64.432 251.224 64.976C252.2 65.52 252.96 66.28 253.504 67.256C254.064 68.232 254.344 69.36 254.344 70.64C254.344 71.92 254.064 73.056 253.504 74.048C252.96 75.024 252.2 75.784 251.224 76.328C250.248 76.872 249.144 77.144 247.912 77.144C247 77.144 246.16 76.968 245.392 76.616C244.64 76.264 244 75.752 243.472 75.08V81.656H241.168V64.28H243.376V66.296C243.888 65.592 244.536 65.064 245.32 64.712C246.104 64.344 246.968 64.16 247.912 64.16ZM247.72 75.128C248.536 75.128 249.264 74.944 249.904 74.576C250.56 74.192 251.072 73.664 251.44 72.992C251.824 72.304 252.016 71.52 252.016 70.64C252.016 69.76 251.824 68.984 251.44 68.312C251.072 67.624 250.56 67.096 249.904 66.728C249.264 66.36 248.536 66.176 247.72 66.176C246.92 66.176 246.192 66.368 245.536 66.752C244.896 67.12 244.384 67.64 244 68.312C243.632 68.984 243.448 69.76 243.448 70.64C243.448 71.52 243.632 72.304 244 72.992C244.368 73.664 244.88 74.192 245.536 74.576C246.192 74.944 246.92 75.128 247.72 75.128ZM263.576 77.144C262.536 77.144 261.536 77.008 260.576 76.736C259.616 76.448 258.864 76.088 258.32 75.656L259.28 73.832C259.84 74.232 260.52 74.552 261.32 74.792C262.12 75.032 262.928 75.152 263.744 75.152C265.76 75.152 266.768 74.576 266.768 73.424C266.768 73.04 266.632 72.736 266.36 72.512C266.088 72.288 265.744 72.128 265.328 72.032C264.928 71.92 264.352 71.8 263.6 71.672C262.576 71.512 261.736 71.328 261.08 71.12C260.44 70.912 259.888 70.56 259.424 70.064C258.96 69.568 258.728 68.872 258.728 67.976C258.728 66.824 259.208 65.904 260.168 65.216C261.128 64.512 262.416 64.16 264.032 64.16C264.88 64.16 265.728 64.264 266.576 64.472C267.424 64.68 268.12 64.96 268.664 65.312L267.68 67.136C266.64 66.464 265.416 66.128 264.008 66.128C263.032 66.128 262.288 66.288 261.776 66.608C261.264 66.928 261.008 67.352 261.008 67.88C261.008 68.296 261.152 68.624 261.44 68.864C261.728 69.104 262.08 69.28 262.496 69.392C262.928 69.504 263.528 69.632 264.296 69.776C265.32 69.952 266.144 70.144 266.768 70.352C267.408 70.544 267.952 70.88 268.4 71.36C268.848 71.84 269.072 72.512 269.072 73.376C269.072 74.528 268.576 75.448 267.584 76.136C266.608 76.808 265.272 77.144 263.576 77.144ZM287.853 60.944C286.477 60.944 285.789 61.688 285.789 63.176V64.28H289.485V66.176H285.837V77H283.533V66.176H281.373V64.28H283.533V63.152C283.533 61.888 283.901 60.888 284.637 60.152C285.373 59.416 286.405 59.048 287.733 59.048C288.245 59.048 288.725 59.112 289.173 59.24C289.621 59.368 290.005 59.552 290.325 59.792L289.629 61.544C289.101 61.144 288.509 60.944 287.853 60.944ZM299.318 77.144C298.054 77.144 296.918 76.864 295.91 76.304C294.902 75.744 294.11 74.976 293.534 74C292.974 73.008 292.694 71.888 292.694 70.64C292.694 69.392 292.974 68.28 293.534 67.304C294.11 66.312 294.902 65.544 295.91 65C296.918 64.44 298.054 64.16 299.318 64.16C300.582 64.16 301.71 64.44 302.702 65C303.71 65.544 304.494 66.312 305.054 67.304C305.63 68.28 305.918 69.392 305.918 70.64C305.918 71.888 305.63 73.008 305.054 74C304.494 74.976 303.71 75.744 302.702 76.304C301.71 76.864 300.582 77.144 299.318 77.144ZM299.318 75.128C300.134 75.128 300.862 74.944 301.502 74.576C302.158 74.192 302.67 73.664 303.038 72.992C303.406 72.304 303.59 71.52 303.59 70.64C303.59 69.76 303.406 68.984 303.038 68.312C302.67 67.624 302.158 67.096 301.502 66.728C300.862 66.36 300.134 66.176 299.318 66.176C298.502 66.176 297.766 66.36 297.11 66.728C296.47 67.096 295.958 67.624 295.574 68.312C295.206 68.984 295.022 69.76 295.022 70.64C295.022 71.52 295.206 72.304 295.574 72.992C295.958 73.664 296.47 74.192 297.11 74.576C297.766 74.944 298.502 75.128 299.318 75.128ZM311.504 59.192H313.808V77H311.504V59.192ZM325.551 71.072L322.911 73.52V77H320.607V59.192H322.911V70.616L329.847 64.28H332.631L327.279 69.536L333.159 77H330.327L325.551 71.072ZM341.046 77.144C340.006 77.144 339.006 77.008 338.046 76.736C337.086 76.448 336.334 76.088 335.79 75.656L336.75 73.832C337.31 74.232 337.99 74.552 338.79 74.792C339.59 75.032 340.398 75.152 341.214 75.152C343.23 75.152 344.238 74.576 344.238 73.424C344.238 73.04 344.102 72.736 343.83 72.512C343.558 72.288 343.214 72.128 342.798 72.032C342.398 71.92 341.822 71.8 341.07 71.672C340.046 71.512 339.206 71.328 338.55 71.12C337.91 70.912 337.358 70.56 336.894 70.064C336.43 69.568 336.198 68.872 336.198 67.976C336.198 66.824 336.678 65.904 337.638 65.216C338.598 64.512 339.886 64.16 341.502 64.16C342.35 64.16 343.198 64.264 344.046 64.472C344.894 64.68 345.59 64.96 346.134 65.312L345.15 67.136C344.11 66.464 342.886 66.128 341.478 66.128C340.502 66.128 339.758 66.288 339.246 66.608C338.734 66.928 338.478 67.352 338.478 67.88C338.478 68.296 338.622 68.624 338.91 68.864C339.198 69.104 339.55 69.28 339.966 69.392C340.398 69.504 340.998 69.632 341.766 69.776C342.79 69.952 343.614 70.144 344.238 70.352C344.878 70.544 345.422 70.88 345.87 71.36C346.318 71.84 346.542 72.512 346.542 73.376C346.542 74.528 346.046 75.448 345.054 76.136C344.078 76.808 342.742 77.144 341.046 77.144ZM367.819 76.256C367.483 76.544 367.067 76.768 366.571 76.928C366.075 77.072 365.563 77.144 365.035 77.144C363.755 77.144 362.763 76.8 362.059 76.112C361.355 75.424 361.003 74.44 361.003 73.16V66.176H358.843V64.28H361.003V61.496H363.307V64.28H366.955V66.176H363.307V73.064C363.307 73.752 363.475 74.28 363.811 74.648C364.163 75.016 364.659 75.2 365.299 75.2C366.003 75.2 366.603 75 367.099 74.6L367.819 76.256ZM378.03 77.144C376.766 77.144 375.63 76.864 374.622 76.304C373.614 75.744 372.822 74.976 372.246 74C371.686 73.008 371.406 71.888 371.406 70.64C371.406 69.392 371.686 68.28 372.246 67.304C372.822 66.312 373.614 65.544 374.622 65C375.63 64.44 376.766 64.16 378.03 64.16C379.294 64.16 380.422 64.44 381.414 65C382.422 65.544 383.206 66.312 383.766 67.304C384.342 68.28 384.63 69.392 384.63 70.64C384.63 71.888 384.342 73.008 383.766 74C383.206 74.976 382.422 75.744 381.414 76.304C380.422 76.864 379.294 77.144 378.03 77.144ZM378.03 75.128C378.846 75.128 379.574 74.944 380.214 74.576C380.87 74.192 381.382 73.664 381.75 72.992C382.118 72.304 382.302 71.52 382.302 70.64C382.302 69.76 382.118 68.984 381.75 68.312C381.382 67.624 380.87 67.096 380.214 66.728C379.574 66.36 378.846 66.176 378.03 66.176C377.214 66.176 376.478 66.36 375.822 66.728C375.182 67.096 374.67 67.624 374.286 68.312C373.918 68.984 373.734 69.76 373.734 70.64C373.734 71.52 373.918 72.304 374.286 72.992C374.67 73.664 375.182 74.192 375.822 74.576C376.478 74.944 377.214 75.128 378.03 75.128ZM22.432 93.28L17.68 106H15.472L11.8 96.352L8.08 106H5.872L1.144 93.28H3.328L7.024 103.408L10.864 93.28H12.808L16.576 103.456L20.368 93.28H22.432ZM32.2664 106.144C31.0024 106.144 29.8664 105.864 28.8584 105.304C27.8504 104.744 27.0584 103.976 26.4824 103C25.9224 102.008 25.6424 100.888 25.6424 99.64C25.6424 98.392 25.9224 97.28 26.4824 96.304C27.0584 95.312 27.8504 94.544 28.8584 94C29.8664 93.44 31.0024 93.16 32.2664 93.16C33.5304 93.16 34.6584 93.44 35.6504 94C36.6584 94.544 37.4424 95.312 38.0024 96.304C38.5784 97.28 38.8664 98.392 38.8664 99.64C38.8664 100.888 38.5784 102.008 38.0024 103C37.4424 103.976 36.6584 104.744 35.6504 105.304C34.6584 105.864 33.5304 106.144 32.2664 106.144ZM32.2664 104.128C33.0824 104.128 33.8104 103.944 34.4504 103.576C35.1064 103.192 35.6184 102.664 35.9864 101.992C36.3544 101.304 36.5384 100.52 36.5384 99.64C36.5384 98.76 36.3544 97.984 35.9864 97.312C35.6184 96.624 35.1064 96.096 34.4504 95.728C33.8104 95.36 33.0824 95.176 32.2664 95.176C31.4504 95.176 30.7144 95.36 30.0584 95.728C29.4184 96.096 28.9064 96.624 28.5224 97.312C28.1544 97.984 27.9704 98.76 27.9704 99.64C27.9704 100.52 28.1544 101.304 28.5224 101.992C28.9064 102.664 29.4184 103.192 30.0584 103.576C30.7144 103.944 31.4504 104.128 32.2664 104.128ZM46.6607 95.416C47.0607 94.68 47.6527 94.12 48.4367 93.736C49.2207 93.352 50.1727 93.16 51.2927 93.16V95.392C51.1647 95.376 50.9887 95.368 50.7647 95.368C49.5167 95.368 48.5327 95.744 47.8127 96.496C47.1087 97.232 46.7567 98.288 46.7567 99.664V106H44.4527V93.28H46.6607V95.416ZM61.4764 100.072L58.8364 102.52V106H56.5324V88.192H58.8364V99.616L65.7724 93.28H68.5564L63.2044 98.536L69.0844 106H66.2524L61.4764 100.072ZM94.0628 99.712C94.0628 99.888 94.0468 100.12 94.0148 100.408H83.6948C83.8388 101.528 84.3268 102.432 85.1588 103.12C86.0068 103.792 87.0548 104.128 88.3028 104.128C89.8228 104.128 91.0468 103.616 91.9748 102.592L93.2468 104.08C92.6708 104.752 91.9508 105.264 91.0868 105.616C90.2388 105.968 89.2868 106.144 88.2308 106.144C86.8868 106.144 85.6948 105.872 84.6548 105.328C83.6148 104.768 82.8068 103.992 82.2308 103C81.6708 102.008 81.3908 100.888 81.3908 99.64C81.3908 98.408 81.6628 97.296 82.2068 96.304C82.7668 95.312 83.5268 94.544 84.4868 94C85.4628 93.44 86.5588 93.16 87.7748 93.16C88.9908 93.16 90.0708 93.44 91.0148 94C91.9748 94.544 92.7188 95.312 93.2468 96.304C93.7908 97.296 94.0628 98.432 94.0628 99.712ZM87.7748 95.104C86.6708 95.104 85.7428 95.44 84.9908 96.112C84.2548 96.784 83.8228 97.664 83.6948 98.752H91.8548C91.7268 97.68 91.2868 96.808 90.5348 96.136C89.7988 95.448 88.8788 95.104 87.7748 95.104ZM104.318 89.944C102.942 89.944 102.254 90.688 102.254 92.176V93.28H105.95V95.176H102.302V106H99.9981V95.176H97.8381V93.28H99.9981V92.152C99.9981 90.888 100.366 89.888 101.102 89.152C101.838 88.416 102.87 88.048 104.198 88.048C104.71 88.048 105.19 88.112 105.638 88.24C106.086 88.368 106.47 88.552 106.79 88.792L106.094 90.544C105.566 90.144 104.974 89.944 104.318 89.944ZM115.179 89.944C113.803 89.944 113.115 90.688 113.115 92.176V93.28H116.811V95.176H113.163V106H110.859V95.176H108.699V93.28H110.859V92.152C110.859 90.888 111.227 89.888 111.963 89.152C112.699 88.416 113.731 88.048 115.059 88.048C115.571 88.048 116.051 88.112 116.499 88.24C116.947 88.368 117.331 88.552 117.651 88.792L116.955 90.544C116.427 90.144 115.835 89.944 115.179 89.944ZM120.915 93.28H123.219V106H120.915V93.28ZM122.067 90.832C121.619 90.832 121.243 90.688 120.939 90.4C120.651 90.112 120.507 89.76 120.507 89.344C120.507 88.928 120.651 88.576 120.939 88.288C121.243 87.984 121.619 87.832 122.067 87.832C122.515 87.832 122.883 87.976 123.171 88.264C123.475 88.536 123.627 88.88 123.627 89.296C123.627 89.728 123.475 90.096 123.171 90.4C122.883 90.688 122.515 90.832 122.067 90.832ZM141.505 99.712C141.505 99.888 141.489 100.12 141.457 100.408H131.137C131.281 101.528 131.769 102.432 132.601 103.12C133.449 103.792 134.497 104.128 135.745 104.128C137.265 104.128 138.489 103.616 139.417 102.592L140.689 104.08C140.113 104.752 139.393 105.264 138.529 105.616C137.681 105.968 136.729 106.144 135.673 106.144C134.329 106.144 133.137 105.872 132.097 105.328C131.057 104.768 130.249 103.992 129.673 103C129.113 102.008 128.833 100.888 128.833 99.64C128.833 98.408 129.105 97.296 129.649 96.304C130.209 95.312 130.969 94.544 131.929 94C132.905 93.44 134.001 93.16 135.217 93.16C136.433 93.16 137.513 93.44 138.457 94C139.417 94.544 140.161 95.312 140.689 96.304C141.233 97.296 141.505 98.432 141.505 99.712ZM135.217 95.104C134.113 95.104 133.185 95.44 132.433 96.112C131.697 96.784 131.265 97.664 131.137 98.752H139.297C139.169 97.68 138.729 96.808 137.977 96.136C137.241 95.448 136.321 95.104 135.217 95.104ZM152.648 106.144C151.352 106.144 150.192 105.864 149.168 105.304C148.16 104.744 147.368 103.976 146.792 103C146.216 102.008 145.928 100.888 145.928 99.64C145.928 98.392 146.216 97.28 146.792 96.304C147.368 95.312 148.16 94.544 149.168 94C150.192 93.44 151.352 93.16 152.648 93.16C153.8 93.16 154.824 93.392 155.72 93.856C156.632 94.32 157.336 94.992 157.832 95.872L156.08 97C155.68 96.392 155.184 95.936 154.592 95.632C154 95.328 153.344 95.176 152.624 95.176C151.792 95.176 151.04 95.36 150.368 95.728C149.712 96.096 149.192 96.624 148.808 97.312C148.44 97.984 148.256 98.76 148.256 99.64C148.256 100.536 148.44 101.328 148.808 102.016C149.192 102.688 149.712 103.208 150.368 103.576C151.04 103.944 151.792 104.128 152.624 104.128C153.344 104.128 154 103.976 154.592 103.672C155.184 103.368 155.68 102.912 156.08 102.304L157.832 103.408C157.336 104.288 156.632 104.968 155.72 105.448C154.824 105.912 153.8 106.144 152.648 106.144ZM170.531 105.256C170.195 105.544 169.779 105.768 169.283 105.928C168.787 106.072 168.275 106.144 167.747 106.144C166.467 106.144 165.475 105.8 164.771 105.112C164.067 104.424 163.715 103.44 163.715 102.16V95.176H161.555V93.28H163.715V90.496H166.019V93.28H169.667V95.176H166.019V102.064C166.019 102.752 166.187 103.28 166.523 103.648C166.875 104.016 167.371 104.2 168.011 104.2C168.715 104.2 169.315 104 169.811 103.6L170.531 105.256ZM175.717 93.28H178.021V106H175.717V93.28ZM176.869 90.832C176.421 90.832 176.045 90.688 175.741 90.4C175.453 90.112 175.309 89.76 175.309 89.344C175.309 88.928 175.453 88.576 175.741 88.288C176.045 87.984 176.421 87.832 176.869 87.832C177.317 87.832 177.685 87.976 177.973 88.264C178.277 88.536 178.429 88.88 178.429 89.296C178.429 89.728 178.277 90.096 177.973 90.4C177.685 90.688 177.317 90.832 176.869 90.832ZM196.076 93.28L190.508 106H188.156L182.588 93.28H184.988L189.356 103.48L193.82 93.28H196.076ZM211.771 99.712C211.771 99.888 211.755 100.12 211.723 100.408H201.403C201.547 101.528 202.035 102.432 202.867 103.12C203.715 103.792 204.763 104.128 206.011 104.128C207.531 104.128 208.755 103.616 209.683 102.592L210.955 104.08C210.379 104.752 209.659 105.264 208.795 105.616C207.947 105.968 206.995 106.144 205.939 106.144C204.595 106.144 203.403 105.872 202.363 105.328C201.323 104.768 200.515 103.992 199.939 103C199.379 102.008 199.099 100.888 199.099 99.64C199.099 98.408 199.371 97.296 199.915 96.304C200.475 95.312 201.235 94.544 202.195 94C203.171 93.44 204.267 93.16 205.483 93.16C206.699 93.16 207.779 93.44 208.723 94C209.683 94.544 210.427 95.312 210.955 96.304C211.499 97.296 211.771 98.432 211.771 99.712ZM205.483 95.104C204.379 95.104 203.451 95.44 202.699 96.112C201.963 96.784 201.531 97.664 201.403 98.752H209.563C209.435 97.68 208.995 96.808 208.243 96.136C207.507 95.448 206.587 95.104 205.483 95.104ZM217.37 88.192H219.674V106H217.37V88.192ZM237.729 93.28L231.561 107.272C231.017 108.568 230.377 109.48 229.641 110.008C228.921 110.536 228.049 110.8 227.025 110.8C226.401 110.8 225.793 110.696 225.201 110.488C224.625 110.296 224.145 110.008 223.761 109.624L224.745 107.896C225.401 108.52 226.161 108.832 227.025 108.832C227.585 108.832 228.049 108.68 228.417 108.376C228.801 108.088 229.145 107.584 229.449 106.864L229.857 105.976L224.241 93.28H226.641L231.081 103.456L235.473 93.28H237.729ZM242.034 106.144C241.586 106.144 241.202 105.992 240.882 105.688C240.562 105.368 240.402 104.968 240.402 104.488C240.402 104.024 240.562 103.64 240.882 103.336C241.202 103.016 241.586 102.856 242.034 102.856C242.482 102.856 242.858 103.008 243.162 103.312C243.466 103.616 243.618 104.008 243.618 104.488C243.618 104.968 243.458 105.368 243.138 105.688C242.834 105.992 242.466 106.144 242.034 106.144Z" fill="black"/>
</svg>
