<svg width="979" height="633" viewBox="0 0 979 633" fill="none" xmlns="http://www.w3.org/2000/svg">
<g filter="url(#filter0_d)">
<rect width="969" height="625" rx="25" fill="#60004C"/>
</g>
<ellipse cx="824.5" cy="78.5" rx="10.5" ry="9.5" fill="#FF0000"/>
<ellipse cx="860.5" cy="78.5" rx="10.5" ry="9.5" fill="#FFE600"/>
<ellipse cx="896.5" cy="78.5" rx="10.5" ry="9.5" fill="#05FF00"/>
<path d="M114.92 236.416C114.92 237.68 114.44 238.752 113.48 239.632C112.536 240.512 111.16 241.024 109.352 241.168V243.88H107.816V241.168C106.648 241.104 105.536 240.888 104.48 240.52C103.44 240.136 102.608 239.656 101.984 239.08L102.872 237.208C103.448 237.736 104.176 238.176 105.056 238.528C105.936 238.864 106.856 239.064 107.816 239.128V233.56C106.696 233.288 105.76 232.992 105.008 232.672C104.272 232.352 103.648 231.88 103.136 231.256C102.64 230.632 102.392 229.816 102.392 228.808C102.392 227.544 102.848 226.472 103.76 225.592C104.688 224.712 106.04 224.2 107.816 224.056V221.32H109.352V224.032C110.264 224.064 111.144 224.208 111.992 224.464C112.856 224.72 113.6 225.064 114.224 225.496L113.432 227.416C112.136 226.6 110.776 226.152 109.352 226.072V231.664C110.52 231.952 111.48 232.256 112.232 232.576C112.984 232.88 113.616 233.344 114.128 233.968C114.656 234.576 114.92 235.392 114.92 236.416ZM104.744 228.712C104.744 229.4 105.008 229.936 105.536 230.32C106.064 230.704 106.824 231.024 107.816 231.28V226.096C106.792 226.224 106.024 226.528 105.512 227.008C105 227.472 104.744 228.04 104.744 228.712ZM109.352 239.104C110.424 239.008 111.224 238.736 111.752 238.288C112.296 237.824 112.568 237.248 112.568 236.56C112.568 235.856 112.288 235.32 111.728 234.952C111.184 234.568 110.392 234.232 109.352 233.944V239.104ZM136.08 228.16C137.312 228.16 138.416 228.432 139.392 228.976C140.368 229.52 141.128 230.28 141.672 231.256C142.232 232.232 142.512 233.36 142.512 234.64C142.512 235.92 142.232 237.056 141.672 238.048C141.128 239.024 140.368 239.784 139.392 240.328C138.416 240.872 137.312 241.144 136.08 241.144C135.168 241.144 134.328 240.968 133.56 240.616C132.808 240.264 132.168 239.752 131.64 239.08V245.656H129.336V228.28H131.544V230.296C132.056 229.592 132.704 229.064 133.488 228.712C134.272 228.344 135.136 228.16 136.08 228.16ZM135.888 239.128C136.704 239.128 137.432 238.944 138.072 238.576C138.728 238.192 139.24 237.664 139.608 236.992C139.992 236.304 140.184 235.52 140.184 234.64C140.184 233.76 139.992 232.984 139.608 232.312C139.24 231.624 138.728 231.096 138.072 230.728C137.432 230.36 136.704 230.176 135.888 230.176C135.088 230.176 134.36 230.368 133.704 230.752C133.064 231.12 132.552 231.64 132.168 232.312C131.8 232.984 131.616 233.76 131.616 234.64C131.616 235.52 131.8 236.304 132.168 236.992C132.536 237.664 133.048 238.192 133.704 238.576C134.36 238.944 135.088 239.128 135.888 239.128ZM158.999 228.28L152.831 242.272C152.287 243.568 151.647 244.48 150.911 245.008C150.191 245.536 149.319 245.8 148.295 245.8C147.671 245.8 147.063 245.696 146.471 245.488C145.895 245.296 145.415 245.008 145.031 244.624L146.015 242.896C146.671 243.52 147.431 243.832 148.295 243.832C148.855 243.832 149.319 243.68 149.687 243.376C150.071 243.088 150.415 242.584 150.719 241.864L151.127 240.976L145.511 228.28H147.911L152.351 238.456L156.743 228.28H158.999ZM188.307 228.16C189.907 228.16 191.171 228.624 192.099 229.552C193.043 230.48 193.515 231.856 193.515 233.68V241H191.211V233.944C191.211 232.712 190.923 231.784 190.347 231.16C189.787 230.536 188.979 230.224 187.923 230.224C186.755 230.224 185.827 230.592 185.139 231.328C184.451 232.048 184.107 233.088 184.107 234.448V241H181.803V233.944C181.803 232.712 181.515 231.784 180.939 231.16C180.379 230.536 179.571 230.224 178.515 230.224C177.347 230.224 176.419 230.592 175.731 231.328C175.043 232.048 174.699 233.088 174.699 234.448V241H172.395V228.28H174.603V230.176C175.067 229.52 175.675 229.024 176.427 228.688C177.179 228.336 178.035 228.16 178.995 228.16C179.987 228.16 180.867 228.36 181.635 228.76C182.403 229.16 182.995 229.744 183.411 230.512C183.891 229.776 184.555 229.2 185.403 228.784C186.267 228.368 187.235 228.16 188.307 228.16ZM204.786 228.16C206.546 228.16 207.89 228.592 208.818 229.456C209.762 230.32 210.234 231.608 210.234 233.32V241H208.05V239.32C207.666 239.912 207.114 240.368 206.394 240.688C205.69 240.992 204.85 241.144 203.874 241.144C202.45 241.144 201.306 240.8 200.442 240.112C199.594 239.424 199.17 238.52 199.17 237.4C199.17 236.28 199.578 235.384 200.394 234.712C201.21 234.024 202.506 233.68 204.282 233.68H207.93V233.224C207.93 232.232 207.642 231.472 207.066 230.944C206.49 230.416 205.642 230.152 204.522 230.152C203.77 230.152 203.034 230.28 202.314 230.536C201.594 230.776 200.986 231.104 200.49 231.52L199.53 229.792C200.186 229.264 200.97 228.864 201.882 228.592C202.794 228.304 203.762 228.16 204.786 228.16ZM204.258 239.368C205.138 239.368 205.898 239.176 206.538 238.792C207.178 238.392 207.642 237.832 207.93 237.112V235.336H204.378C202.426 235.336 201.45 235.992 201.45 237.304C201.45 237.944 201.698 238.448 202.194 238.816C202.69 239.184 203.378 239.368 204.258 239.368ZM223.69 228.16C225.306 228.16 226.586 228.632 227.53 229.576C228.49 230.504 228.97 231.872 228.97 233.68V241H226.666V233.944C226.666 232.712 226.37 231.784 225.778 231.16C225.186 230.536 224.338 230.224 223.234 230.224C221.986 230.224 221.002 230.592 220.282 231.328C219.562 232.048 219.202 233.088 219.202 234.448V241H216.898V228.28H219.106V230.2C219.57 229.544 220.194 229.04 220.978 228.688C221.778 228.336 222.682 228.16 223.69 228.16ZM240.266 228.16C242.026 228.16 243.37 228.592 244.298 229.456C245.242 230.32 245.714 231.608 245.714 233.32V241H243.53V239.32C243.146 239.912 242.594 240.368 241.874 240.688C241.17 240.992 240.33 241.144 239.354 241.144C237.93 241.144 236.786 240.8 235.922 240.112C235.074 239.424 234.65 238.52 234.65 237.4C234.65 236.28 235.058 235.384 235.874 234.712C236.69 234.024 237.986 233.68 239.762 233.68H243.41V233.224C243.41 232.232 243.122 231.472 242.546 230.944C241.97 230.416 241.122 230.152 240.002 230.152C239.25 230.152 238.514 230.28 237.794 230.536C237.074 230.776 236.466 231.104 235.97 231.52L235.01 229.792C235.666 229.264 236.45 228.864 237.362 228.592C238.274 228.304 239.242 228.16 240.266 228.16ZM239.738 239.368C240.618 239.368 241.378 239.176 242.018 238.792C242.658 238.392 243.122 237.832 243.41 237.112V235.336H239.858C237.906 235.336 236.93 235.992 236.93 237.304C236.93 237.944 237.178 238.448 237.674 238.816C238.17 239.184 238.858 239.368 239.738 239.368ZM264.616 228.28V239.272C264.616 241.496 264.064 243.136 262.96 244.192C261.856 245.264 260.208 245.8 258.016 245.8C256.816 245.8 255.672 245.632 254.584 245.296C253.496 244.976 252.616 244.512 251.944 243.904L253.048 242.128C253.64 242.64 254.368 243.04 255.232 243.328C256.112 243.632 257.016 243.784 257.944 243.784C259.432 243.784 260.528 243.432 261.232 242.728C261.952 242.024 262.312 240.952 262.312 239.512V238.504C261.768 239.16 261.096 239.656 260.296 239.992C259.512 240.312 258.656 240.472 257.728 240.472C256.512 240.472 255.408 240.216 254.416 239.704C253.44 239.176 252.672 238.448 252.112 237.52C251.552 236.576 251.272 235.504 251.272 234.304C251.272 233.104 251.552 232.04 252.112 231.112C252.672 230.168 253.44 229.44 254.416 228.928C255.408 228.416 256.512 228.16 257.728 228.16C258.688 228.16 259.576 228.336 260.392 228.688C261.224 229.04 261.904 229.56 262.432 230.248V228.28H264.616ZM257.992 238.456C258.824 238.456 259.568 238.28 260.224 237.928C260.896 237.576 261.416 237.088 261.784 236.464C262.168 235.824 262.36 235.104 262.36 234.304C262.36 233.072 261.952 232.08 261.136 231.328C260.32 230.56 259.272 230.176 257.992 230.176C256.696 230.176 255.64 230.56 254.824 231.328C254.008 232.08 253.6 233.072 253.6 234.304C253.6 235.104 253.784 235.824 254.152 236.464C254.536 237.088 255.056 237.576 255.712 237.928C256.384 238.28 257.144 238.456 257.992 238.456ZM282.914 234.712C282.914 234.888 282.898 235.12 282.866 235.408H272.546C272.69 236.528 273.178 237.432 274.01 238.12C274.858 238.792 275.906 239.128 277.154 239.128C278.674 239.128 279.898 238.616 280.826 237.592L282.098 239.08C281.522 239.752 280.802 240.264 279.938 240.616C279.09 240.968 278.138 241.144 277.082 241.144C275.738 241.144 274.546 240.872 273.506 240.328C272.466 239.768 271.658 238.992 271.082 238C270.522 237.008 270.242 235.888 270.242 234.64C270.242 233.408 270.514 232.296 271.058 231.304C271.618 230.312 272.378 229.544 273.338 229C274.314 228.44 275.41 228.16 276.626 228.16C277.842 228.16 278.922 228.44 279.866 229C280.826 229.544 281.57 230.312 282.098 231.304C282.642 232.296 282.914 233.432 282.914 234.712ZM276.626 230.104C275.522 230.104 274.594 230.44 273.842 231.112C273.106 231.784 272.674 232.664 272.546 233.752H280.706C280.578 232.68 280.138 231.808 279.386 231.136C278.65 230.448 277.73 230.104 276.626 230.104ZM289.066 241.144C288.618 241.144 288.234 240.992 287.914 240.688C287.594 240.368 287.434 239.968 287.434 239.488C287.434 239.024 287.594 238.64 287.914 238.336C288.234 238.016 288.618 237.856 289.066 237.856C289.514 237.856 289.89 238.008 290.194 238.312C290.498 238.616 290.65 239.008 290.65 239.488C290.65 239.968 290.49 240.368 290.17 240.688C289.866 240.992 289.498 241.144 289.066 241.144ZM303.095 228.16C304.327 228.16 305.431 228.432 306.407 228.976C307.383 229.52 308.143 230.28 308.687 231.256C309.247 232.232 309.527 233.36 309.527 234.64C309.527 235.92 309.247 237.056 308.687 238.048C308.143 239.024 307.383 239.784 306.407 240.328C305.431 240.872 304.327 241.144 303.095 241.144C302.183 241.144 301.343 240.968 300.575 240.616C299.823 240.264 299.183 239.752 298.655 239.08V245.656H296.351V228.28H298.559V230.296C299.071 229.592 299.719 229.064 300.503 228.712C301.287 228.344 302.151 228.16 303.095 228.16ZM302.903 239.128C303.719 239.128 304.447 238.944 305.087 238.576C305.743 238.192 306.255 237.664 306.623 236.992C307.007 236.304 307.199 235.52 307.199 234.64C307.199 233.76 307.007 232.984 306.623 232.312C306.255 231.624 305.743 231.096 305.087 230.728C304.447 230.36 303.719 230.176 302.903 230.176C302.103 230.176 301.375 230.368 300.719 230.752C300.079 231.12 299.567 231.64 299.183 232.312C298.815 232.984 298.631 233.76 298.631 234.64C298.631 235.52 298.815 236.304 299.183 236.992C299.551 237.664 300.063 238.192 300.719 238.576C301.375 238.944 302.103 239.128 302.903 239.128ZM326.015 228.28L319.847 242.272C319.303 243.568 318.663 244.48 317.927 245.008C317.207 245.536 316.335 245.8 315.311 245.8C314.687 245.8 314.079 245.696 313.487 245.488C312.911 245.296 312.431 245.008 312.047 244.624L313.031 242.896C313.687 243.52 314.447 243.832 315.311 243.832C315.871 243.832 316.335 243.68 316.703 243.376C317.087 243.088 317.431 242.584 317.735 241.864L318.143 240.976L312.527 228.28H314.927L319.367 238.456L323.759 228.28H326.015ZM341.619 230.416C342.019 229.68 342.611 229.12 343.395 228.736C344.179 228.352 345.131 228.16 346.251 228.16V230.392C346.123 230.376 345.947 230.368 345.723 230.368C344.475 230.368 343.491 230.744 342.771 231.496C342.067 232.232 341.715 233.288 341.715 234.664V241H339.411V228.28H341.619V230.416ZM363.51 228.28V241H361.326V239.08C360.862 239.736 360.246 240.248 359.478 240.616C358.726 240.968 357.902 241.144 357.006 241.144C355.31 241.144 353.974 240.68 352.998 239.752C352.022 238.808 351.534 237.424 351.534 235.6V228.28H353.838V235.336C353.838 236.568 354.134 237.504 354.726 238.144C355.318 238.768 356.166 239.08 357.27 239.08C358.486 239.08 359.446 238.712 360.15 237.976C360.854 237.24 361.206 236.2 361.206 234.856V228.28H363.51ZM377.088 228.16C378.704 228.16 379.984 228.632 380.928 229.576C381.888 230.504 382.368 231.872 382.368 233.68V241H380.064V233.944C380.064 232.712 379.768 231.784 379.176 231.16C378.584 230.536 377.736 230.224 376.632 230.224C375.384 230.224 374.4 230.592 373.68 231.328C372.96 232.048 372.6 233.088 372.6 234.448V241H370.296V228.28H372.504V230.2C372.968 229.544 373.592 229.04 374.376 228.688C375.176 228.336 376.08 228.16 377.088 228.16ZM392.68 241.144C391.64 241.144 390.64 241.008 389.68 240.736C388.72 240.448 387.968 240.088 387.424 239.656L388.384 237.832C388.944 238.232 389.624 238.552 390.424 238.792C391.224 239.032 392.032 239.152 392.848 239.152C394.864 239.152 395.872 238.576 395.872 237.424C395.872 237.04 395.736 236.736 395.464 236.512C395.192 236.288 394.848 236.128 394.432 236.032C394.032 235.92 393.456 235.8 392.704 235.672C391.68 235.512 390.84 235.328 390.184 235.12C389.544 234.912 388.992 234.56 388.528 234.064C388.064 233.568 387.832 232.872 387.832 231.976C387.832 230.824 388.312 229.904 389.272 229.216C390.232 228.512 391.52 228.16 393.136 228.16C393.984 228.16 394.832 228.264 395.68 228.472C396.528 228.68 397.224 228.96 397.768 229.312L396.784 231.136C395.744 230.464 394.52 230.128 393.112 230.128C392.136 230.128 391.392 230.288 390.88 230.608C390.368 230.928 390.112 231.352 390.112 231.88C390.112 232.296 390.256 232.624 390.544 232.864C390.832 233.104 391.184 233.28 391.6 233.392C392.032 233.504 392.632 233.632 393.4 233.776C394.424 233.952 395.248 234.144 395.872 234.352C396.512 234.544 397.056 234.88 397.504 235.36C397.952 235.84 398.176 236.512 398.176 237.376C398.176 238.528 397.68 239.448 396.688 240.136C395.712 240.808 394.376 241.144 392.68 241.144ZM414.952 234.712C414.952 234.888 414.936 235.12 414.904 235.408H404.584C404.728 236.528 405.216 237.432 406.048 238.12C406.896 238.792 407.944 239.128 409.192 239.128C410.712 239.128 411.936 238.616 412.864 237.592L414.136 239.08C413.56 239.752 412.84 240.264 411.976 240.616C411.128 240.968 410.176 241.144 409.12 241.144C407.776 241.144 406.584 240.872 405.544 240.328C404.504 239.768 403.696 238.992 403.12 238C402.56 237.008 402.28 235.888 402.28 234.64C402.28 233.408 402.552 232.296 403.096 231.304C403.656 230.312 404.416 229.544 405.376 229C406.352 228.44 407.448 228.16 408.664 228.16C409.88 228.16 410.96 228.44 411.904 229C412.864 229.544 413.608 230.312 414.136 231.304C414.68 232.296 414.952 233.432 414.952 234.712ZM408.664 230.104C407.56 230.104 406.632 230.44 405.88 231.112C405.144 231.784 404.712 232.664 404.584 233.752H412.744C412.616 232.68 412.176 231.808 411.424 231.136C410.688 230.448 409.768 230.104 408.664 230.104ZM422.759 230.416C423.159 229.68 423.751 229.12 424.535 228.736C425.319 228.352 426.271 228.16 427.391 228.16V230.392C427.263 230.376 427.087 230.368 426.863 230.368C425.615 230.368 424.631 230.744 423.911 231.496C423.207 232.232 422.855 233.288 422.855 234.664V241H420.551V228.28H422.759V230.416ZM444.402 228.28L438.834 241H436.482L430.914 228.28H433.314L437.682 238.48L442.146 228.28H444.402ZM460.097 234.712C460.097 234.888 460.081 235.12 460.049 235.408H449.729C449.873 236.528 450.361 237.432 451.193 238.12C452.041 238.792 453.089 239.128 454.337 239.128C455.857 239.128 457.081 238.616 458.009 237.592L459.281 239.08C458.705 239.752 457.985 240.264 457.121 240.616C456.273 240.968 455.321 241.144 454.265 241.144C452.921 241.144 451.729 240.872 450.689 240.328C449.649 239.768 448.841 238.992 448.265 238C447.705 237.008 447.425 235.888 447.425 234.64C447.425 233.408 447.697 232.296 448.241 231.304C448.801 230.312 449.561 229.544 450.521 229C451.497 228.44 452.593 228.16 453.809 228.16C455.025 228.16 456.105 228.44 457.049 229C458.009 229.544 458.753 230.312 459.281 231.304C459.825 232.296 460.097 233.432 460.097 234.712ZM453.809 230.104C452.705 230.104 451.777 230.44 451.025 231.112C450.289 231.784 449.857 232.664 449.729 233.752H457.889C457.761 232.68 457.321 231.808 456.569 231.136C455.833 230.448 454.913 230.104 453.809 230.104ZM467.905 230.416C468.305 229.68 468.897 229.12 469.681 228.736C470.465 228.352 471.417 228.16 472.537 228.16V230.392C472.409 230.376 472.233 230.368 472.009 230.368C470.761 230.368 469.777 230.744 469.057 231.496C468.353 232.232 468.001 233.288 468.001 234.664V241H465.697V228.28H467.905V230.416Z" fill="#00FF0A"/>
<path d="M114.92 272.416C114.92 273.68 114.44 274.752 113.48 275.632C112.536 276.512 111.16 277.024 109.352 277.168V279.88H107.816V277.168C106.648 277.104 105.536 276.888 104.48 276.52C103.44 276.136 102.608 275.656 101.984 275.08L102.872 273.208C103.448 273.736 104.176 274.176 105.056 274.528C105.936 274.864 106.856 275.064 107.816 275.128V269.56C106.696 269.288 105.76 268.992 105.008 268.672C104.272 268.352 103.648 267.88 103.136 267.256C102.64 266.632 102.392 265.816 102.392 264.808C102.392 263.544 102.848 262.472 103.76 261.592C104.688 260.712 106.04 260.2 107.816 260.056V257.32H109.352V260.032C110.264 260.064 111.144 260.208 111.992 260.464C112.856 260.72 113.6 261.064 114.224 261.496L113.432 263.416C112.136 262.6 110.776 262.152 109.352 262.072V267.664C110.52 267.952 111.48 268.256 112.232 268.576C112.984 268.88 113.616 269.344 114.128 269.968C114.656 270.576 114.92 271.392 114.92 272.416ZM104.744 264.712C104.744 265.4 105.008 265.936 105.536 266.32C106.064 266.704 106.824 267.024 107.816 267.28V262.096C106.792 262.224 106.024 262.528 105.512 263.008C105 263.472 104.744 264.04 104.744 264.712ZM109.352 275.104C110.424 275.008 111.224 274.736 111.752 274.288C112.296 273.824 112.568 273.248 112.568 272.56C112.568 271.856 112.288 271.32 111.728 270.952C111.184 270.568 110.392 270.232 109.352 269.944V275.104ZM136.08 264.16C137.312 264.16 138.416 264.432 139.392 264.976C140.368 265.52 141.128 266.28 141.672 267.256C142.232 268.232 142.512 269.36 142.512 270.64C142.512 271.92 142.232 273.056 141.672 274.048C141.128 275.024 140.368 275.784 139.392 276.328C138.416 276.872 137.312 277.144 136.08 277.144C135.168 277.144 134.328 276.968 133.56 276.616C132.808 276.264 132.168 275.752 131.64 275.08V281.656H129.336V264.28H131.544V266.296C132.056 265.592 132.704 265.064 133.488 264.712C134.272 264.344 135.136 264.16 136.08 264.16ZM135.888 275.128C136.704 275.128 137.432 274.944 138.072 274.576C138.728 274.192 139.24 273.664 139.608 272.992C139.992 272.304 140.184 271.52 140.184 270.64C140.184 269.76 139.992 268.984 139.608 268.312C139.24 267.624 138.728 267.096 138.072 266.728C137.432 266.36 136.704 266.176 135.888 266.176C135.088 266.176 134.36 266.368 133.704 266.752C133.064 267.12 132.552 267.64 132.168 268.312C131.8 268.984 131.616 269.76 131.616 270.64C131.616 271.52 131.8 272.304 132.168 272.992C132.536 273.664 133.048 274.192 133.704 274.576C134.36 274.944 135.088 275.128 135.888 275.128ZM158.999 264.28L152.831 278.272C152.287 279.568 151.647 280.48 150.911 281.008C150.191 281.536 149.319 281.8 148.295 281.8C147.671 281.8 147.063 281.696 146.471 281.488C145.895 281.296 145.415 281.008 145.031 280.624L146.015 278.896C146.671 279.52 147.431 279.832 148.295 279.832C148.855 279.832 149.319 279.68 149.687 279.376C150.071 279.088 150.415 278.584 150.719 277.864L151.127 276.976L145.511 264.28H147.911L152.351 274.456L156.743 264.28H158.999ZM188.307 264.16C189.907 264.16 191.171 264.624 192.099 265.552C193.043 266.48 193.515 267.856 193.515 269.68V277H191.211V269.944C191.211 268.712 190.923 267.784 190.347 267.16C189.787 266.536 188.979 266.224 187.923 266.224C186.755 266.224 185.827 266.592 185.139 267.328C184.451 268.048 184.107 269.088 184.107 270.448V277H181.803V269.944C181.803 268.712 181.515 267.784 180.939 267.16C180.379 266.536 179.571 266.224 178.515 266.224C177.347 266.224 176.419 266.592 175.731 267.328C175.043 268.048 174.699 269.088 174.699 270.448V277H172.395V264.28H174.603V266.176C175.067 265.52 175.675 265.024 176.427 264.688C177.179 264.336 178.035 264.16 178.995 264.16C179.987 264.16 180.867 264.36 181.635 264.76C182.403 265.16 182.995 265.744 183.411 266.512C183.891 265.776 184.555 265.2 185.403 264.784C186.267 264.368 187.235 264.16 188.307 264.16ZM204.786 264.16C206.546 264.16 207.89 264.592 208.818 265.456C209.762 266.32 210.234 267.608 210.234 269.32V277H208.05V275.32C207.666 275.912 207.114 276.368 206.394 276.688C205.69 276.992 204.85 277.144 203.874 277.144C202.45 277.144 201.306 276.8 200.442 276.112C199.594 275.424 199.17 274.52 199.17 273.4C199.17 272.28 199.578 271.384 200.394 270.712C201.21 270.024 202.506 269.68 204.282 269.68H207.93V269.224C207.93 268.232 207.642 267.472 207.066 266.944C206.49 266.416 205.642 266.152 204.522 266.152C203.77 266.152 203.034 266.28 202.314 266.536C201.594 266.776 200.986 267.104 200.49 267.52L199.53 265.792C200.186 265.264 200.97 264.864 201.882 264.592C202.794 264.304 203.762 264.16 204.786 264.16ZM204.258 275.368C205.138 275.368 205.898 275.176 206.538 274.792C207.178 274.392 207.642 273.832 207.93 273.112V271.336H204.378C202.426 271.336 201.45 271.992 201.45 273.304C201.45 273.944 201.698 274.448 202.194 274.816C202.69 275.184 203.378 275.368 204.258 275.368ZM223.69 264.16C225.306 264.16 226.586 264.632 227.53 265.576C228.49 266.504 228.97 267.872 228.97 269.68V277H226.666V269.944C226.666 268.712 226.37 267.784 225.778 267.16C225.186 266.536 224.338 266.224 223.234 266.224C221.986 266.224 221.002 266.592 220.282 267.328C219.562 268.048 219.202 269.088 219.202 270.448V277H216.898V264.28H219.106V266.2C219.57 265.544 220.194 265.04 220.978 264.688C221.778 264.336 222.682 264.16 223.69 264.16ZM240.266 264.16C242.026 264.16 243.37 264.592 244.298 265.456C245.242 266.32 245.714 267.608 245.714 269.32V277H243.53V275.32C243.146 275.912 242.594 276.368 241.874 276.688C241.17 276.992 240.33 277.144 239.354 277.144C237.93 277.144 236.786 276.8 235.922 276.112C235.074 275.424 234.65 274.52 234.65 273.4C234.65 272.28 235.058 271.384 235.874 270.712C236.69 270.024 237.986 269.68 239.762 269.68H243.41V269.224C243.41 268.232 243.122 267.472 242.546 266.944C241.97 266.416 241.122 266.152 240.002 266.152C239.25 266.152 238.514 266.28 237.794 266.536C237.074 266.776 236.466 267.104 235.97 267.52L235.01 265.792C235.666 265.264 236.45 264.864 237.362 264.592C238.274 264.304 239.242 264.16 240.266 264.16ZM239.738 275.368C240.618 275.368 241.378 275.176 242.018 274.792C242.658 274.392 243.122 273.832 243.41 273.112V271.336H239.858C237.906 271.336 236.93 271.992 236.93 273.304C236.93 273.944 237.178 274.448 237.674 274.816C238.17 275.184 238.858 275.368 239.738 275.368ZM264.616 264.28V275.272C264.616 277.496 264.064 279.136 262.96 280.192C261.856 281.264 260.208 281.8 258.016 281.8C256.816 281.8 255.672 281.632 254.584 281.296C253.496 280.976 252.616 280.512 251.944 279.904L253.048 278.128C253.64 278.64 254.368 279.04 255.232 279.328C256.112 279.632 257.016 279.784 257.944 279.784C259.432 279.784 260.528 279.432 261.232 278.728C261.952 278.024 262.312 276.952 262.312 275.512V274.504C261.768 275.16 261.096 275.656 260.296 275.992C259.512 276.312 258.656 276.472 257.728 276.472C256.512 276.472 255.408 276.216 254.416 275.704C253.44 275.176 252.672 274.448 252.112 273.52C251.552 272.576 251.272 271.504 251.272 270.304C251.272 269.104 251.552 268.04 252.112 267.112C252.672 266.168 253.44 265.44 254.416 264.928C255.408 264.416 256.512 264.16 257.728 264.16C258.688 264.16 259.576 264.336 260.392 264.688C261.224 265.04 261.904 265.56 262.432 266.248V264.28H264.616ZM257.992 274.456C258.824 274.456 259.568 274.28 260.224 273.928C260.896 273.576 261.416 273.088 261.784 272.464C262.168 271.824 262.36 271.104 262.36 270.304C262.36 269.072 261.952 268.08 261.136 267.328C260.32 266.56 259.272 266.176 257.992 266.176C256.696 266.176 255.64 266.56 254.824 267.328C254.008 268.08 253.6 269.072 253.6 270.304C253.6 271.104 253.784 271.824 254.152 272.464C254.536 273.088 255.056 273.576 255.712 273.928C256.384 274.28 257.144 274.456 257.992 274.456ZM282.914 270.712C282.914 270.888 282.898 271.12 282.866 271.408H272.546C272.69 272.528 273.178 273.432 274.01 274.12C274.858 274.792 275.906 275.128 277.154 275.128C278.674 275.128 279.898 274.616 280.826 273.592L282.098 275.08C281.522 275.752 280.802 276.264 279.938 276.616C279.09 276.968 278.138 277.144 277.082 277.144C275.738 277.144 274.546 276.872 273.506 276.328C272.466 275.768 271.658 274.992 271.082 274C270.522 273.008 270.242 271.888 270.242 270.64C270.242 269.408 270.514 268.296 271.058 267.304C271.618 266.312 272.378 265.544 273.338 265C274.314 264.44 275.41 264.16 276.626 264.16C277.842 264.16 278.922 264.44 279.866 265C280.826 265.544 281.57 266.312 282.098 267.304C282.642 268.296 282.914 269.432 282.914 270.712ZM276.626 266.104C275.522 266.104 274.594 266.44 273.842 267.112C273.106 267.784 272.674 268.664 272.546 269.752H280.706C280.578 268.68 280.138 267.808 279.386 267.136C278.65 266.448 277.73 266.104 276.626 266.104ZM289.066 277.144C288.618 277.144 288.234 276.992 287.914 276.688C287.594 276.368 287.434 275.968 287.434 275.488C287.434 275.024 287.594 274.64 287.914 274.336C288.234 274.016 288.618 273.856 289.066 273.856C289.514 273.856 289.89 274.008 290.194 274.312C290.498 274.616 290.65 275.008 290.65 275.488C290.65 275.968 290.49 276.368 290.17 276.688C289.866 276.992 289.498 277.144 289.066 277.144ZM303.095 264.16C304.327 264.16 305.431 264.432 306.407 264.976C307.383 265.52 308.143 266.28 308.687 267.256C309.247 268.232 309.527 269.36 309.527 270.64C309.527 271.92 309.247 273.056 308.687 274.048C308.143 275.024 307.383 275.784 306.407 276.328C305.431 276.872 304.327 277.144 303.095 277.144C302.183 277.144 301.343 276.968 300.575 276.616C299.823 276.264 299.183 275.752 298.655 275.08V281.656H296.351V264.28H298.559V266.296C299.071 265.592 299.719 265.064 300.503 264.712C301.287 264.344 302.151 264.16 303.095 264.16ZM302.903 275.128C303.719 275.128 304.447 274.944 305.087 274.576C305.743 274.192 306.255 273.664 306.623 272.992C307.007 272.304 307.199 271.52 307.199 270.64C307.199 269.76 307.007 268.984 306.623 268.312C306.255 267.624 305.743 267.096 305.087 266.728C304.447 266.36 303.719 266.176 302.903 266.176C302.103 266.176 301.375 266.368 300.719 266.752C300.079 267.12 299.567 267.64 299.183 268.312C298.815 268.984 298.631 269.76 298.631 270.64C298.631 271.52 298.815 272.304 299.183 272.992C299.551 273.664 300.063 274.192 300.719 274.576C301.375 274.944 302.103 275.128 302.903 275.128ZM326.015 264.28L319.847 278.272C319.303 279.568 318.663 280.48 317.927 281.008C317.207 281.536 316.335 281.8 315.311 281.8C314.687 281.8 314.079 281.696 313.487 281.488C312.911 281.296 312.431 281.008 312.047 280.624L313.031 278.896C313.687 279.52 314.447 279.832 315.311 279.832C315.871 279.832 316.335 279.68 316.703 279.376C317.087 279.088 317.431 278.584 317.735 277.864L318.143 276.976L312.527 264.28H314.927L319.367 274.456L323.759 264.28H326.015ZM355.323 264.16C356.923 264.16 358.187 264.624 359.115 265.552C360.059 266.48 360.531 267.856 360.531 269.68V277H358.227V269.944C358.227 268.712 357.939 267.784 357.363 267.16C356.803 266.536 355.995 266.224 354.939 266.224C353.771 266.224 352.843 266.592 352.155 267.328C351.467 268.048 351.123 269.088 351.123 270.448V277H348.819V269.944C348.819 268.712 348.531 267.784 347.955 267.16C347.395 266.536 346.587 266.224 345.531 266.224C344.363 266.224 343.435 266.592 342.747 267.328C342.059 268.048 341.715 269.088 341.715 270.448V277H339.411V264.28H341.619V266.176C342.083 265.52 342.691 265.024 343.443 264.688C344.195 264.336 345.051 264.16 346.011 264.16C347.003 264.16 347.883 264.36 348.651 264.76C349.419 265.16 350.011 265.744 350.427 266.512C350.907 265.776 351.571 265.2 352.419 264.784C353.283 264.368 354.251 264.16 355.323 264.16ZM371.802 264.16C373.562 264.16 374.906 264.592 375.834 265.456C376.778 266.32 377.25 267.608 377.25 269.32V277H375.066V275.32C374.682 275.912 374.13 276.368 373.41 276.688C372.706 276.992 371.866 277.144 370.89 277.144C369.466 277.144 368.322 276.8 367.458 276.112C366.61 275.424 366.186 274.52 366.186 273.4C366.186 272.28 366.594 271.384 367.41 270.712C368.226 270.024 369.522 269.68 371.298 269.68H374.946V269.224C374.946 268.232 374.658 267.472 374.082 266.944C373.506 266.416 372.658 266.152 371.538 266.152C370.786 266.152 370.05 266.28 369.33 266.536C368.61 266.776 368.002 267.104 367.506 267.52L366.546 265.792C367.202 265.264 367.986 264.864 368.898 264.592C369.81 264.304 370.778 264.16 371.802 264.16ZM371.274 275.368C372.154 275.368 372.914 275.176 373.554 274.792C374.194 274.392 374.658 273.832 374.946 273.112V271.336H371.394C369.442 271.336 368.466 271.992 368.466 273.304C368.466 273.944 368.714 274.448 369.21 274.816C369.706 275.184 370.394 275.368 371.274 275.368ZM388.858 271.072L386.218 273.52V277H383.914V259.192H386.218V270.616L393.154 264.28H395.938L390.586 269.536L396.466 277H393.634L388.858 271.072ZM412.06 270.712C412.06 270.888 412.044 271.12 412.012 271.408H401.692C401.836 272.528 402.324 273.432 403.156 274.12C404.004 274.792 405.052 275.128 406.3 275.128C407.82 275.128 409.044 274.616 409.972 273.592L411.244 275.08C410.668 275.752 409.948 276.264 409.084 276.616C408.236 276.968 407.284 277.144 406.228 277.144C404.884 277.144 403.692 276.872 402.652 276.328C401.612 275.768 400.804 274.992 400.228 274C399.668 273.008 399.388 271.888 399.388 270.64C399.388 269.408 399.66 268.296 400.204 267.304C400.764 266.312 401.524 265.544 402.484 265C403.46 264.44 404.556 264.16 405.772 264.16C406.988 264.16 408.068 264.44 409.012 265C409.972 265.544 410.716 266.312 411.244 267.304C411.788 268.296 412.06 269.432 412.06 270.712ZM405.772 266.104C404.668 266.104 403.74 266.44 402.988 267.112C402.252 267.784 401.82 268.664 401.692 269.752H409.852C409.724 268.68 409.284 267.808 408.532 267.136C407.796 266.448 406.876 266.104 405.772 266.104ZM442.416 264.16C444.016 264.16 445.28 264.624 446.208 265.552C447.152 266.48 447.624 267.856 447.624 269.68V277H445.32V269.944C445.32 268.712 445.032 267.784 444.456 267.16C443.896 266.536 443.088 266.224 442.032 266.224C440.864 266.224 439.936 266.592 439.248 267.328C438.56 268.048 438.216 269.088 438.216 270.448V277H435.912V269.944C435.912 268.712 435.624 267.784 435.048 267.16C434.488 266.536 433.68 266.224 432.624 266.224C431.456 266.224 430.528 266.592 429.84 267.328C429.152 268.048 428.808 269.088 428.808 270.448V277H426.504V264.28H428.712V266.176C429.176 265.52 429.784 265.024 430.536 264.688C431.288 264.336 432.144 264.16 433.104 264.16C434.096 264.16 434.976 264.36 435.744 264.76C436.512 265.16 437.104 265.744 437.52 266.512C438 265.776 438.664 265.2 439.512 264.784C440.376 264.368 441.344 264.16 442.416 264.16ZM454.264 264.28H456.568V277H454.264V264.28ZM455.416 261.832C454.968 261.832 454.592 261.688 454.288 261.4C454 261.112 453.856 260.76 453.856 260.344C453.856 259.928 454 259.576 454.288 259.288C454.592 258.984 454.968 258.832 455.416 258.832C455.864 258.832 456.232 258.976 456.52 259.264C456.824 259.536 456.976 259.88 456.976 260.296C456.976 260.728 456.824 261.096 456.52 261.4C456.232 261.688 455.864 261.832 455.416 261.832ZM475.535 264.28V275.272C475.535 277.496 474.983 279.136 473.879 280.192C472.775 281.264 471.127 281.8 468.935 281.8C467.735 281.8 466.591 281.632 465.503 281.296C464.415 280.976 463.535 280.512 462.863 279.904L463.967 278.128C464.559 278.64 465.287 279.04 466.151 279.328C467.031 279.632 467.935 279.784 468.863 279.784C470.351 279.784 471.447 279.432 472.151 278.728C472.871 278.024 473.231 276.952 473.231 275.512V274.504C472.687 275.16 472.015 275.656 471.215 275.992C470.431 276.312 469.575 276.472 468.647 276.472C467.431 276.472 466.327 276.216 465.335 275.704C464.359 275.176 463.591 274.448 463.031 273.52C462.471 272.576 462.191 271.504 462.191 270.304C462.191 269.104 462.471 268.04 463.031 267.112C463.591 266.168 464.359 265.44 465.335 264.928C466.327 264.416 467.431 264.16 468.647 264.16C469.607 264.16 470.495 264.336 471.311 264.688C472.143 265.04 472.823 265.56 473.351 266.248V264.28H475.535ZM468.911 274.456C469.743 274.456 470.487 274.28 471.143 273.928C471.815 273.576 472.335 273.088 472.703 272.464C473.087 271.824 473.279 271.104 473.279 270.304C473.279 269.072 472.871 268.08 472.055 267.328C471.239 266.56 470.191 266.176 468.911 266.176C467.615 266.176 466.559 266.56 465.743 267.328C464.927 268.08 464.519 269.072 464.519 270.304C464.519 271.104 464.703 271.824 465.071 272.464C465.455 273.088 465.975 273.576 466.631 273.928C467.303 274.28 468.063 274.456 468.911 274.456ZM484.545 266.416C484.945 265.68 485.537 265.12 486.321 264.736C487.105 264.352 488.057 264.16 489.177 264.16V266.392C489.049 266.376 488.873 266.368 488.649 266.368C487.401 266.368 486.417 266.744 485.697 267.496C484.993 268.232 484.641 269.288 484.641 270.664V277H482.337V264.28H484.545V266.416ZM499.025 264.16C500.785 264.16 502.129 264.592 503.057 265.456C504.001 266.32 504.473 267.608 504.473 269.32V277H502.289V275.32C501.905 275.912 501.353 276.368 500.633 276.688C499.929 276.992 499.089 277.144 498.113 277.144C496.689 277.144 495.545 276.8 494.681 276.112C493.833 275.424 493.409 274.52 493.409 273.4C493.409 272.28 493.817 271.384 494.633 270.712C495.449 270.024 496.745 269.68 498.521 269.68H502.169V269.224C502.169 268.232 501.881 267.472 501.305 266.944C500.729 266.416 499.881 266.152 498.761 266.152C498.009 266.152 497.273 266.28 496.553 266.536C495.833 266.776 495.225 267.104 494.729 267.52L493.769 265.792C494.425 265.264 495.209 264.864 496.121 264.592C497.033 264.304 498.001 264.16 499.025 264.16ZM498.497 275.368C499.377 275.368 500.137 275.176 500.777 274.792C501.417 274.392 501.881 273.832 502.169 273.112V271.336H498.617C496.665 271.336 495.689 271.992 495.689 273.304C495.689 273.944 495.937 274.448 496.433 274.816C496.929 275.184 497.617 275.368 498.497 275.368ZM518.289 276.256C517.953 276.544 517.537 276.768 517.041 276.928C516.545 277.072 516.033 277.144 515.505 277.144C514.225 277.144 513.233 276.8 512.529 276.112C511.825 275.424 511.473 274.44 511.473 273.16V266.176H509.313V264.28H511.473V261.496H513.777V264.28H517.425V266.176H513.777V273.064C513.777 273.752 513.945 274.28 514.281 274.648C514.633 275.016 515.129 275.2 515.769 275.2C516.473 275.2 517.073 275 517.569 274.6L518.289 276.256ZM523.475 264.28H525.779V277H523.475V264.28ZM524.627 261.832C524.179 261.832 523.803 261.688 523.499 261.4C523.211 261.112 523.067 260.76 523.067 260.344C523.067 259.928 523.211 259.576 523.499 259.288C523.803 258.984 524.179 258.832 524.627 258.832C525.075 258.832 525.443 258.976 525.731 259.264C526.035 259.536 526.187 259.88 526.187 260.296C526.187 260.728 526.035 261.096 525.731 261.4C525.443 261.688 525.075 261.832 524.627 261.832ZM538.026 277.144C536.762 277.144 535.626 276.864 534.618 276.304C533.61 275.744 532.818 274.976 532.242 274C531.682 273.008 531.402 271.888 531.402 270.64C531.402 269.392 531.682 268.28 532.242 267.304C532.818 266.312 533.61 265.544 534.618 265C535.626 264.44 536.762 264.16 538.026 264.16C539.29 264.16 540.418 264.44 541.41 265C542.418 265.544 543.202 266.312 543.762 267.304C544.338 268.28 544.626 269.392 544.626 270.64C544.626 271.888 544.338 273.008 543.762 274C543.202 274.976 542.418 275.744 541.41 276.304C540.418 276.864 539.29 277.144 538.026 277.144ZM538.026 275.128C538.842 275.128 539.57 274.944 540.21 274.576C540.866 274.192 541.378 273.664 541.746 272.992C542.114 272.304 542.298 271.52 542.298 270.64C542.298 269.76 542.114 268.984 541.746 268.312C541.378 267.624 540.866 267.096 540.21 266.728C539.57 266.36 538.842 266.176 538.026 266.176C537.21 266.176 536.474 266.36 535.818 266.728C535.178 267.096 534.666 267.624 534.282 268.312C533.914 268.984 533.73 269.76 533.73 270.64C533.73 271.52 533.914 272.304 534.282 272.992C534.666 273.664 535.178 274.192 535.818 274.576C536.474 274.944 537.21 275.128 538.026 275.128ZM557.004 264.16C558.62 264.16 559.9 264.632 560.844 265.576C561.804 266.504 562.284 267.872 562.284 269.68V277H559.98V269.944C559.98 268.712 559.684 267.784 559.092 267.16C558.5 266.536 557.652 266.224 556.548 266.224C555.3 266.224 554.316 266.592 553.596 267.328C552.876 268.048 552.516 269.088 552.516 270.448V277H550.212V264.28H552.42V266.2C552.884 265.544 553.508 265.04 554.292 264.688C555.092 264.336 555.996 264.16 557.004 264.16ZM572.596 277.144C571.556 277.144 570.556 277.008 569.596 276.736C568.636 276.448 567.884 276.088 567.34 275.656L568.3 273.832C568.86 274.232 569.54 274.552 570.34 274.792C571.14 275.032 571.948 275.152 572.764 275.152C574.78 275.152 575.788 274.576 575.788 273.424C575.788 273.04 575.652 272.736 575.38 272.512C575.108 272.288 574.764 272.128 574.348 272.032C573.948 271.92 573.372 271.8 572.62 271.672C571.596 271.512 570.756 271.328 570.1 271.12C569.46 270.912 568.908 270.56 568.444 270.064C567.98 269.568 567.748 268.872 567.748 267.976C567.748 266.824 568.228 265.904 569.188 265.216C570.148 264.512 571.436 264.16 573.052 264.16C573.9 264.16 574.748 264.264 575.596 264.472C576.444 264.68 577.14 264.96 577.684 265.312L576.7 267.136C575.66 266.464 574.436 266.128 573.028 266.128C572.052 266.128 571.308 266.288 570.796 266.608C570.284 266.928 570.028 267.352 570.028 267.88C570.028 268.296 570.172 268.624 570.46 268.864C570.748 269.104 571.1 269.28 571.516 269.392C571.948 269.504 572.548 269.632 573.316 269.776C574.34 269.952 575.164 270.144 575.788 270.352C576.428 270.544 576.972 270.88 577.42 271.36C577.868 271.84 578.092 272.512 578.092 273.376C578.092 274.528 577.596 275.448 576.604 276.136C575.628 276.808 574.292 277.144 572.596 277.144Z" fill="#00FF0A"/>
<path d="M114.92 308.416C114.92 309.68 114.44 310.752 113.48 311.632C112.536 312.512 111.16 313.024 109.352 313.168V315.88H107.816V313.168C106.648 313.104 105.536 312.888 104.48 312.52C103.44 312.136 102.608 311.656 101.984 311.08L102.872 309.208C103.448 309.736 104.176 310.176 105.056 310.528C105.936 310.864 106.856 311.064 107.816 311.128V305.56C106.696 305.288 105.76 304.992 105.008 304.672C104.272 304.352 103.648 303.88 103.136 303.256C102.64 302.632 102.392 301.816 102.392 300.808C102.392 299.544 102.848 298.472 103.76 297.592C104.688 296.712 106.04 296.2 107.816 296.056V293.32H109.352V296.032C110.264 296.064 111.144 296.208 111.992 296.464C112.856 296.72 113.6 297.064 114.224 297.496L113.432 299.416C112.136 298.6 110.776 298.152 109.352 298.072V303.664C110.52 303.952 111.48 304.256 112.232 304.576C112.984 304.88 113.616 305.344 114.128 305.968C114.656 306.576 114.92 307.392 114.92 308.416ZM104.744 300.712C104.744 301.4 105.008 301.936 105.536 302.32C106.064 302.704 106.824 303.024 107.816 303.28V298.096C106.792 298.224 106.024 298.528 105.512 299.008C105 299.472 104.744 300.04 104.744 300.712ZM109.352 311.104C110.424 311.008 111.224 310.736 111.752 310.288C112.296 309.824 112.568 309.248 112.568 308.56C112.568 307.856 112.288 307.32 111.728 306.952C111.184 306.568 110.392 306.232 109.352 305.944V311.104ZM141.504 300.28V311.272C141.504 313.496 140.952 315.136 139.848 316.192C138.744 317.264 137.096 317.8 134.904 317.8C133.704 317.8 132.56 317.632 131.472 317.296C130.384 316.976 129.504 316.512 128.832 315.904L129.936 314.128C130.528 314.64 131.256 315.04 132.12 315.328C133 315.632 133.904 315.784 134.832 315.784C136.32 315.784 137.416 315.432 138.12 314.728C138.84 314.024 139.2 312.952 139.2 311.512V310.504C138.656 311.16 137.984 311.656 137.184 311.992C136.4 312.312 135.544 312.472 134.616 312.472C133.4 312.472 132.296 312.216 131.304 311.704C130.328 311.176 129.56 310.448 129 309.52C128.44 308.576 128.16 307.504 128.16 306.304C128.16 305.104 128.44 304.04 129 303.112C129.56 302.168 130.328 301.44 131.304 300.928C132.296 300.416 133.4 300.16 134.616 300.16C135.576 300.16 136.464 300.336 137.28 300.688C138.112 301.04 138.792 301.56 139.32 302.248V300.28H141.504ZM134.88 310.456C135.712 310.456 136.456 310.28 137.112 309.928C137.784 309.576 138.304 309.088 138.672 308.464C139.056 307.824 139.248 307.104 139.248 306.304C139.248 305.072 138.84 304.08 138.024 303.328C137.208 302.56 136.16 302.176 134.88 302.176C133.584 302.176 132.528 302.56 131.712 303.328C130.896 304.08 130.488 305.072 130.488 306.304C130.488 307.104 130.672 307.824 131.04 308.464C131.424 309.088 131.944 309.576 132.6 309.928C133.272 310.28 134.032 310.456 134.88 310.456ZM148.306 300.28H150.61V313H148.306V300.28ZM149.458 297.832C149.01 297.832 148.634 297.688 148.33 297.4C148.042 297.112 147.898 296.76 147.898 296.344C147.898 295.928 148.042 295.576 148.33 295.288C148.634 294.984 149.01 294.832 149.458 294.832C149.906 294.832 150.274 294.976 150.562 295.264C150.866 295.536 151.018 295.88 151.018 296.296C151.018 296.728 150.866 297.096 150.562 297.4C150.274 297.688 149.906 297.832 149.458 297.832ZM164.561 312.256C164.225 312.544 163.809 312.768 163.313 312.928C162.817 313.072 162.305 313.144 161.777 313.144C160.497 313.144 159.505 312.8 158.801 312.112C158.097 311.424 157.745 310.44 157.745 309.16V302.176H155.585V300.28H157.745V297.496H160.049V300.28H163.697V302.176H160.049V309.064C160.049 309.752 160.217 310.28 160.553 310.648C160.905 311.016 161.401 311.2 162.041 311.2C162.745 311.2 163.345 311 163.841 310.6L164.561 312.256ZM184.136 313.144C182.84 313.144 181.68 312.864 180.656 312.304C179.648 311.744 178.856 310.976 178.28 310C177.704 309.008 177.416 307.888 177.416 306.64C177.416 305.392 177.704 304.28 178.28 303.304C178.856 302.312 179.648 301.544 180.656 301C181.68 300.44 182.84 300.16 184.136 300.16C185.288 300.16 186.312 300.392 187.208 300.856C188.12 301.32 188.824 301.992 189.32 302.872L187.568 304C187.168 303.392 186.672 302.936 186.08 302.632C185.488 302.328 184.832 302.176 184.112 302.176C183.28 302.176 182.528 302.36 181.856 302.728C181.2 303.096 180.68 303.624 180.296 304.312C179.928 304.984 179.744 305.76 179.744 306.64C179.744 307.536 179.928 308.328 180.296 309.016C180.68 309.688 181.2 310.208 181.856 310.576C182.528 310.944 183.28 311.128 184.112 311.128C184.832 311.128 185.488 310.976 186.08 310.672C186.672 310.368 187.168 309.912 187.568 309.304L189.32 310.408C188.824 311.288 188.12 311.968 187.208 312.448C186.312 312.912 185.288 313.144 184.136 313.144ZM199.963 313.144C198.699 313.144 197.563 312.864 196.555 312.304C195.547 311.744 194.755 310.976 194.179 310C193.619 309.008 193.339 307.888 193.339 306.64C193.339 305.392 193.619 304.28 194.179 303.304C194.755 302.312 195.547 301.544 196.555 301C197.563 300.44 198.699 300.16 199.963 300.16C201.227 300.16 202.355 300.44 203.347 301C204.355 301.544 205.139 302.312 205.699 303.304C206.275 304.28 206.563 305.392 206.563 306.64C206.563 307.888 206.275 309.008 205.699 310C205.139 310.976 204.355 311.744 203.347 312.304C202.355 312.864 201.227 313.144 199.963 313.144ZM199.963 311.128C200.779 311.128 201.507 310.944 202.147 310.576C202.803 310.192 203.315 309.664 203.683 308.992C204.051 308.304 204.235 307.52 204.235 306.64C204.235 305.76 204.051 304.984 203.683 304.312C203.315 303.624 202.803 303.096 202.147 302.728C201.507 302.36 200.779 302.176 199.963 302.176C199.147 302.176 198.411 302.36 197.755 302.728C197.115 303.096 196.603 303.624 196.219 304.312C195.851 304.984 195.667 305.76 195.667 306.64C195.667 307.52 195.851 308.304 196.219 308.992C196.603 309.664 197.115 310.192 197.755 310.576C198.411 310.944 199.147 311.128 199.963 311.128ZM228.062 300.16C229.662 300.16 230.926 300.624 231.854 301.552C232.798 302.48 233.27 303.856 233.27 305.68V313H230.966V305.944C230.966 304.712 230.678 303.784 230.102 303.16C229.542 302.536 228.734 302.224 227.678 302.224C226.51 302.224 225.582 302.592 224.894 303.328C224.206 304.048 223.862 305.088 223.862 306.448V313H221.558V305.944C221.558 304.712 221.27 303.784 220.694 303.16C220.134 302.536 219.326 302.224 218.27 302.224C217.102 302.224 216.174 302.592 215.486 303.328C214.798 304.048 214.454 305.088 214.454 306.448V313H212.15V300.28H214.358V302.176C214.822 301.52 215.43 301.024 216.182 300.688C216.934 300.336 217.79 300.16 218.75 300.16C219.742 300.16 220.622 300.36 221.39 300.76C222.158 301.16 222.75 301.744 223.166 302.512C223.646 301.776 224.31 301.2 225.158 300.784C226.022 300.368 226.99 300.16 228.062 300.16ZM255.821 300.16C257.421 300.16 258.685 300.624 259.613 301.552C260.557 302.48 261.029 303.856 261.029 305.68V313H258.725V305.944C258.725 304.712 258.437 303.784 257.861 303.16C257.301 302.536 256.493 302.224 255.437 302.224C254.269 302.224 253.341 302.592 252.653 303.328C251.965 304.048 251.621 305.088 251.621 306.448V313H249.317V305.944C249.317 304.712 249.029 303.784 248.453 303.16C247.893 302.536 247.085 302.224 246.029 302.224C244.861 302.224 243.933 302.592 243.245 303.328C242.557 304.048 242.213 305.088 242.213 306.448V313H239.909V300.28H242.117V302.176C242.581 301.52 243.189 301.024 243.941 300.688C244.693 300.336 245.549 300.16 246.509 300.16C247.501 300.16 248.381 300.36 249.149 300.76C249.917 301.16 250.509 301.744 250.925 302.512C251.405 301.776 252.069 301.2 252.917 300.784C253.781 300.368 254.749 300.16 255.821 300.16ZM267.668 300.28H269.972V313H267.668V300.28ZM268.82 297.832C268.372 297.832 267.996 297.688 267.692 297.4C267.404 297.112 267.26 296.76 267.26 296.344C267.26 295.928 267.404 295.576 267.692 295.288C267.996 294.984 268.372 294.832 268.82 294.832C269.268 294.832 269.636 294.976 269.924 295.264C270.228 295.536 270.38 295.88 270.38 296.296C270.38 296.728 270.228 297.096 269.924 297.4C269.636 297.688 269.268 297.832 268.82 297.832ZM283.923 312.256C283.587 312.544 283.171 312.768 282.675 312.928C282.179 313.072 281.667 313.144 281.139 313.144C279.859 313.144 278.867 312.8 278.163 312.112C277.459 311.424 277.107 310.44 277.107 309.16V302.176H274.947V300.28H277.107V297.496H279.411V300.28H283.059V302.176H279.411V309.064C279.411 309.752 279.579 310.28 279.915 310.648C280.267 311.016 280.763 311.2 281.403 311.2C282.107 311.2 282.707 311 283.203 310.6L283.923 312.256ZM297.138 305.416H303.594V307.408H297.138V305.416ZM325.454 300.16C327.054 300.16 328.318 300.624 329.246 301.552C330.19 302.48 330.662 303.856 330.662 305.68V313H328.358V305.944C328.358 304.712 328.07 303.784 327.494 303.16C326.934 302.536 326.126 302.224 325.07 302.224C323.902 302.224 322.974 302.592 322.286 303.328C321.598 304.048 321.254 305.088 321.254 306.448V313H318.95V305.944C318.95 304.712 318.662 303.784 318.086 303.16C317.526 302.536 316.718 302.224 315.662 302.224C314.494 302.224 313.566 302.592 312.878 303.328C312.19 304.048 311.846 305.088 311.846 306.448V313H309.542V300.28H311.75V302.176C312.214 301.52 312.822 301.024 313.574 300.688C314.326 300.336 315.182 300.16 316.142 300.16C317.134 300.16 318.014 300.36 318.782 300.76C319.55 301.16 320.142 301.744 320.558 302.512C321.038 301.776 321.702 301.2 322.55 300.784C323.414 300.368 324.382 300.16 325.454 300.16ZM347.25 298.768C347.57 298.88 347.818 299.064 347.994 299.32C348.17 299.576 348.258 299.888 348.258 300.256C348.258 300.736 348.106 301.128 347.802 301.432C347.498 301.736 347.122 301.888 346.674 301.888C346.21 301.888 345.826 301.736 345.522 301.432C345.218 301.112 345.066 300.72 345.066 300.256C345.066 300.032 345.09 299.808 345.138 299.584C345.202 299.344 345.322 299 345.498 298.552L346.626 295.192H348.138L347.25 298.768ZM351.786 298.768C352.106 298.88 352.354 299.064 352.53 299.32C352.706 299.576 352.794 299.888 352.794 300.256C352.794 300.736 352.642 301.128 352.338 301.432C352.034 301.736 351.658 301.888 351.21 301.888C350.746 301.888 350.362 301.736 350.058 301.432C349.754 301.112 349.602 300.72 349.602 300.256C349.602 300.032 349.626 299.808 349.674 299.584C349.738 299.344 349.858 299 350.034 298.552L351.162 295.192H352.674L351.786 298.768ZM370.099 313L366.475 307.84C366.027 307.872 365.675 307.888 365.419 307.888H361.267V313H358.867V296.2H365.419C367.595 296.2 369.307 296.72 370.555 297.76C371.803 298.8 372.427 300.232 372.427 302.056C372.427 303.352 372.107 304.456 371.467 305.368C370.827 306.28 369.915 306.944 368.731 307.36L372.715 313H370.099ZM365.347 305.848C366.867 305.848 368.027 305.52 368.827 304.864C369.627 304.208 370.027 303.272 370.027 302.056C370.027 300.84 369.627 299.912 368.827 299.272C368.027 298.616 366.867 298.288 365.347 298.288H361.267V305.848H365.347ZM389.864 306.712C389.864 306.888 389.848 307.12 389.816 307.408H379.496C379.64 308.528 380.128 309.432 380.96 310.12C381.808 310.792 382.856 311.128 384.104 311.128C385.624 311.128 386.848 310.616 387.776 309.592L389.048 311.08C388.472 311.752 387.752 312.264 386.888 312.616C386.04 312.968 385.088 313.144 384.032 313.144C382.688 313.144 381.496 312.872 380.456 312.328C379.416 311.768 378.608 310.992 378.032 310C377.472 309.008 377.192 307.888 377.192 306.64C377.192 305.408 377.464 304.296 378.008 303.304C378.568 302.312 379.328 301.544 380.288 301C381.264 300.44 382.36 300.16 383.576 300.16C384.792 300.16 385.872 300.44 386.816 301C387.776 301.544 388.52 302.312 389.048 303.304C389.592 304.296 389.864 305.432 389.864 306.712ZM383.576 302.104C382.472 302.104 381.544 302.44 380.792 303.112C380.056 303.784 379.624 304.664 379.496 305.752H387.656C387.528 304.68 387.088 303.808 386.336 303.136C385.6 302.448 384.68 302.104 383.576 302.104ZM399.744 300.16C401.504 300.16 402.848 300.592 403.776 301.456C404.72 302.32 405.192 303.608 405.192 305.32V313H403.008V311.32C402.624 311.912 402.072 312.368 401.352 312.688C400.648 312.992 399.808 313.144 398.832 313.144C397.408 313.144 396.264 312.8 395.4 312.112C394.552 311.424 394.128 310.52 394.128 309.4C394.128 308.28 394.536 307.384 395.352 306.712C396.168 306.024 397.464 305.68 399.24 305.68H402.888V305.224C402.888 304.232 402.6 303.472 402.024 302.944C401.448 302.416 400.6 302.152 399.48 302.152C398.728 302.152 397.992 302.28 397.272 302.536C396.552 302.776 395.944 303.104 395.448 303.52L394.488 301.792C395.144 301.264 395.928 300.864 396.84 300.592C397.752 300.304 398.72 300.16 399.744 300.16ZM399.216 311.368C400.096 311.368 400.856 311.176 401.496 310.792C402.136 310.392 402.6 309.832 402.888 309.112V307.336H399.336C397.384 307.336 396.408 307.992 396.408 309.304C396.408 309.944 396.656 310.448 397.152 310.816C397.648 311.184 398.336 311.368 399.216 311.368ZM423.926 295.192V313H421.718V310.984C421.206 311.688 420.558 312.224 419.774 312.592C418.99 312.96 418.126 313.144 417.182 313.144C415.95 313.144 414.846 312.872 413.87 312.328C412.894 311.784 412.126 311.024 411.566 310.048C411.022 309.056 410.75 307.92 410.75 306.64C410.75 305.36 411.022 304.232 411.566 303.256C412.126 302.28 412.894 301.52 413.87 300.976C414.846 300.432 415.95 300.16 417.182 300.16C418.094 300.16 418.934 300.336 419.702 300.688C420.47 301.024 421.11 301.528 421.622 302.2V295.192H423.926ZM417.374 311.128C418.174 311.128 418.902 310.944 419.558 310.576C420.214 310.192 420.726 309.664 421.094 308.992C421.462 308.304 421.646 307.52 421.646 306.64C421.646 305.76 421.462 304.984 421.094 304.312C420.726 303.624 420.214 303.096 419.558 302.728C418.902 302.36 418.174 302.176 417.374 302.176C416.558 302.176 415.822 302.36 415.166 302.728C414.526 303.096 414.014 303.624 413.63 304.312C413.262 304.984 413.078 305.76 413.078 306.64C413.078 307.52 413.262 308.304 413.63 308.992C414.014 309.664 414.526 310.192 415.166 310.576C415.822 310.944 416.558 311.128 417.374 311.128ZM441.942 300.28L435.774 314.272C435.23 315.568 434.59 316.48 433.854 317.008C433.134 317.536 432.262 317.8 431.238 317.8C430.614 317.8 430.006 317.696 429.414 317.488C428.838 317.296 428.358 317.008 427.974 316.624L428.958 314.896C429.614 315.52 430.374 315.832 431.238 315.832C431.798 315.832 432.262 315.68 432.63 315.376C433.014 315.088 433.358 314.584 433.662 313.864L434.07 312.976L428.454 300.28H430.854L435.294 310.456L439.686 300.28H441.942ZM462.489 312.256C462.153 312.544 461.737 312.768 461.241 312.928C460.745 313.072 460.233 313.144 459.705 313.144C458.425 313.144 457.433 312.8 456.729 312.112C456.025 311.424 455.673 310.44 455.673 309.16V302.176H453.513V300.28H455.673V297.496H457.977V300.28H461.625V302.176H457.977V309.064C457.977 309.752 458.145 310.28 458.481 310.648C458.833 311.016 459.329 311.2 459.969 311.2C460.673 311.2 461.273 311 461.769 310.6L462.489 312.256ZM472.701 313.144C471.437 313.144 470.301 312.864 469.293 312.304C468.285 311.744 467.493 310.976 466.917 310C466.357 309.008 466.077 307.888 466.077 306.64C466.077 305.392 466.357 304.28 466.917 303.304C467.493 302.312 468.285 301.544 469.293 301C470.301 300.44 471.437 300.16 472.701 300.16C473.965 300.16 475.093 300.44 476.085 301C477.093 301.544 477.877 302.312 478.437 303.304C479.013 304.28 479.301 305.392 479.301 306.64C479.301 307.888 479.013 309.008 478.437 310C477.877 310.976 477.093 311.744 476.085 312.304C475.093 312.864 473.965 313.144 472.701 313.144ZM472.701 311.128C473.517 311.128 474.245 310.944 474.885 310.576C475.541 310.192 476.053 309.664 476.421 308.992C476.789 308.304 476.973 307.52 476.973 306.64C476.973 305.76 476.789 304.984 476.421 304.312C476.053 303.624 475.541 303.096 474.885 302.728C474.245 302.36 473.517 302.176 472.701 302.176C471.885 302.176 471.149 302.36 470.493 302.728C469.853 303.096 469.341 303.624 468.957 304.312C468.589 304.984 468.405 305.76 468.405 306.64C468.405 307.52 468.589 308.304 468.957 308.992C469.341 309.664 469.853 310.192 470.493 310.576C471.149 310.944 471.885 311.128 472.701 311.128ZM494.068 296.2H501.148C502.924 296.2 504.5 296.552 505.876 297.256C507.252 297.96 508.316 298.952 509.068 300.232C509.836 301.496 510.22 302.952 510.22 304.6C510.22 306.248 509.836 307.712 509.068 308.992C508.316 310.256 507.252 311.24 505.876 311.944C504.5 312.648 502.924 313 501.148 313H494.068V296.2ZM501.004 310.912C502.364 310.912 503.556 310.648 504.58 310.12C505.62 309.592 506.42 308.856 506.98 307.912C507.54 306.952 507.82 305.848 507.82 304.6C507.82 303.352 507.54 302.256 506.98 301.312C506.42 300.352 505.62 299.608 504.58 299.08C503.556 298.552 502.364 298.288 501.004 298.288H496.468V310.912H501.004ZM527.457 306.712C527.457 306.888 527.441 307.12 527.409 307.408H517.089C517.233 308.528 517.721 309.432 518.553 310.12C519.401 310.792 520.449 311.128 521.697 311.128C523.217 311.128 524.441 310.616 525.369 309.592L526.641 311.08C526.065 311.752 525.345 312.264 524.481 312.616C523.633 312.968 522.681 313.144 521.625 313.144C520.281 313.144 519.089 312.872 518.049 312.328C517.009 311.768 516.201 310.992 515.625 310C515.065 309.008 514.785 307.888 514.785 306.64C514.785 305.408 515.057 304.296 515.601 303.304C516.161 302.312 516.921 301.544 517.881 301C518.857 300.44 519.953 300.16 521.169 300.16C522.385 300.16 523.465 300.44 524.409 301C525.369 301.544 526.113 302.312 526.641 303.304C527.185 304.296 527.457 305.432 527.457 306.712ZM521.169 302.104C520.065 302.104 519.137 302.44 518.385 303.112C517.649 303.784 517.217 304.664 517.089 305.752H525.249C525.121 304.68 524.681 303.808 523.929 303.136C523.193 302.448 522.273 302.104 521.169 302.104ZM539.8 300.16C541.032 300.16 542.136 300.432 543.112 300.976C544.088 301.52 544.848 302.28 545.392 303.256C545.952 304.232 546.232 305.36 546.232 306.64C546.232 307.92 545.952 309.056 545.392 310.048C544.848 311.024 544.088 311.784 543.112 312.328C542.136 312.872 541.032 313.144 539.8 313.144C538.888 313.144 538.048 312.968 537.28 312.616C536.528 312.264 535.888 311.752 535.36 311.08V317.656H533.056V300.28H535.264V302.296C535.776 301.592 536.424 301.064 537.208 300.712C537.992 300.344 538.856 300.16 539.8 300.16ZM539.608 311.128C540.424 311.128 541.152 310.944 541.792 310.576C542.448 310.192 542.96 309.664 543.328 308.992C543.712 308.304 543.904 307.52 543.904 306.64C543.904 305.76 543.712 304.984 543.328 304.312C542.96 303.624 542.448 303.096 541.792 302.728C541.152 302.36 540.424 302.176 539.608 302.176C538.808 302.176 538.08 302.368 537.424 302.752C536.784 303.12 536.272 303.64 535.888 304.312C535.52 304.984 535.336 305.76 535.336 306.64C535.336 307.52 535.52 308.304 535.888 308.992C536.256 309.664 536.768 310.192 537.424 310.576C538.08 310.944 538.808 311.128 539.608 311.128ZM551.815 295.192H554.119V313H551.815V295.192ZM566.366 313.144C565.102 313.144 563.966 312.864 562.958 312.304C561.95 311.744 561.158 310.976 560.582 310C560.022 309.008 559.742 307.888 559.742 306.64C559.742 305.392 560.022 304.28 560.582 303.304C561.158 302.312 561.95 301.544 562.958 301C563.966 300.44 565.102 300.16 566.366 300.16C567.63 300.16 568.758 300.44 569.75 301C570.758 301.544 571.542 302.312 572.102 303.304C572.678 304.28 572.966 305.392 572.966 306.64C572.966 307.888 572.678 309.008 572.102 310C571.542 310.976 570.758 311.744 569.75 312.304C568.758 312.864 567.63 313.144 566.366 313.144ZM566.366 311.128C567.182 311.128 567.91 310.944 568.55 310.576C569.206 310.192 569.718 309.664 570.086 308.992C570.454 308.304 570.638 307.52 570.638 306.64C570.638 305.76 570.454 304.984 570.086 304.312C569.718 303.624 569.206 303.096 568.55 302.728C567.91 302.36 567.182 302.176 566.366 302.176C565.55 302.176 564.814 302.36 564.158 302.728C563.518 303.096 563.006 303.624 562.622 304.312C562.254 304.984 562.07 305.76 562.07 306.64C562.07 307.52 562.254 308.304 562.622 308.992C563.006 309.664 563.518 310.192 564.158 310.576C564.814 310.944 565.55 311.128 566.366 311.128ZM589.457 300.28L583.289 314.272C582.745 315.568 582.105 316.48 581.369 317.008C580.649 317.536 579.777 317.8 578.753 317.8C578.129 317.8 577.521 317.696 576.929 317.488C576.353 317.296 575.873 317.008 575.489 316.624L576.473 314.896C577.129 315.52 577.889 315.832 578.753 315.832C579.313 315.832 579.777 315.68 580.145 315.376C580.529 315.088 580.873 314.584 581.177 313.864L581.585 312.976L575.969 300.28H578.369L582.809 310.456L587.201 300.28H589.457ZM593.695 296.2H596.407L595.951 307.696H594.127L593.695 296.2ZM595.063 313.144C594.615 313.144 594.239 313 593.935 312.712C593.631 312.408 593.479 312.04 593.479 311.608C593.479 311.176 593.631 310.816 593.935 310.528C594.239 310.224 594.615 310.072 595.063 310.072C595.511 310.072 595.879 310.224 596.167 310.528C596.455 310.816 596.599 311.176 596.599 311.608C596.599 312.04 596.447 312.408 596.143 312.712C595.855 313 595.495 313.144 595.063 313.144ZM603.476 295.048C603.924 295.048 604.292 295.208 604.58 295.528C604.884 295.832 605.036 296.216 605.036 296.68C605.036 296.92 605.012 297.16 604.964 297.4C604.916 297.624 604.812 297.952 604.652 298.384L603.5 301.744H601.988L602.876 298.168C602.572 298.056 602.324 297.872 602.132 297.616C601.956 297.344 601.868 297.032 601.868 296.68C601.868 296.2 602.02 295.808 602.324 295.504C602.628 295.2 603.012 295.048 603.476 295.048ZM608.012 295.048C608.46 295.048 608.828 295.208 609.116 295.528C609.42 295.832 609.572 296.216 609.572 296.68C609.572 296.92 609.548 297.16 609.5 297.4C609.452 297.624 609.348 297.952 609.188 298.384L608.036 301.744H606.524L607.412 298.168C607.108 298.056 606.86 297.872 606.668 297.616C606.492 297.344 606.404 297.032 606.404 296.68C606.404 296.2 606.556 295.808 606.86 295.504C607.164 295.2 607.548 295.048 608.012 295.048Z" fill="#00FF0A"/>
<path d="M114.92 344.416C114.92 345.68 114.44 346.752 113.48 347.632C112.536 348.512 111.16 349.024 109.352 349.168V351.88H107.816V349.168C106.648 349.104 105.536 348.888 104.48 348.52C103.44 348.136 102.608 347.656 101.984 347.08L102.872 345.208C103.448 345.736 104.176 346.176 105.056 346.528C105.936 346.864 106.856 347.064 107.816 347.128V341.56C106.696 341.288 105.76 340.992 105.008 340.672C104.272 340.352 103.648 339.88 103.136 339.256C102.64 338.632 102.392 337.816 102.392 336.808C102.392 335.544 102.848 334.472 103.76 333.592C104.688 332.712 106.04 332.2 107.816 332.056V329.32H109.352V332.032C110.264 332.064 111.144 332.208 111.992 332.464C112.856 332.72 113.6 333.064 114.224 333.496L113.432 335.416C112.136 334.6 110.776 334.152 109.352 334.072V339.664C110.52 339.952 111.48 340.256 112.232 340.576C112.984 340.88 113.616 341.344 114.128 341.968C114.656 342.576 114.92 343.392 114.92 344.416ZM104.744 336.712C104.744 337.4 105.008 337.936 105.536 338.32C106.064 338.704 106.824 339.024 107.816 339.28V334.096C106.792 334.224 106.024 334.528 105.512 335.008C105 335.472 104.744 336.04 104.744 336.712ZM109.352 347.104C110.424 347.008 111.224 346.736 111.752 346.288C112.296 345.824 112.568 345.248 112.568 344.56C112.568 343.856 112.288 343.32 111.728 342.952C111.184 342.568 110.392 342.232 109.352 341.944V347.104ZM141.504 336.28V347.272C141.504 349.496 140.952 351.136 139.848 352.192C138.744 353.264 137.096 353.8 134.904 353.8C133.704 353.8 132.56 353.632 131.472 353.296C130.384 352.976 129.504 352.512 128.832 351.904L129.936 350.128C130.528 350.64 131.256 351.04 132.12 351.328C133 351.632 133.904 351.784 134.832 351.784C136.32 351.784 137.416 351.432 138.12 350.728C138.84 350.024 139.2 348.952 139.2 347.512V346.504C138.656 347.16 137.984 347.656 137.184 347.992C136.4 348.312 135.544 348.472 134.616 348.472C133.4 348.472 132.296 348.216 131.304 347.704C130.328 347.176 129.56 346.448 129 345.52C128.44 344.576 128.16 343.504 128.16 342.304C128.16 341.104 128.44 340.04 129 339.112C129.56 338.168 130.328 337.44 131.304 336.928C132.296 336.416 133.4 336.16 134.616 336.16C135.576 336.16 136.464 336.336 137.28 336.688C138.112 337.04 138.792 337.56 139.32 338.248V336.28H141.504ZM134.88 346.456C135.712 346.456 136.456 346.28 137.112 345.928C137.784 345.576 138.304 345.088 138.672 344.464C139.056 343.824 139.248 343.104 139.248 342.304C139.248 341.072 138.84 340.08 138.024 339.328C137.208 338.56 136.16 338.176 134.88 338.176C133.584 338.176 132.528 338.56 131.712 339.328C130.896 340.08 130.488 341.072 130.488 342.304C130.488 343.104 130.672 343.824 131.04 344.464C131.424 345.088 131.944 345.576 132.6 345.928C133.272 346.28 134.032 346.456 134.88 346.456ZM148.306 336.28H150.61V349H148.306V336.28ZM149.458 333.832C149.01 333.832 148.634 333.688 148.33 333.4C148.042 333.112 147.898 332.76 147.898 332.344C147.898 331.928 148.042 331.576 148.33 331.288C148.634 330.984 149.01 330.832 149.458 330.832C149.906 330.832 150.274 330.976 150.562 331.264C150.866 331.536 151.018 331.88 151.018 332.296C151.018 332.728 150.866 333.096 150.562 333.4C150.274 333.688 149.906 333.832 149.458 333.832ZM164.561 348.256C164.225 348.544 163.809 348.768 163.313 348.928C162.817 349.072 162.305 349.144 161.777 349.144C160.497 349.144 159.505 348.8 158.801 348.112C158.097 347.424 157.745 346.44 157.745 345.16V338.176H155.585V336.28H157.745V333.496H160.049V336.28H163.697V338.176H160.049V345.064C160.049 345.752 160.217 346.28 160.553 346.648C160.905 347.016 161.401 347.2 162.041 347.2C162.745 347.2 163.345 347 163.841 346.6L164.561 348.256ZM185.336 336.16C186.568 336.16 187.672 336.432 188.648 336.976C189.624 337.52 190.384 338.28 190.928 339.256C191.488 340.232 191.768 341.36 191.768 342.64C191.768 343.92 191.488 345.056 190.928 346.048C190.384 347.024 189.624 347.784 188.648 348.328C187.672 348.872 186.568 349.144 185.336 349.144C184.424 349.144 183.584 348.968 182.816 348.616C182.064 348.264 181.424 347.752 180.896 347.08V353.656H178.592V336.28H180.8V338.296C181.312 337.592 181.96 337.064 182.744 336.712C183.528 336.344 184.392 336.16 185.336 336.16ZM185.144 347.128C185.96 347.128 186.688 346.944 187.328 346.576C187.984 346.192 188.496 345.664 188.864 344.992C189.248 344.304 189.44 343.52 189.44 342.64C189.44 341.76 189.248 340.984 188.864 340.312C188.496 339.624 187.984 339.096 187.328 338.728C186.688 338.36 185.96 338.176 185.144 338.176C184.344 338.176 183.616 338.368 182.96 338.752C182.32 339.12 181.808 339.64 181.424 340.312C181.056 340.984 180.872 341.76 180.872 342.64C180.872 343.52 181.056 344.304 181.424 344.992C181.792 345.664 182.304 346.192 182.96 346.576C183.616 346.944 184.344 347.128 185.144 347.128ZM209.207 336.28V349H207.023V347.08C206.559 347.736 205.943 348.248 205.175 348.616C204.423 348.968 203.599 349.144 202.703 349.144C201.007 349.144 199.671 348.68 198.695 347.752C197.719 346.808 197.231 345.424 197.231 343.6V336.28H199.535V343.336C199.535 344.568 199.831 345.504 200.423 346.144C201.015 346.768 201.863 347.08 202.967 347.08C204.183 347.08 205.143 346.712 205.847 345.976C206.551 345.24 206.903 344.2 206.903 342.856V336.28H209.207ZM219.641 349.144C218.601 349.144 217.601 349.008 216.641 348.736C215.681 348.448 214.929 348.088 214.385 347.656L215.345 345.832C215.905 346.232 216.585 346.552 217.385 346.792C218.185 347.032 218.993 347.152 219.809 347.152C221.825 347.152 222.833 346.576 222.833 345.424C222.833 345.04 222.697 344.736 222.425 344.512C222.153 344.288 221.809 344.128 221.393 344.032C220.993 343.92 220.417 343.8 219.665 343.672C218.641 343.512 217.801 343.328 217.145 343.12C216.505 342.912 215.953 342.56 215.489 342.064C215.025 341.568 214.793 340.872 214.793 339.976C214.793 338.824 215.273 337.904 216.233 337.216C217.193 336.512 218.481 336.16 220.097 336.16C220.945 336.16 221.793 336.264 222.641 336.472C223.489 336.68 224.185 336.96 224.729 337.312L223.745 339.136C222.705 338.464 221.481 338.128 220.073 338.128C219.097 338.128 218.353 338.288 217.841 338.608C217.329 338.928 217.073 339.352 217.073 339.88C217.073 340.296 217.217 340.624 217.505 340.864C217.793 341.104 218.145 341.28 218.561 341.392C218.993 341.504 219.593 341.632 220.361 341.776C221.385 341.952 222.209 342.144 222.833 342.352C223.473 342.544 224.017 342.88 224.465 343.36C224.913 343.84 225.137 344.512 225.137 345.376C225.137 346.528 224.641 347.448 223.649 348.136C222.673 348.808 221.337 349.144 219.641 349.144ZM237.209 336.16C238.825 336.16 240.105 336.632 241.049 337.576C242.009 338.504 242.489 339.872 242.489 341.68V349H240.185V341.944C240.185 340.712 239.889 339.784 239.297 339.16C238.705 338.536 237.857 338.224 236.753 338.224C235.505 338.224 234.521 338.592 233.801 339.328C233.081 340.048 232.721 341.088 232.721 342.448V349H230.417V331.192H232.721V338.08C233.201 337.472 233.825 337 234.593 336.664C235.377 336.328 236.249 336.16 237.209 336.16ZM264.79 336.16C266.406 336.16 267.686 336.632 268.63 337.576C269.59 338.504 270.07 339.872 270.07 341.68V349H267.766V341.944C267.766 340.712 267.47 339.784 266.878 339.16C266.286 338.536 265.438 338.224 264.334 338.224C263.086 338.224 262.102 338.592 261.382 339.328C260.662 340.048 260.302 341.088 260.302 342.448V349H257.998V331.192H260.302V338.08C260.782 337.472 261.406 337 262.174 336.664C262.958 336.328 263.83 336.16 264.79 336.16ZM288.3 342.712C288.3 342.888 288.284 343.12 288.252 343.408H277.932C278.076 344.528 278.564 345.432 279.396 346.12C280.244 346.792 281.292 347.128 282.54 347.128C284.06 347.128 285.284 346.616 286.212 345.592L287.484 347.08C286.908 347.752 286.188 348.264 285.324 348.616C284.476 348.968 283.524 349.144 282.468 349.144C281.124 349.144 279.932 348.872 278.892 348.328C277.852 347.768 277.044 346.992 276.468 346C275.908 345.008 275.628 343.888 275.628 342.64C275.628 341.408 275.9 340.296 276.444 339.304C277.004 338.312 277.764 337.544 278.724 337C279.7 336.44 280.796 336.16 282.012 336.16C283.228 336.16 284.308 336.44 285.252 337C286.212 337.544 286.956 338.312 287.484 339.304C288.028 340.296 288.3 341.432 288.3 342.712ZM282.012 338.104C280.908 338.104 279.98 338.44 279.228 339.112C278.492 339.784 278.06 340.664 277.932 341.752H286.092C285.964 340.68 285.524 339.808 284.772 339.136C284.036 338.448 283.116 338.104 282.012 338.104ZM296.108 338.416C296.508 337.68 297.1 337.12 297.884 336.736C298.668 336.352 299.62 336.16 300.74 336.16V338.392C300.612 338.376 300.436 338.368 300.212 338.368C298.964 338.368 297.98 338.744 297.26 339.496C296.556 340.232 296.204 341.288 296.204 342.664V349H293.9V336.28H296.108V338.416ZM311.31 349.144C310.046 349.144 308.91 348.864 307.902 348.304C306.894 347.744 306.102 346.976 305.526 346C304.966 345.008 304.686 343.888 304.686 342.64C304.686 341.392 304.966 340.28 305.526 339.304C306.102 338.312 306.894 337.544 307.902 337C308.91 336.44 310.046 336.16 311.31 336.16C312.574 336.16 313.702 336.44 314.694 337C315.702 337.544 316.486 338.312 317.046 339.304C317.622 340.28 317.91 341.392 317.91 342.64C317.91 343.888 317.622 345.008 317.046 346C316.486 346.976 315.702 347.744 314.694 348.304C313.702 348.864 312.574 349.144 311.31 349.144ZM311.31 347.128C312.126 347.128 312.854 346.944 313.494 346.576C314.15 346.192 314.662 345.664 315.03 344.992C315.398 344.304 315.582 343.52 315.582 342.64C315.582 341.76 315.398 340.984 315.03 340.312C314.662 339.624 314.15 339.096 313.494 338.728C312.854 338.36 312.126 338.176 311.31 338.176C310.494 338.176 309.758 338.36 309.102 338.728C308.462 339.096 307.95 339.624 307.566 340.312C307.198 340.984 307.014 341.76 307.014 342.64C307.014 343.52 307.198 344.304 307.566 344.992C307.95 345.664 308.462 346.192 309.102 346.576C309.758 346.944 310.494 347.128 311.31 347.128ZM328.441 343.072L325.801 345.52V349H323.497V331.192H325.801V342.616L332.737 336.28H335.521L330.169 341.536L336.049 349H333.217L328.441 343.072ZM352.307 336.28V349H350.123V347.08C349.659 347.736 349.043 348.248 348.275 348.616C347.523 348.968 346.699 349.144 345.803 349.144C344.107 349.144 342.771 348.68 341.795 347.752C340.819 346.808 340.331 345.424 340.331 343.6V336.28H342.635V343.336C342.635 344.568 342.931 345.504 343.523 346.144C344.115 346.768 344.963 347.08 346.067 347.08C347.283 347.08 348.243 346.712 348.947 345.976C349.651 345.24 350.003 344.2 350.003 342.856V336.28H352.307ZM383.851 336.16C385.451 336.16 386.715 336.624 387.643 337.552C388.587 338.48 389.059 339.856 389.059 341.68V349H386.755V341.944C386.755 340.712 386.467 339.784 385.891 339.16C385.331 338.536 384.523 338.224 383.467 338.224C382.299 338.224 381.371 338.592 380.683 339.328C379.995 340.048 379.651 341.088 379.651 342.448V349H377.347V341.944C377.347 340.712 377.059 339.784 376.483 339.16C375.923 338.536 375.115 338.224 374.059 338.224C372.891 338.224 371.963 338.592 371.275 339.328C370.587 340.048 370.243 341.088 370.243 342.448V349H367.939V336.28H370.147V338.176C370.611 337.52 371.219 337.024 371.971 336.688C372.723 336.336 373.579 336.16 374.539 336.16C375.531 336.16 376.411 336.36 377.179 336.76C377.947 337.16 378.539 337.744 378.955 338.512C379.435 337.776 380.099 337.2 380.947 336.784C381.811 336.368 382.779 336.16 383.851 336.16ZM400.33 336.16C402.09 336.16 403.434 336.592 404.362 337.456C405.306 338.32 405.778 339.608 405.778 341.32V349H403.594V347.32C403.21 347.912 402.658 348.368 401.938 348.688C401.234 348.992 400.394 349.144 399.418 349.144C397.994 349.144 396.85 348.8 395.986 348.112C395.138 347.424 394.714 346.52 394.714 345.4C394.714 344.28 395.122 343.384 395.938 342.712C396.754 342.024 398.05 341.68 399.826 341.68H403.474V341.224C403.474 340.232 403.186 339.472 402.61 338.944C402.034 338.416 401.186 338.152 400.066 338.152C399.314 338.152 398.578 338.28 397.858 338.536C397.138 338.776 396.53 339.104 396.034 339.52L395.074 337.792C395.73 337.264 396.514 336.864 397.426 336.592C398.338 336.304 399.306 336.16 400.33 336.16ZM399.802 347.368C400.682 347.368 401.442 347.176 402.082 346.792C402.722 346.392 403.186 345.832 403.474 345.112V343.336H399.922C397.97 343.336 396.994 343.992 396.994 345.304C396.994 345.944 397.242 346.448 397.738 346.816C398.234 347.184 398.922 347.368 399.802 347.368ZM416.09 349.144C415.05 349.144 414.05 349.008 413.09 348.736C412.13 348.448 411.378 348.088 410.834 347.656L411.794 345.832C412.354 346.232 413.034 346.552 413.834 346.792C414.634 347.032 415.442 347.152 416.258 347.152C418.274 347.152 419.282 346.576 419.282 345.424C419.282 345.04 419.146 344.736 418.874 344.512C418.602 344.288 418.258 344.128 417.842 344.032C417.442 343.92 416.866 343.8 416.114 343.672C415.09 343.512 414.25 343.328 413.594 343.12C412.954 342.912 412.402 342.56 411.938 342.064C411.474 341.568 411.242 340.872 411.242 339.976C411.242 338.824 411.722 337.904 412.682 337.216C413.642 336.512 414.93 336.16 416.546 336.16C417.394 336.16 418.242 336.264 419.09 336.472C419.938 336.68 420.634 336.96 421.178 337.312L420.194 339.136C419.154 338.464 417.93 338.128 416.522 338.128C415.546 338.128 414.802 338.288 414.29 338.608C413.778 338.928 413.522 339.352 413.522 339.88C413.522 340.296 413.666 340.624 413.954 340.864C414.242 341.104 414.594 341.28 415.01 341.392C415.442 341.504 416.042 341.632 416.81 341.776C417.834 341.952 418.658 342.144 419.282 342.352C419.922 342.544 420.466 342.88 420.914 343.36C421.362 343.84 421.586 344.512 421.586 345.376C421.586 346.528 421.09 347.448 420.098 348.136C419.122 348.808 417.786 349.144 416.09 349.144ZM434.017 348.256C433.681 348.544 433.265 348.768 432.769 348.928C432.273 349.072 431.761 349.144 431.233 349.144C429.953 349.144 428.961 348.8 428.257 348.112C427.553 347.424 427.201 346.44 427.201 345.16V338.176H425.041V336.28H427.201V333.496H429.505V336.28H433.153V338.176H429.505V345.064C429.505 345.752 429.673 346.28 430.009 346.648C430.361 347.016 430.857 347.2 431.497 347.2C432.201 347.2 432.801 347 433.297 346.6L434.017 348.256ZM450.277 342.712C450.277 342.888 450.261 343.12 450.229 343.408H439.909C440.053 344.528 440.541 345.432 441.373 346.12C442.221 346.792 443.269 347.128 444.517 347.128C446.037 347.128 447.261 346.616 448.189 345.592L449.461 347.08C448.885 347.752 448.165 348.264 447.301 348.616C446.453 348.968 445.501 349.144 444.445 349.144C443.101 349.144 441.909 348.872 440.869 348.328C439.829 347.768 439.021 346.992 438.445 346C437.885 345.008 437.605 343.888 437.605 342.64C437.605 341.408 437.877 340.296 438.421 339.304C438.981 338.312 439.741 337.544 440.701 337C441.677 336.44 442.773 336.16 443.989 336.16C445.205 336.16 446.285 336.44 447.229 337C448.189 337.544 448.933 338.312 449.461 339.304C450.005 340.296 450.277 341.432 450.277 342.712ZM443.989 338.104C442.885 338.104 441.957 338.44 441.205 339.112C440.469 339.784 440.037 340.664 439.909 341.752H448.069C447.941 340.68 447.501 339.808 446.749 339.136C446.013 338.448 445.093 338.104 443.989 338.104ZM458.084 338.416C458.484 337.68 459.076 337.12 459.86 336.736C460.644 336.352 461.596 336.16 462.716 336.16V338.392C462.588 338.376 462.412 338.368 462.188 338.368C460.94 338.368 459.956 338.744 459.236 339.496C458.532 340.232 458.18 341.288 458.18 342.664V349H455.876V336.28H458.084V338.416Z" fill="#00FF0A"/>
<defs>
<filter id="filter0_d" x="0" y="0" width="979" height="633" filterUnits="userSpaceOnUse" color-interpolation-filters="sRGB">
<feFlood flood-opacity="0" result="BackgroundImageFix"/>
<feColorMatrix in="SourceAlpha" type="matrix" values="0 0 0 0 0 0 0 0 0 0 0 0 0 0 0 0 0 0 127 0"/>
<feOffset dx="6" dy="4"/>
<feGaussianBlur stdDeviation="2"/>
<feColorMatrix type="matrix" values="0 0 0 0 0 0 0 0 0 0 0 0 0 0 0 0 0 0 0.35 0"/>
<feBlend mode="normal" in2="BackgroundImageFix" result="effect1_dropShadow"/>
<feBlend mode="normal" in="SourceGraphic" in2="effect1_dropShadow" result="shape"/>
</filter>
</defs>
</svg>
