<svg width="416" height="87" viewBox="0 0 416 87" fill="none" xmlns="http://www.w3.org/2000/svg">
<path d="M202.203 1.8L193.779 27H189.999L183.123 6.876L176.247 27H172.395L163.971 1.8H167.679L174.483 22.284L181.575 1.8H184.887L191.835 22.392L198.783 1.8H202.203ZM225.505 17.568C225.505 17.832 225.481 18.18 225.433 18.612H209.953C210.169 20.292 210.901 21.648 212.149 22.68C213.421 23.688 214.993 24.192 216.865 24.192C219.145 24.192 220.981 23.424 222.373 21.888L224.281 24.12C223.417 25.128 222.337 25.896 221.041 26.424C219.769 26.952 218.341 27.216 216.757 27.216C214.741 27.216 212.953 26.808 211.393 25.992C209.833 25.152 208.621 23.988 207.757 22.5C206.917 21.012 206.497 19.332 206.497 17.46C206.497 15.612 206.905 13.944 207.721 12.456C208.561 10.968 209.701 9.816 211.141 9C212.605 8.16 214.249 7.74 216.073 7.74C217.897 7.74 219.517 8.16 220.933 9C222.373 9.816 223.489 10.968 224.281 12.456C225.097 13.944 225.505 15.648 225.505 17.568ZM216.073 10.656C214.417 10.656 213.025 11.16 211.897 12.168C210.793 13.176 210.145 14.496 209.953 16.128H222.193C222.001 14.52 221.341 13.212 220.213 12.204C219.109 11.172 217.729 10.656 216.073 10.656ZM233.904 0.287998H237.36V27H233.904V0.287998ZM255.875 27.216C253.931 27.216 252.191 26.796 250.655 25.956C249.143 25.116 247.955 23.964 247.091 22.5C246.227 21.012 245.795 19.332 245.795 17.46C245.795 15.588 246.227 13.92 247.091 12.456C247.955 10.968 249.143 9.816 250.655 9C252.191 8.16 253.931 7.74 255.875 7.74C257.603 7.74 259.139 8.088 260.483 8.784C261.851 9.48 262.907 10.488 263.651 11.808L261.023 13.5C260.423 12.588 259.679 11.904 258.791 11.448C257.903 10.992 256.919 10.764 255.839 10.764C254.591 10.764 253.463 11.04 252.455 11.592C251.471 12.144 250.691 12.936 250.115 13.968C249.563 14.976 249.287 16.14 249.287 17.46C249.287 18.804 249.563 19.992 250.115 21.024C250.691 22.032 251.471 22.812 252.455 23.364C253.463 23.916 254.591 24.192 255.839 24.192C256.919 24.192 257.903 23.964 258.791 23.508C259.679 23.052 260.423 22.368 261.023 21.456L263.651 23.112C262.907 24.432 261.851 25.452 260.483 26.172C259.139 26.868 257.603 27.216 255.875 27.216ZM279.616 27.216C277.72 27.216 276.016 26.796 274.504 25.956C272.992 25.116 271.804 23.964 270.94 22.5C270.1 21.012 269.68 19.332 269.68 17.46C269.68 15.588 270.1 13.92 270.94 12.456C271.804 10.968 272.992 9.816 274.504 9C276.016 8.16 277.72 7.74 279.616 7.74C281.512 7.74 283.204 8.16 284.692 9C286.204 9.816 287.38 10.968 288.22 12.456C289.084 13.92 289.516 15.588 289.516 17.46C289.516 19.332 289.084 21.012 288.22 22.5C287.38 23.964 286.204 25.116 284.692 25.956C283.204 26.796 281.512 27.216 279.616 27.216ZM279.616 24.192C280.84 24.192 281.932 23.916 282.892 23.364C283.876 22.788 284.644 21.996 285.196 20.988C285.748 19.956 286.024 18.78 286.024 17.46C286.024 16.14 285.748 14.976 285.196 13.968C284.644 12.936 283.876 12.144 282.892 11.592C281.932 11.04 280.84 10.764 279.616 10.764C278.392 10.764 277.288 11.04 276.304 11.592C275.344 12.144 274.576 12.936 274 13.968C273.448 14.976 273.172 16.14 273.172 17.46C273.172 18.78 273.448 19.956 274 20.988C274.576 21.996 275.344 22.788 276.304 23.364C277.288 23.916 278.392 24.192 279.616 24.192ZM321.764 7.74C324.164 7.74 326.06 8.436 327.452 9.828C328.868 11.22 329.576 13.284 329.576 16.02V27H326.12V16.416C326.12 14.568 325.688 13.176 324.824 12.24C323.984 11.304 322.772 10.836 321.188 10.836C319.436 10.836 318.044 11.388 317.012 12.492C315.98 13.572 315.464 15.132 315.464 17.172V27H312.008V16.416C312.008 14.568 311.576 13.176 310.712 12.24C309.872 11.304 308.66 10.836 307.076 10.836C305.324 10.836 303.932 11.388 302.9 12.492C301.868 13.572 301.352 15.132 301.352 17.172V27H297.896V7.92H301.208V10.764C301.904 9.78 302.816 9.036 303.944 8.532C305.072 8.004 306.356 7.74 307.796 7.74C309.284 7.74 310.604 8.04 311.756 8.64C312.908 9.24 313.796 10.116 314.42 11.268C315.14 10.164 316.136 9.3 317.408 8.676C318.704 8.052 320.156 7.74 321.764 7.74ZM356.884 17.568C356.884 17.832 356.86 18.18 356.812 18.612H341.332C341.548 20.292 342.28 21.648 343.528 22.68C344.8 23.688 346.372 24.192 348.244 24.192C350.524 24.192 352.36 23.424 353.752 21.888L355.66 24.12C354.796 25.128 353.716 25.896 352.42 26.424C351.148 26.952 349.72 27.216 348.136 27.216C346.12 27.216 344.332 26.808 342.772 25.992C341.212 25.152 340 23.988 339.136 22.5C338.296 21.012 337.876 19.332 337.876 17.46C337.876 15.612 338.284 13.944 339.1 12.456C339.94 10.968 341.08 9.816 342.52 9C343.984 8.16 345.628 7.74 347.452 7.74C349.276 7.74 350.896 8.16 352.312 9C353.752 9.816 354.868 10.968 355.66 12.456C356.476 13.944 356.884 15.648 356.884 17.568ZM347.452 10.656C345.796 10.656 344.404 11.16 343.276 12.168C342.172 13.176 341.524 14.496 341.332 16.128H353.572C353.38 14.52 352.72 13.212 351.592 12.204C350.488 11.172 349.108 10.656 347.452 10.656ZM389.279 25.884C388.775 26.316 388.151 26.652 387.407 26.892C386.663 27.108 385.895 27.216 385.103 27.216C383.183 27.216 381.695 26.7 380.639 25.668C379.583 24.636 379.055 23.16 379.055 21.24V10.764H375.815V7.92H379.055V3.744H382.511V7.92H387.983V10.764H382.511V21.096C382.511 22.128 382.763 22.92 383.267 23.472C383.795 24.024 384.539 24.3 385.499 24.3C386.555 24.3 387.455 24 388.199 23.4L389.279 25.884ZM404.596 27.216C402.7 27.216 400.996 26.796 399.484 25.956C397.972 25.116 396.784 23.964 395.92 22.5C395.08 21.012 394.66 19.332 394.66 17.46C394.66 15.588 395.08 13.92 395.92 12.456C396.784 10.968 397.972 9.816 399.484 9C400.996 8.16 402.7 7.74 404.596 7.74C406.492 7.74 408.184 8.16 409.672 9C411.184 9.816 412.36 10.968 413.2 12.456C414.064 13.92 414.496 15.588 414.496 17.46C414.496 19.332 414.064 21.012 413.2 22.5C412.36 23.964 411.184 25.116 409.672 25.956C408.184 26.796 406.492 27.216 404.596 27.216ZM404.596 24.192C405.82 24.192 406.912 23.916 407.872 23.364C408.856 22.788 409.624 21.996 410.176 20.988C410.728 19.956 411.004 18.78 411.004 17.46C411.004 16.14 410.728 14.976 410.176 13.968C409.624 12.936 408.856 12.144 407.872 11.592C406.912 11.04 405.82 10.764 404.596 10.764C403.372 10.764 402.268 11.04 401.284 11.592C400.324 12.144 399.556 12.936 398.98 13.968C398.428 14.976 398.152 16.14 398.152 17.46C398.152 18.78 398.428 19.956 398.98 20.988C399.556 21.996 400.324 22.788 401.284 23.364C402.268 23.916 403.372 24.192 404.596 24.192ZM18.9665 74.384V86H14.2145V74.288L0.8705 52.4H6.0065L16.7585 70.112L27.5585 52.4H32.3105L18.9665 74.384ZM65.8021 81.824V86H41.4181V52.4H65.1301V56.576H46.2181V66.896H63.0661V70.976H46.2181V81.824H65.8021ZM88.1664 86.384C85.6384 86.384 83.1904 86 80.8224 85.232C78.4864 84.432 76.6464 83.408 75.3024 82.16L77.0784 78.416C78.3584 79.568 79.9904 80.512 81.9744 81.248C83.9904 81.952 86.0544 82.304 88.1664 82.304C90.9504 82.304 93.0304 81.84 94.4064 80.912C95.7824 79.952 96.4704 78.688 96.4704 77.12C96.4704 75.968 96.0864 75.04 95.3184 74.336C94.5824 73.6 93.6544 73.04 92.5344 72.656C91.4464 72.272 89.8944 71.84 87.8784 71.36C85.3504 70.752 83.3024 70.144 81.7344 69.536C80.1984 68.928 78.8704 68 77.7504 66.752C76.6624 65.472 76.1184 63.76 76.1184 61.616C76.1184 59.824 76.5824 58.208 77.5104 56.768C78.4704 55.328 79.9104 54.176 81.8304 53.312C83.7504 52.448 86.1344 52.016 88.9824 52.016C90.9664 52.016 92.9184 52.272 94.8384 52.784C96.7584 53.296 98.4064 54.032 99.7824 54.992L98.1984 58.832C96.7904 57.936 95.2864 57.264 93.6864 56.816C92.0864 56.336 90.5184 56.096 88.9824 56.096C86.2624 56.096 84.2144 56.592 82.8384 57.584C81.4944 58.576 80.8224 59.856 80.8224 61.424C80.8224 62.576 81.2064 63.52 81.9744 64.256C82.7424 64.96 83.6864 65.52 84.8064 65.936C85.9584 66.32 87.5104 66.736 89.4624 67.184C91.9904 67.792 94.0224 68.4 95.5584 69.008C97.0944 69.616 98.4064 70.544 99.4944 71.792C100.614 73.04 101.174 74.72 101.174 76.832C101.174 78.592 100.694 80.208 99.7344 81.68C98.7744 83.12 97.3184 84.272 95.3664 85.136C93.4144 85.968 91.0144 86.384 88.1664 86.384ZM159.574 52.4V86H155.638L135.478 60.944V86H130.678V52.4H134.614L154.774 77.456V52.4H159.574ZM198.815 81.824V86H174.431V52.4H198.143V56.576H179.231V66.896H196.079V70.976H179.231V81.824H198.815ZM218.059 56.576H206.539V52.4H234.331V56.576H222.811V86H218.059V56.576ZM291.456 52.4L280.224 86H275.184L266.016 59.168L256.848 86H251.712L240.48 52.4H245.424L254.496 79.712L263.952 52.4H268.368L277.632 79.856L286.896 52.4H291.456ZM316.92 86.384C313.528 86.384 310.472 85.648 307.752 84.176C305.032 82.672 302.888 80.608 301.32 77.984C299.784 75.36 299.016 72.432 299.016 69.2C299.016 65.968 299.784 63.04 301.32 60.416C302.888 57.792 305.032 55.744 307.752 54.272C310.472 52.768 313.528 52.016 316.92 52.016C320.28 52.016 323.32 52.768 326.04 54.272C328.76 55.744 330.888 57.792 332.424 60.416C333.96 63.008 334.728 65.936 334.728 69.2C334.728 72.464 333.96 75.408 332.424 78.032C330.888 80.624 328.76 82.672 326.04 84.176C323.32 85.648 320.28 86.384 316.92 86.384ZM316.92 82.112C319.384 82.112 321.592 81.552 323.544 80.432C325.528 79.312 327.08 77.776 328.2 75.824C329.352 73.84 329.928 71.632 329.928 69.2C329.928 66.768 329.352 64.576 328.2 62.624C327.08 60.64 325.528 59.088 323.544 57.968C321.592 56.848 319.384 56.288 316.92 56.288C314.456 56.288 312.216 56.848 310.2 57.968C308.216 59.088 306.648 60.64 305.496 62.624C304.376 64.576 303.816 66.768 303.816 69.2C303.816 71.632 304.376 73.84 305.496 75.824C306.648 77.776 308.216 79.312 310.2 80.432C312.216 81.552 314.456 82.112 316.92 82.112ZM369.329 86L362.081 75.68C361.185 75.744 360.481 75.776 359.969 75.776H351.665V86H346.865V52.4H359.969C364.321 52.4 367.745 53.44 370.241 55.52C372.737 57.6 373.985 60.464 373.985 64.112C373.985 66.704 373.345 68.912 372.065 70.736C370.785 72.56 368.961 73.888 366.593 74.72L374.561 86H369.329ZM359.825 71.696C362.865 71.696 365.185 71.04 366.785 69.728C368.385 68.416 369.185 66.544 369.185 64.112C369.185 61.68 368.385 59.824 366.785 58.544C365.185 57.232 362.865 56.576 359.825 56.576H351.665V71.696H359.825ZM397.484 71.072L391.34 77.312V86H386.54V52.4H391.34V71.168L409.58 52.4H415.052L400.7 67.52L415.964 86H410.348L397.484 71.072Z" fill="black"/>
</svg>
